<mxfile host="app.diagrams.net" modified="2024-04-08T22:45:41.406Z" agent="Mozilla/5.0 (Windows NT 10.0; Win64; x64) AppleWebKit/537.36 (KHTML, like Gecko) Chrome/123.0.0.0 Safari/537.36" etag="KVZUv4HydfCeDZp-wuyk" version="24.2.2" type="github">
  <diagram name="Page-1" id="i99DJbGHzarzuHNqhG5k">
    <mxGraphModel dx="1134" dy="589" grid="1" gridSize="10" guides="1" tooltips="1" connect="1" arrows="1" fold="1" page="1" pageScale="1" pageWidth="827" pageHeight="1169" math="0" shadow="0">
      <root>
        <mxCell id="0" />
        <mxCell id="1" parent="0" />
        <mxCell id="ZVRVcHzqKUU942DQ3SIE-24" value="" style="rounded=0;whiteSpace=wrap;html=1;rotation=90;" vertex="1" parent="1">
          <mxGeometry x="335" y="30" width="360" height="470" as="geometry" />
        </mxCell>
        <mxCell id="ZVRVcHzqKUU942DQ3SIE-1" value="" style="shape=image;verticalLabelPosition=bottom;labelBackgroundColor=default;verticalAlign=top;aspect=fixed;imageAspect=0;image=data:image/png,iVBORw0KGgoAAAANSUhEUgAAAIgAAAB5CAYAAADidGnuAAAAAXNSR0IArs4c6QAAAARnQU1BAACxjwv8YQUAAAAJcEhZcwAAFiUAABYlAUlSJPAAAABhaVRYdFNuaXBNZXRhZGF0YQAAAAAAeyJjbGlwUG9pbnRzIjpbeyJ4IjowLCJ5IjowfSx7IngiOjEzNiwieSI6MH0seyJ4IjoxMzYsInkiOjEyMn0seyJ4IjowLCJ5IjoxMjJ9XX3xSgAfAAA81klEQVR4Xu3defSeVXUv8BMyzyMEEkgYlTGAWkEEaqsiWm0Fq9au2lrnrnpv1+oft/3zrnXvXa1t/7pt12rtpLeTCCpqrZVBRUCZURkEkgAhISEhA5nzy3j3Zz/vefPk5Tcm+THvX06e932e85xhn+/ZZ+99hnfMgaDyGr1GA9Axnetr9Br1S69JkKNM+zvX/mhMJ7yc6FUpQbJPHOVuIblXYk97VUoQVT6wP6od3XnMmDFx8aHzsEP79+/vBuSdffv2NeAK8t4xx0T/iqtQvx/je1BlqvjuN/kcCqKXQ+981QKke41/+/bvK3v27Dkk9PX1lV27dpXdu3fnd9edO3fmfTRx4sQMY8ePK+PGjy+TJk3KMDnu+T5h/IR4Nr6MjzB2bABn7NguIEBFCV4DyEuUSIXa2ECwcePG8uyzz5bnnnsuw5YtW7pA2bt3b0oOoX5HTcOPLWNIjQCA7+PGjSslPs+YMaPMmTOnzJo1qxx33Pwyffq0Mm3a9DJt8uQyYUIAKOKlxMmUXtr0igFIrQbG12FB41Wx7ropGn/z5s1lawBg1apVZcOGDQmGvLd1a4IFaAChzRZp9ndF+w7sPyTunpBGJEtKkwDEzJkzy5QpU8rUqdPK/GOPLQsXLCjz5h2bIJoW9wHrEIqk9keaqJ0P6v3+QtArDiDI547mUHbt3FWeCwCsWb26PPHkE2XFiqfKtm3byvYAhGGDZKg0UAMM1jChzSQAK+0fpA2nBGCmB1BmzZ5djp8/vyw6aVE5ceHCMju+T5gwIYclSO6vSV4ssLyiAFKrQoI8F5Lh2WfXleWPP16WL1te1qxZE8PKjrIzpIQWHU8n6CiP7Xf7o6MFkMik7Nu7L0ahY1LCTJk8pcyNoejUU0/NsHjx4pQ6wNJbptcAMgQp5lBMIQ3oEE88/kR5+JGfl5WrVpZNmzaFyD5Qtm/bHoAY0+gNY0Jv6LxTq+86ECtGAhCfDwwQfX+Ub8K4Zkgx/O3t251gNtwIAHLG6WeUU049JfWX9vDzGkCGoFrMyhh6QmUgYGx6blNZumxZeejBh8pTK2MY2bqt7N6zO98Din3REJWljcGZHxqKpA/Ec40l1HcE36tiSrmsUgeJ12Vf3Mv7EegQ3kNp9nbiR+Tuu3nN95vPCbMwveksgPL617++nHzyyaHkHlcmhmLL0lKeNK1fQHpZDjG1yBhLj1i6dGm55557yqNLHytbQrdAx4SUaBpp6OqlT6STZk27DRakcar14V67DO3vDSzk2oABQFyFwcj7+2P4cZUPiXLKyaeUCy+8sJzxujPK1ClTm7w69UmfywsAlpcNQPbv239IL1LslStXlnvvvbc88MADZUOYqn0hMfBPw46J4WRcxB2qYVDG6HBBukI2buQjP0qka9e0bTU4K4jJXP0le0N6VGfZcPI+hAC1Q7UcdJJzzjmnXHbZZeWUU05pTOkXkF5WEkQDYBBz9Gc/+1m55ZZbyuqwTnzni4gWLeNjjN+5a2dKhQkTxg/ZSJ6PjzSnhXVxbJihwEDET58+vWuiAoXQbpzKNlflqn6V1c+sKWvXrk3w8q1s3779kLiD0Zh4DJTKBHDiU2Z9nzt3boLkvPPOS/1koHp5Z6g6j4ResgBRrEPc4ZgWSt2qp1eVu+66q/zkJz9Jc7VNbeWQ3jAuwMInsXff3my8VBJ5OqOhjevHHjuvnBy9cnGYm/NjrNcIGgQYkDxHyp49kdfeyEf+QMO8XvHUU+WJJ55ISwqYI9FG2sSQMn58o9eQerw2A+W5Z8/eAO2McvbZZ5dLLrkkrJ6TQ0KGDhaoGqqcnh8uvaQliKJRQDEPwx988MGUGg8//HA2fK+4rQDx3v4AV47X8Q9A+Bh4NInp0049rZx+xull3rx5aVJqsHFjx3WHj5rGSMm7VQfJYS6uUtkX+e+J8q9fvz4srMfLY6EzrX56dZrhQEL6TVAXxR0gX/HS+gowGXZ+5T2/Ut74pjekZ5YETPHToV5AvGIBAhQYTVTTM+688878DDR6ul7YpgoQVB1gPJizZs0sr3vd6wIUZ5QFJywoM2L4MHSoeFvNO1JWeL8CREO20673lZnpbRha8dSKsvSxpeXp1U+n3tK3M6RLPyRdzlWWWC3jvLnzyhve+IZy6aWXhuSbE/kdrPyrAyBRKmYql/jdd9+dQwrGVl0gmdYJGMCvsD+UWD1t7LixqfUfN/+4cuaZZ5XTTzutHH/CCWXatGkZZ3xIC6TR8DXe7jL+SMiQGHZIlid1ic59VFNnAjOpSQOOu3UB+KWPPZaW2IZn16f7H7gTYMc0Q90BZvM+KTRDUKYdBSf9zj333PKWiy8uJy06MTtNf/SKAUhtbGSs5vC64847Unrs2LHjkCHAlYRpGNkE34Fn4cKF5bzzl5TTAhgLFiwoUydPSTDUIUcK1dI42pQAkUMn+fzcocy/RSAUcCk7Q5EFlKeeXJFW2TPPPFN2bN8ZdQwZ1FPMbK74V+s7YeKErCe95Jxzzo7hZ9LzwP6KAQgypBDDj0Wvuu2228ry5csbxa6HVFpPcxUwjJJ55plnZli0eFFaImNDWqhiVjL45LNGGy0PQq+rfUCAtLkeZTJ87Nq+o6xes7o8+uij5aGHHi5rn1kXusuerFu7kbM+EZj+rvSxkxadVC6//PIAyVk5fLbpFQMQRenb1VeWLV9Wvv/975dly5al9cH/oJLAU8l30oKlwBzViy644IJy6imn5lByTAwzxuUxHTGd1OLTMaNU6+ECxHCkvg37XeP/ADwpabrApOJPfvLTHHrMNKMKlPqeUBvfM+b5RRddVM4//7zsHJVeMQDR2BhCcjzyyCMpSVRO5VEtqu/A4gocgPHGN76xnBB6RlolQXXKvI7jlbGVWYfPssHpIIQHpwp2+kWWRoOHRKj6FavnmWfWlodDkjzw4APlqTCV6xAKZ3QQVOtjvskz61Auv/yyctGbfyElSd/u3WHBHbqkYCSAedEBUivtSrSSHI+HKVh1jv6ogsZcxZvf/OZy9llnlxkzZ3SB1KYuIOLaBsho0XABEnDIhm6zfwy/T4d88gwfSJMf//jH2WlIVCY7r3KbDnSrNaaceOKC8ra3va1csGRJrmTD33atX1YAqdkDxc0335w+DmDRw3orUiWHIeSMMFl/6Zd+KZhxYg5B0ukPIJVGGxiVhgsQlCCpFB+jMbqfEV/O7o4UXbduXfnxj35cfvrTn+bEZHumFx0EiNf3l5MXn5wgWXLeeUckQUZLVxs2KSyfwI9+9KO0Viik7lXpoeEriOqwwqfx3ve+Ny0UQ4r4g4HjZUH9tBkeTJ48sUwKJXReKOC//Mu/nI1OGa/U1P1QSWtoXv748nLrbbeWJ59a0R3ODodedAliruKrX/1qAkRFqg5RUe4eRqk0O/8tb3lLeec735lSpIKoxq3ke61W77OXGrXZ39sUzy/7mDR/NfwNN93Y0dGqfrb3YEeK676Qwvh15llnZWc6acHCsjd4KcVeE38wHr1o3U5lKKVc55xgJEcqYB3ynFRgwpm4mjp1atr6V155ZU6oteO26aUOiOFSux4sHg5AYcrUyeWKd15RPvCBD4R0mZK82b//IDgQAIwN/uDpz3/+83LrD3+Y4Bgb9007jIReFICojIrRNyhfFDEad2+ji6eXAMcb3vCGtPOZb/X9Xmoz1eeXA1hqOXtDm5pV881alPSyhuB84xvflJJ0ZijnJvJ6qYKkL0Dy4EMPpcNxd0iVXPc6AnrBAaJxDRvmVG6//fa8UrgMLZ4JleqQc/755+ecA8mBgCY18x5GHi715ltpoPupRNYwGA31fIRkLeu4cc2wOmHCuHLRRW9ORd3iItSU9SBPEiQxDG/ZvDmtwydXPJkzzZVq/fqtY4decICwUDiCSA5eUhUABI2uoL67umcM5d+gnM2fP78rYQCqKqVHCpLKIPn1MkpvJd49awdzKTXkIp/Wa9LwXsY179KT5mBUpUdvQNLpqBtJ7k6ZMqlccMGScullby0Tg1e8sQ1fDjrTvO/+008/HVbQj8qGDesPphllH6p8L7iSyitosQ9Es14wspKCa3wgEiyOIUb5O1S8zbD+aLBnQ1EthzQqYw19wGySsEvBrZqLq0lCQJ4evXjq1Cll0uTJWfa2hKssPpLy9ZLSSm3v/n1ldTT+93/wg/IgK7CvrwFui+SvTJNjGKe/vD2kDt2u0mDlesEBUv0d1nYodC8BgsbiFaWQAgnQuFdBMhAdaQMABH8D4G7ZvCWn4fU8kq5LLYBUspzgpJNOSik3P8ptKOSf4eVt+yuONkCQFM16P/nkilT4H3jgZ8nXumkM7d69J2e4gXZBlO/Xr/5ATk1UK3AwekEAIgsNbAUYN7rhRc90r820Gs9CHgopq4WC6r4g7uECpL5fPyPfMdNCnieffDLnfngrrf6iG5Ec4lrJZjz3mQezMRPH5JVJGQ9SISRJpoQU4aQ6+5yzy+K4nnraqWXRokW5TLAOn0PVYzjU22iUdsrod77znbJy5VMJkLomd08AxDWlRuSPr+94xzuyTKgO1/3RCwIQjb43NO1HH3u03HDDDWXFihU5TveSouhxKsAhBCiDFb6XBmN6bZj6WaOveWZNeSiYyszmpDPfwfQGGmWuAA425zvKbDy3GRtAzKM0EgLQopeGeeGd3MwdjTElwL34lJNzrmjJkiW5doOTq91z22UarPyDkXdJlG0xfN/+4x+VH8TwvXnLllxpxk9iyLHcUvqCtbeksxXzpMqLDhCMtUH61ltvLXfccUc6x/ojjLPD7D3veU+KbIgfCdMGi6vRMcNchvUWtklY23rffffld8+xQtDodTjzfffOXeX4E44vM6aHtRD3qrK8PSTiumfX5Qx0znnoscc0pqgOQbqMnzghpSCvL4Ub+DWM4QfVMstnJHXtJY0o33Xrny3f/va3ywOh57FYKKL8H+308RVY3/Wud+VQPli+ow4QyWO+Wdr/+I//SOkxEPGOQjZvKfNWI42keINVlAiO/lPuufeeFMPAahip5fNuBRGgYnZNb1YooB/60IfT3HaHhEDPhr5y8/duLnffdXfZGmBpoofEiXKzykQ+EDfVowbTBEzTK6644hA9QDlqfrXOg9WnlxIgISkMgffde1/W0ZpXs8ITo7zqnvEibVLOhiwGAPdBpXYZKo39n0Gdz6NCMqR7EOEUU949jGpTZUii+op3NZIj/ur9SkMxrPd5DhEYE/9sj/jmt75Z/vVf/zX9L8pUhxGEYXq2vOtOf0Q8vztA+4lPfKK87owzyuKwqCigwqnRwFavmYXeuGFD00pB0jCsHD//+JQuO7fvKOMMP1EfEoeDkL4jHn1FuQGy6ihZb2m1qjNU3RGuGv5mBqBJt7Vr18U9HIi/eF/Ae53AUOpKsumY3XyD2nmNOkAQS4BZy0LAhHYBaqF5SPUsO967FNF64w5Gvc/ze/wDzH/4h38o//7v/54SjKQQSBUilkLMda032c9CF8E8z88666zyud//XK6Ct1uvShjX8SHlbL42vhuyWEFYbBf/L7/97eXDH/5wHvdgRpZS3tfXTERqCPkAih7PjDcMedauw0Cf+yNP8/34I32Bb2XUw9EWbRJH+avU1DFYXz4rV6bQymvUAULfMEVNGfS5itqsTAQ9B7OZs3QPNa3P2gVFvd97qfc5JlgJ/9d//dc5GUgPwjx5cu0byn7rt36rfPCDH8x1JdaD/ud//mfulhMPIz/+8Y+XK97xzjwtyKxp5tAqG/NxwYITUkIZRidOMne0JyfL3n/VVeXSyy7Nuslv/Yb1aTEhdVae+++/P9OiOFrsg3zvrUvv98FIXKa2Dgns9V5NwxUYSBH1JA2VjzStbVNpVACSor2TCQXwhz/8YTKGGagAVZQhvZSYviqYSXFrP+uldsH7o/ZzyqjV8MChdwOLXqWXMzvf//7357Dx1kvemqYpM/dLX/pSNrJ0gMj8zyd+9+NlTlhThppMPZ6186GUslboHT++48fRCWI4CWA5ZoJkWbLk/HLiopPyekboH4Yuuo/Ogk+uJBxQUsyBRPq9fBiq7m2Sh/iGDvwnvXpJO+CJeh5//PFpMXrnBQFIiq/469vdlwzXQBrskDG2Q3qS8VoPrs/bpLA1DEae09jJeCasySngYMLKowKEufmpT30qAannEPHbt24rP/je98v3v/e9PH1I2Z019od/+IflwgCJPUnu+dfJrPksKG6UefbsOdlbl4U+Yvvnluc2l83RMOede145IRqApMld+697fXYUjUaCZLnjfc44nUicWTNnpclclxWioerfptrIhm1DDOckHiCgrDz2GV8MM3jBevPM+5UGNoCPgFQuYNBdY+qqwLVw7cpSkmxObnscK42EKdI298F6uO/++1Ln4NIHOr2EdLr44ovLH/2PP0rzru5vlS8m6sX2pNhhx39AYb0oQDtUGdLHEGHW7FnlI7/xG5HPrCyDdEkT6VJUrUC3e/+0008rv/3bv11+93d/NzuF9JWRZCNpr7nmmpxU611SOFKqDe0YCXqW9OWVfOoEz3VcAAJOz/1lR+vQqAAE8mWmh8hcIZBCKxjKwkQwvFg+iCp4ahgJeVfDcMZdd9112TA1DeBgVv7+7/9+SIQLswej7ju2GTz8UDaihpkWPe+qq6/O6/7oYUNR9rjg6euiMXgoqyQ0bNBruOx5WnODeTB/5vQZ5epI/9Of/nSCVhlINx2JMs8dQLGv/Dgc8q6GJpHwV5lqR63ks7wpzPQVHQnp3JVGBSAKxr2rkrVQWeBOQIBijymEtxvscKgyw+bob33rW+nKV1kNZxxm73/0ox/N/TJNY1pxFcyI7Ji0hqFn1jyTjWh4ODsslwtj2MtGFR9Pu+Egg7O8vkeHUHL1+bVf+7UU2aTZrl07y+MxdDwWALQuIztHJx08sUXh937v91KSyGdy8GHjho3lO//5nXLbrbfmMJQTb4fBlspz6Z5++unpwTWc+J786gRDjzaiZNOH6rCWdQsaFYDIpG6bJNqSyR1ScEEDYiQzEimQ+yOhWgnXLVu3pKXygx/8oLuPhIb+9o65qRcZPgDJaxRJ7z0dZTQMKqdGjEKUd779Hc26z05jupchKN5u/jKdgy2Xj+M/IORQmzSxAf26tevK/ffel2sybOIyRwJ4iNSgCH/uc5/LKwlmfmfVyqfKt//j2+Wn9/8kO9pICR/xPCVWEOUXr+VXh5ZKJIt7AOJUpt52GB2ARAZQCSCslORehANxwVIMnjh5Ull44sI0r9qMHgnJR+X0DD4FJiprRJ6GNaAgPeg5eqPV4MLmzc+lo2x9iNV77r6nrIgxH9M0nPF60cmL03fB2bR5y9ZUNpvQKJ7dtDZtis+bytbNW/LZc5YFROe4IIax6TOmK2HZsWtH1zHWjRtgEfRYwHSkAx/QrBgKnQSASd4x6706pGLDtZFTbWg+FlMYVVLX+/iuoxpmDDHqVIeZSqPiatdgeiWv5TNrn8nFLLVQ3MGytEr7fb/6q+VNF77hEESPlORFwfr7v//7XPyM4UjPwHjeWaJfvC5F/pxe7pmzUFZbHMePn1DmzJ5d3nLJJanEYlYOVZ2yI8yKGjSfpRMgsBzQkMVTOmnSxPRg3nnHHVku8yDTQue44MILyqLQByjA3s9Z4CBlkIflBXd0fDXSxS/m+O987GPpH5oxa2beazdX5Wkv9Tap7wB67bXX5kx1e0ivaeqo7373u9M3hF9V0owKQOzmuummG8uNN92U4h5AKpNrj7fa+jdC63dwS7uirWMuhiTvAcT3wjz9q7/6q5RY7lUwYIRKqiIL4iA1PUfN+SoqC/Ia79MFXPVms6G1fJ1YGS9DfFMvpwUAvljmadKyieekGAB5f1yA6ECnmt7Dh/gvdAALpKzXCCsu3kmJqxwRAO+St15aPht6yjnnnpMSruYtzVqu4RDfyBe/+MXUz9rbMpF08Mlk4q9Gp83OEWXj2xmVIcbpw6tCQVWonNhS4Q75pKLG+BmhQEbp8l4NIyGMqmtMqgu9Mk+FNUIdbvbEtQaeTqQBcuY2pI0GdPqQ7ya4NFpKhbBqAEWwIlwewFalizjNdW+KaksADB+7YojNekcbgpL3xDN0ZXni6rvy0D32xD3v1jUmNk2ZEeaBtgho545IL6gCRBgu4YHFyry1JEWbalrKwoFHNch7nkUYFYBoNMcZaCDKIMPWpmZBppOnTC7Hzg9Nv6MxHy5hNDOaKx9Vh5hK1vFdaH8WduY9SmlfSjtE6aSk7oi4W7dvixDXHT4fDOq1bVt87lyb7xEivqv7G0IP2dG3K4/kFmq9DSuWAzJ9haZcO+LdSKeGSBO4NCgFE9CfCR3k7tCTLCtMyyuoiv/hkgZnOKQTrrNIqE2eS5MfiH4FLNnBosyjMsQ8tnxZuq3XB0j0TqK1inqNanKIJ3PJeUtyTG7TQLvuqzhN0RzkO0b/3d/9Xeblvt5vOp2Ti2JWpYgKx4cGnR1ybvu999zT3RTN52GtxkknnpgnA4jab0NgV/5rrsqhDvLQ88dNaNaSKFudg6qkXDy5rAl5qmsOSfGeoPwCi+Keu+7K46oig3JiWCF8Jhx8k6dNTTDzzA6XAEt8UvZrX/ta6lx0NGVX7goBLgEWn7kjFuDukKKjApBbb7+9XHPNl7MnGE40rcLISC/ViL/10Y/meeUY0KbBAKKoyVh6QfQITqi/+Iu/yEVIKmTY+uQnP1k+8pGPJEAOoWBqJTrC0kcfK3/6+c+X226/LX0flOb/9X/+d7n08su7oODLeB5AkKRabGuzkASaysUdFgHF+SvXXZd6mPKZ/9HQLCXvqEcyp0PuHYjhjz/nH//xn8r1118fUmdXeqZ/4zc/Uj7z2c+W2XObuRpUr0NRBYhh6pqvXJN6CP3M+/ipI8hbGe3CM7udjrvddKijTDLjk6i9L5lQKQphGKAkKUyLr4OSwkN6FbEq6571o+YwpKfCgFfR7/lAZKUVccrcRfaakGrSSZZ7N0L1dfSG+C9CxOs8b5OV4/QVE3jnn39BMjqlS/BDnnUirZtWm9yLy9xQ3JnoejTdAR+dtvTEE49nOsMFRpc60XUqFkqdl5G/tGp6ylmHmEpHDSC1spi6KUw1yOQYah+uhojQ2XPmNKuchlnPrIS/SMv7iJLnFCIr0D3HRB5Dq7QwYDAmepf7e/36DTkscF5xJnHJU0o11ND0/DhZjhTddsJNKAsWLuxKMsBQ1toA+JR5IUnFd3X0/qTJk8rZYZ6bt+Fw5P53RsgDDzzY7SQjIbzRPoYVm6zqECeg5G8E4KOomuzsDORHX4KoDK+hzJhJqDaWQjLr9AxiMx7k/UqDmbjAIZ0KRNPY9AeSQ0U1riMuZ8+a3RWbAxGLQ2/eGpIO84Bu/vHzO40ZeXTK1R/EuvfEiVCZm2WL24avbBDXuDct0tQwQMnxRjdhWqeXM18QOtIESCLu/r37y8IYhvhwJoY0JIXXrF5TVjz5ZNTt8DyrLCVXVkyVsL7X5/Uz6b9nX1hj8aeNjj5AiKlNz0XCkWl811Nkjg+esWAAJLjYPGsFjBqMMLk2PMdPexrbuM5bqDHcy6Etmd8JGNAJNjJvCb2ABSN+rgwLE9CmJ42bzIqQn3v+4sHBtEjH+jlCZXIl4vy4eceW8cHoSSFRNNLm4I29tN18WnU+kF+DF5Gu2WGr62YE8McEmDyzCn/blmYaIcvSrt9QFNHld3B4b9oFSVtdDkTYHhbgnmgn6ePNUQeIBmTySdxntn3WIQDAttd4CqhwVRoMlzBVkC4vZU4uRTrysp6BGUeCDSY9kOdMYaSXe5/0aIavTm+uZaufhxlqo7tKj2RLEMdtPg9bE0i4nITrj6QTRJJYxDN37rzkH55t3LipO8s7UlIeAUDaelFNKZ/HlWGhIyrH2Lhx1ABSCy1jGSSjKsWz/Isri8Ex2M3wM7KKakjpSt9YWSfl3DcZdWz01qGGF6SMOzoOIb0V6Eg1kiRPaMY4ZT6M0CaNSt/ihIMQ5Sa5lHEoXYJeNE+djp2X/HNKEDf8ylWrRsq2pAoQQzKA4BE+tBPznP4BJPXu0ZMgnRQTfUGVWemqjj//661gMy5Eps/uNXGawguDUX1O4cMspJIAwgHEupHD89LxtRVItd19famgGmcx39jMmkkHVYAmEhlZiHea92o+IZkivamRblXWeWiT+ZFvbo3Md5u4ldpAmx3DjAOApQPEdJjc7TdChLSBWwEi79rhKvnMAsMb5L2jJ0H8RYJd0SXxqFQFRQ3xIK5NoTx/XmMOQjUuLyTpUcGY5mD0VswjWYjhVatW5kH6wtOrni5Pr1xVVq1cmYFXkteTpKjl5cGkCFoXsjYU4LV+tWEkYY1312QaTVhdnl0XFkGUMfkQgZNQPqw82ySUVRz7a+qe4IPhmdSR1K3yqbrpj4TwCTCk2QDkUAhot9xw1WnLo+Yok5hM6Qaf//znsxEVRvIaQNCgdAUTQpYZVgVzuFQBYkr/z/7sz3JxkB7BdLOuxFyDfPVSnSyrHu8og3e93TB6d3FyIIcULyhl0tYDw0HG6+RzONRmpzrzJvNgkh4KpYx+KMgJybpMzYvJS0+r72s8+gvF9P777u/+uuanPv3p8gd/8AfJ6+FSTVNeAGqW3XJMkiRu5sRcMqwT5xOf/GQ595xzo0x7jw5AJAEgGlyv+PM///NUVAGkSpOjBRBp8X/86Z/+aU7SqWQVlcpgfM+4Uatu1TrXbkXjezI43iHhavky/Xh8+PBgqXZzyfToWq7yI2XrRuoMhqVOD66zyt0yezd7Om9nYxbTm3iK//iP/3hEAGE9qZR3AORf/uVfEiA6l6GurdiLAyBLAiDBzaM4xHQq1q18hEMqfJQICASitqatcr6381RR0iFD6BjA6LOrwCGV09kRANl+FmATx72RBo0ptPNs562kOUXQ4U2+F9/re73B8wQ8/0WAxPv5XWOqcysMxeF6qDC+pB8m+FWDt5NnGc//TdnQMccEL/LTERLRWEtZGTAapEKRelYA41XMcJJDSpDeIeSKr9BHNm7amJNyfjeXzkKqmSuh5KakUdZIC7j8vi7FFwNzhvYIA4WSGW5/jMVIzXKBxsLLMkZQNg47IX/0uZW3odJMOPAqYwU98DTNOXxKAGijIDwEtEqedT7k5/wZ+U77+YWJozLEEGHElEbD4D/5kz/JBlGZBqVNwY50iJEGJtFBDGOWGNI/pGnVldlYYEkpw5Tcc3DHvlDFPwB9/WtfK/fce29aMEzk977vfVkmjKplHgn1dgq9XkPfduttORT6zNdijexbLnlLfJ6WACDJKqVk6aSDd+i7N95Qvh31tPRAHT7z6c+U//YH/z33+g5EUmiXBk/SKxqNTx+y6t8cVpVsIlf+KOMnPv6JnNfKeaN4cNQAIkOMABCNAP0VrRUgCwEkGoMbuUqB4ZK4AEK5NIv79a9/PcdRa07Nkn7oQx/qptd129eGa3Fs/bPry1/95V+W6669NhU0G5sofu+68spcK3u0JCAF9Z/+4R/LNV/5Sm7IAsTPfOYz5deuuqpZs6qMNSufo+xdfkQZNm7cUL7whS/k+7t2Nz9q8OnPfjbTGAlA0jEX6QKdzgUggIKXQJFDWCdvnttPhQ5yaijS23fuOPIhJivUKQ0xBiS8dQCRmbpPEYsKjRk7LhStEOXPbUnFa6SkQoglYO8pwMkDGJmJPtfG7bA5mZ6BhRBAFsSo4BWdVUPE5yqwiGfF2OGGmodg2FoTJjMPqmFi/ITxuWotJzA7Ir9hUPMRKX+G+AzIlP5KpgL83n9oMp07wyN8y7aIYHgj3et3ZXFF8nXwTVo3QdOmTD16SqrEZQSlzDOkAdqZ2/ysUbdv35YSZ1/n2XCpmoHysPaDj0C6wEjnqJ5VeXRnSvuhLGMMTabmkbkR76cuo3GCodlIhxHaJD0+DwDkc+FBdq5pbr8You6eAz79BJECFlRznPXmMxRJK0qX19SLoiPUztZbjManNDGU3+bBUQOIDIkqEsQGZI2QAOk0ahNnTDCNkrYlXc1pfo2A6jCFQcQ1SYXkY9ixEku95N3rAGqTMpJATiVUNj2c/4ZjqtvYWZ/DDJ33Kafro4H7+kzZ708JMGfO3Mx/OAQc69Y1v9Enjbnz5uVK95HBo+FbbQ+diG6hDMqZkr4TD+ncfDQ5LMX3IwZIZWibVIS0yENbidMW7QtQWIvJcaQAvWEwCqh1wUbvqLvFVBJATP+LA6xV2euPMItyO2VySJBILhsyRHkeIdkxCQ8hSY0gKI/GMKtNWjZlPpC909JGJI68uxRx8qv34/OO/D27dSlFpKU+xx83P+ebDm3S52WfoU0NYJspfzqi8lQ+uoqf96IzJ0DGWZmvPMHLjHWU6bj5J5SxprcPNMMKqgVCzcLfZiZW8TJEKYXBqIIRc/Uki4P0BmnbX0ozr/6RQ1nYUH0/JUhIuTyhOPKkD3HPb9vWDFGRQHOt5Otwg0uUz2Exjz++PMzVnekPyan/447Nw2WUIaldX58jZNZxtWHqkUcfzQXR6mNOx2E0U6ZMznzCuugGL3Vez9BLjUQdk6ADuMpD6Yo/lrQNQADhPBIu4vscsvDo6iA1GGJMfrUVoEqeK6T5hsH0hP4oJUMEw5MhwrK8Wlk9w2JckqTJ89B824Rhhii/iik9DUoZXLvmmUbqoQ7jM4yEIrpFz4D6+PLHy94YErUC8/GE40/I1WLMTRNwh1LTtHQzBPB5MkCkQ4Ior+UMZsPVeSRU4+N5VXpru2T947M42kzbuYdH+Tz/P8o0a2bzu7T0AEPKQQoAxR9NuhlbR+5v4H0kH1ghTGWbv1UQSOzSB5IU3x2G90cYAGDmX3Jsjvh0GyYgB9UREWZH+gmQzskGmD992vQ834z/I240oYeacjenMpGGLDNlNYza8+scFdKot9MNl6RH12pTG2ykXLrf45580VE5QEaC7YBJT4adnb05Kt0MMwrieTBv1+4Y62aVs846Mxs6qVPO57PtICVjIkLNx7saoX1IDGBqfHtfeEZZJ72BM09wsF7u5Q0FkGmHOQ6eS+ujE9d+2/a7QwWKJfP04Z//vNx4ww0pLU3308vOX7IkGmFSWjZ0nk0boyzxXB7i8aQqs8XYjoEAdvWkjFdHoDKqZ13OiZLng1CVEDa32/PLn9KmCjgSyrYMQ28FyFFxlPXSrrBUbr31tvKNb3yjU5mDWjup0de3p5zxutPLBz/4gXLKKYubCnY8W4P9GmVvUfXOa6+9Nmd201sY0kDlrA0xftYe2aaqvEpJo3CJU1Kl7fdXKL7SaSurg1lEvSR9C48MeabxDVk5pgfDAddxV+qLL5TGbIgokvyZ/dXCATYWh3hvetOb8mwTx0VoXPfaltBQAJGPjdn/9m//lltFKMttwiedzSF+fjhBOWuaowKQvj17o2euyL2gGiEdQ+iAqfZmud2MGTPLFe96RxTol5rx7jAAUocVAFFxjEN62e5dfc343w+pPB2AP6LrReyY48Z7VkTtQWioBmgTZxt9w7ClnhpUmnWDVAI0AkArX1udBhB5afzqZRZ4iD/72c/m1oxaxwqQ4ZRNGvYO/dd//VdK9a7U7pDnrBdTIPUo0ErD7xojICLVAfd6o8y7FCCYMH5cFmD3nl2piNVeHnp2XkdCmGS7wi/8wi/kd8wCjjQLo4Hl0xt4MjUWqZBzM/GPx1ODYZxnDaCVu4bhEanD12GzmHql9JBXlIVzSuO6DzjSVUZ1qKEqiVVK0IfMM6lfe8tk6mFtvraofb/92cZ2ul/v8FIJ33ioe8EzKgCxq3NC9NBFJy4IQDSbnCodM1bvPSb9A0zL9evWRvzmOZBo5OEGhKlO6LFhClMNO/IDkmopMIVrsLPPkjq9Vwo1vvT4QXxn9rKUbJ4mZXJNR8QdKmg4s7bA4B1rPOSTYO0wHkAEcYECa+RvH43yG1aqM5DS6DAak4gaTjzvkXq1/oOROOrDctEZKb9tyYhq3XU0+fneplEZYpBKOgP0+uu/UZ4L5atWqF53xRAwffq08p4rr8xhxv3ewvfS8wof7wCCk3Gu/8b15W/+5m9SyRPPxix7Wa96/1VpIu7c1axiR4Y0zAAYK8tsE733nntDojTu8F//4AfzSPBGzFuP0WuSDky7otf/37/8v/lbcbzGAOzcsiuvfFfu2bGAmfQisXCCG35W3P/ZT39arrnu2jw7XvnVDTgMLXQQ6VRhVgFSedkf1TRcnSxt9R0JAmhVaiOf3aME00EynxaN2kG6GlvGrAQHyDZ1UUPjqrF5XDqBOHpozuJGlaP24g2f9DriUcWAo55qBKDIBvElF14QovqkMv/44zMAzKzZc0KkHlfmzJ1TVj21MvfZYBam2mNz1Qeujl51Ylo18+c7jXh4Qd5f++rXsteqyrx5c8tVV11dfvFtb8sfBJgXYnzusfPK3Mj/uPh+woIFIWn2lptuvjl/zZL0MRQaat73vvcluOqUAn0FuEcCDsMUgLBe8Mj7bYCIhx8UYPXuTXdUhhgF0HAKxPZXKD0dJQiCAIheyi5nzlES68qn4ZJ8MEH6dtU5IYe/oNrzq1auyt3/d9z+o1QeiXzB8GG9iM+TJ03Od4y/dAXWxz13310ee8TBc33GjUaB7SewDpptEs0MMHPZEgSdQpnUcf5x8/M3YwxV4kdxI35Tbt5LJu5XA1DXx3uGF+/gW7Uo0tvbocq7wcCB8EXAc24ADjKfmyEtytsKpKThheWSZeqhUQEIUgni+vTTTiuzwmIx/Z2u27jv6ruTfIg9Fsj2HR3Xez+FrOR5b6hjs8qTRHanU+wQryR39d9+4Qv50x9Wk9W1n7UBgensGOPtyosHqVRa7XXjjTfkECR+f/kKCfJoK8DygYXgtCPSiwKsbG9961tz3igV4iBNm8CK7xsDHNd/7evly1/+cuapTN6hc6gHR556uV/zGw6Jp46kWd2/XJV3wbMKIPVX9zoD30ujAhAFVCnBqcFVAao9HtWrQppk41b2GSPqs6FI3Eo+6wWOLrBqS8+tJO2//du/zZVdRG57FRciWs+/4IJcxCMdip3TEi2qGWqDUxTWf2nW+okR70hD3Uk16U6bJt0GHIikNBRed+1X8gcGmqOzGp5YyWVoYW5q1ErSpHsMh8SVlrIASB22KkAyrQjAl1MOEeTVHwBHTQdRABxRCIoYsVtFaLsg4mkQvQ6S20pSpjFMwhAA9L7hwvCwatXTja8hnnEzO/JSb58+dWqCqVJz9tf+8tBDD5cNMeR5Z/OWzWGmz8kjHPTqgag2mp8Bs/qLtcAx5ly2Sy+7LHSIt5eZs8NEjeEkKpS8eOThn5frvvrVPP/DXhqNh1nqf9XVV3V+D/fQHl15MVyesFh4TgGEJNEOdegBXmR4Yf057A9ApN2b/qgBBMms2XZYUvzyDmqsXoAgKCdl6i9cqkhvYfv7XoN0BZXX+CeGgrlz5448K23rtq1lQp4+uDaVUcc9WVrHimq8pM1UPMVy2fJlWRb5m67323NO+AF26edw0iLSgOl84w03lm9985s5LJEpDsh3SJ8h1okGgPTcc5vz9MMvX3NNuenGG5MfpJn6OiriQx/+UFpe1X9U6zYU1bj1s7KTmiSaKYUKCPdrBxXk46TnOiS3eVlpVAGCZKiAlD9HNkBzf0T0Ef8AQjFri8JK7c+9VOPWygMJES8dRz/qUQg47G8lfukBgAGYDnxx8sBPwtzcsvm5HFpIvBkzZ4Ru0/zyZr/+h/j6VJjK//TFL+auvTSNoyHeecU782dGpgUIgWbpY0sTQI7qZNKSmgLeONn5I7/5m7kmlvSrNJK6dxs1LmvXrc0fUKD8k8wVIOLgDSK1SA4TgKwkafSXx6gDBGGaglUp0h8pfBWFjj1o/AXDBwg65Hkwipi2JAAz9CQTaXUcNuRhIKkiX+5xPYn0WBaNCVDuW7tySoBWDzfV3ku8sCyXm266qZP23rJo0eI8rN859A7pvemmmwMY1+WPDTqam4VHgcYT55L+zu/8Tlos/CFpIcUfPrRpqLpXgCi/yUvno9VOASBVIosnf3oHBbpK7IHSf0EAonAaSU+yLHAwKaKCRJ+eZKl+rZTrUEyqJH6uqwiekRCWBJBKTGogkQcyT2TIcdAciYKUc9nSZXlKo88kn2GA0wqIalkqmQv653/+5+Zwlyi/NS5+G+bMM19f7rzzrvL/vvSlcsMN380jpOTLYUcSmc32AwPOkL/4kreExTc+FV3AqL28TUPVXblYR0z7W354S3qplR/vPUMVCL5z3zsXteoeA9GoA6T2WGJcYZp1loeuQK/kO3QD0IkLT0yR7133K9NqZdFAFavxK0MwynBj/y6xDhiu0tK79DTKpcPdOJRs7q4r0cURnzSoh88ZCpXLBm0mKr8J8Btu5OW47u/d/L00edU1T+3ZuyfE/d60aPz23cc+9rEMylXPIcuTBaK87Xr1fu+PgECQD3CoQ+W78nqG/4YbACQpLwsFWn3EqUNQfzRqrvY21UIqDJ+Hn+3k/1Bx99skjp5qfoW5SpogaQi9zBsJeV/jMmG5nkkOepF0qkkJoCyOmrZ3ONU05OtDKsyZPScbG6PTh3PPvXkVjwQR13S/uRj31K+exboolN3Lf/EXyweuvrqcHOlpNPl069GxiLrfR0AkHY+p893biimqABGHvuFceI4498R70QGi0TG+MtWOOJuH9Vw9pxbBVVz3uJrfEeaeeQjnfFnk7CimNvNGOgOMUd4nofRsQKE7mDchJZQxRa7IHa4oU83T/9Ko6YjvSmpIkwSYOHFSI50iTi4pCL3FOR/8Gr/y3veViy6+KIc970kn0+2kX6n3+1BEMrBagN7Q0qu/yEcZSTnORNP6VXrQDwejFwQgqDJaoSiHpIhrRbBKiFPR7PtJixclSM456+ysdPocOsyjzDkof7jMlK+0q1bvuzzM31Do/NoT5U4vc0xUuuMjDqq9T3yHzCin0MysRpB+6B5MZp5izyyKNiz5mQ8K6DnnnpvrUWt5E1ydd48EIMpI+cdPk6PSrUZBpcpbiqlJuYsvurh5ENm4Pxi9YABpk0bSey2r43vIBTZRUQocB1MllbRynfl3+qmnNesx435dWJxjdrI469r5NHKSNwDw6Bq/HwjAWDNrRZgdd8qLTXWVmQb0PX8FMz4bTqwDMaXvhwsXRO9cEkrtqTGMGCKZ0OMnNueyIXUQNByqzra6WGo4AJG/95WZv6OCG/jb4ECkGwlCKWa58G6jzMe/QfJ7UQCiYpRVK5zMkSASghaf1keHHJ6vEXj73hH6yOIwHzXC7riv2ClVjhQgUfs0LCM9jKKj2AbAHOcCB2DWT57hHg1Q13dgmsawxpReYr7FTK0ZWz8mlNsbIl4XFFnAzuf8P/jQAhzqrqaL70PVBQ/pTzfccEPXpO0PHAjASTJLGKw7Ze1UcFQaCCQvCkCq6LZyWwUNNSqskE7SqZTL9qLcgGDsvOyyy8spAZKxTMIAycRxR776SfVreTBYGQxf8SD+1bI0EkO8PAkoHzdOp/qOz+lljfI2K8biXovp6lHPX0UN0w9lfRsWPh389nwyrFBIrR+h8+Bff+BApJgfjmaqy1LcduIDgQMdDk+PmDBVMHxYqe24R4U2dLRZpsKCcZXov/XWH5bHVzyRjcRH4h1BY9VwOJT5pMu9oV5+VQAAqn2rFFl6iavxXl2SlIGjK0OUS20irZQeLTpYyoMPemWGd9v1y2snbeC45ZZbuvtmenWO2uD4BhxM2pytDqplqjQYONAL4igbiFSKAwsDiHErzLN1InSLnV8b5ZblwbNpQk7FDQUZzzuRhnhDVbiXavxD3iNBgnrTa3/v737eC32ikSSd5614h3wO8i1i518vAUKzZqWRDBX8T618Ki0vOgfHG+C0y1Q/u89aAg4OsTr5J50ar8YdjF4UCdImM6V8HuYEZtaFuR1m9JJKM4+/+93vlp898ECabRREony4FX5ZETZElaJmKQ0ef+Lx1NuAQ93Vl1TrlZw6E3BwEdA9uAzE7Y33sgCIQpMihpoloYwS16rR4c0hfQujAILmbkHPXXffVTZ01qC2x/tXAmk8Q4f5H3tqDSd+T5fPpja0q3i9DW3os0rOTK3V8P2Bo9JQIHlRlNQ21exJBxNnN9x4Y+54yyWCAZPqK8jP8VfFbR2e/L6tXnLiwoXZm+gx4lmTMVTlB6KRsERe/lXq71136CEZdwDK5ZDBA0BXD2SYsZ6X95kyij8kibq3hxZUeQJUwMGc9esXvleA1Pgj4cuLDpA2EY1MtxsDJIaSvj27c0pehVSpt2KVKXwPF190UTnrzLPS62oDEtHo2eHQSFjSX5l6aTgASYspACE95TaEWE9q2p6CzscxEMkTcLjR7Ve2ANksbXqFI73eMvWWeTB6SQEEVUnCifazBx/I9RuAU/WMNrHvLRp23895vDEkyQUXXpiLdSZEL2xbJiOhkbCkt0z9vTscgKBojKwTH5FZZj4irgB5AM1A5XKfI8xkpPkrvg7xa9l63+st82D0kgKIohCrPKQcVLfdfnu5/yf3p56R4lelO/FUUsHpLHqPLxxPJtVMZb+B0juj+a3ZkdJIWNKbfn/vkoIAMhhgvbdty5b0CdkmSXqkEh714wl1HUgiVnC87W1v6y50blNvmV62AKlUi+QY6ltuvTVXYJlMy22M8cdJhukU1l4CJKL1nLPOCaX3/PS1zJw1veurkLSdc2PHNr3yaNNBN19Tj172NutU/OpFI+GUd2dfX3ls6WPloZ89kMOJzqGRa5kHIpLVsEIHY86SnLXxBwPByx4gbdq8dUu54847y1133lXWrFkdTGl2gpEynFEY3CaVV6W9e/aVObPmlHPPO7ec+fozAyinlomTJgTj7Xu1R6Rxwok/EoYNRf0BpLLYnAvfjXJv27Ejh5QVq1bmJBtgbN64KaUhYPRnvrbJM3ywip85y9XvvZrfqwIgikZS2DPLvLNtwfpSP8uFgXrQQBTyoezd3fwYsslA2wlOXnxyOf2M03O3m59Qx9Aahss0zBouw2pjVRazVNTF2WO8odapLl22NFe2T5o0uewPcBguMm6AaLAyOYKr7knm1RXEH05zvmIAYi4G6enWgxDDFLdHH3m0bNq0sWvCNYzJqF0yFIWM6I7jqsl5xAN78smLywkLTshljdZqMJcrgwdjXs2ifa2x673u98hPI/tZ05zo27otvcU8oUDus2UFuc4l8nTiM+kC+HQOymqtXyVpKqdpe0sIgKN2lJFIw+HEqfTSliCd0KZ169bmrz/ee+89ZfVq55E1cxXWYhxSE18O+d7RN8Y0oLPMb+48+3PnpXjGdOM5N76rxqnSRa/OBm/xtSad97nFQ1JpKCcHcIHbUG67BSBYNmAl/cYNG7PxxQWlem5KbbB6OnSTZiNBqp7kas6KMkpyWGvyPPJ+JDUUAF7RANHwDsi3Wtw0N63fHA3ONCDpcvnQl1sAOVhl1+YzxdZWCXMWJAuguCeQPJF4WiLtJA1/lE5LAEgqZ5mSCpb8WYhkbapfALXoGXgMMRq6NnpvQ1WAIAARSAgSzmQbiWEBNgAP1myvWoColuLm/ZAcW7dsLY88+ki6oZcvfzwn8rqkWu2XWwDBICHTOtAs7K33KvNIDo1TrzLPfDvX+j1QkhKEcpkgiEZNlkYACEMFQEinP19Om9oAkZbhhBXGI2oPi+GRNKvSZSAa7Bka6nmbXn4SJO7Ue8HusofSt/7Z8kjoJUuXLitPP7069RMNlEsCKzMCIFnVChAtnI/aEsVrhyqWKNOIf3knrjlIefdglIjfXDswzHdyfkhane+9BAQZLwCUi6V270nLhPSyZhQwSAz7jKdOa35/FwFIlUKHQ/2VZSB6WQHkIDQOUlY1bpu7WfvsswGS5REeK089uSL1AENAs7+mYe6YYw42fsOn56fZS5WhVXq45vdOOm0WtpcNJghrnM47bWpLAqb3+AAAUBhOXOvWD0dHNBU9OvSqAkiXohp79zjvdHf+kNCqlU+X5SFRDEF+ONApQc1vpnTiJzU5DMWw0QIIhVU8SxVPXrS4nBnSgvJJGbVssflduyZ9YSQNOxiNJJ1XBEBUwSp0NSGGXQ+E+HYe6dpQYK0tfeTnj5VnYyjatGlDI1G6FsSRAySY2DxokXeGAohN4WcYRhxgE6CYPXNWo6vE8FHzJGWqpDmSYaVNNe3h0EsaICOhrET8V+uebRbKo+phsF9d4JzKbZUBmvUbmlOH65K9Or4nBXi6ja+h6TIdQLmfIf8wMELkk8+6ebNuolF93rc/JYXGdZiu479PWLggj8Qyb+RnSaZNnhLvyudgw/l08FuT5kga9mjRKwYgQ9G+vY1Jav7G5q0NG9fnwiPSxeype+Z7mKh9YXkAhDUlzg7xTm0c7MrJN38aLcCRsqLTwFzoDstlms4Ic9RZZMxnfpY58+bmGWl+tYFjDFF4U0JEfv4q9QLkxaJXDUB299kwZfOVoy93l0mTmn0qtgsAiCtwOPJhy7atjbMrzGaruZw9FtBoJEcXIATNmDxNkb7A/GSBTAylku+Er8LRWxYycfW7l+8EEFhXO0NXqicwt4FR6TWAvIBkLY5aatbsp8n9ptptyVDJgiP+i77dzclHnF5J0uh4bvV8b/ptFT/jBQBAAhhob0gFehAQNScYNaCSn6vtHekXGQAGWcTm44tKrxoJgrKRVDdbqmkslI3WYkPbpT4UpQ7S+dwfVedXW0mtym4vOI6OCnp06aVYplEjQEiRbrzvgKILmteoHyrl/wO7+FIrZ+K2WQAAAABJRU5ErkJggg==;" vertex="1" parent="1">
          <mxGeometry x="80.66" y="95" width="78.68" height="70" as="geometry" />
        </mxCell>
        <mxCell id="ZVRVcHzqKUU942DQ3SIE-2" value="users" style="text;html=1;align=center;verticalAlign=middle;whiteSpace=wrap;rounded=0;" vertex="1" parent="1">
          <mxGeometry x="90" y="435" width="60" height="30" as="geometry" />
        </mxCell>
        <mxCell id="ZVRVcHzqKUU942DQ3SIE-3" value="" style="shape=image;verticalLabelPosition=bottom;labelBackgroundColor=default;verticalAlign=top;aspect=fixed;imageAspect=0;image=data:image/png,iVBORw0KGgoAAAANSUhEUgAAAIgAAAB5CAYAAADidGnuAAAAAXNSR0IArs4c6QAAAARnQU1BAACxjwv8YQUAAAAJcEhZcwAAFiUAABYlAUlSJPAAAABhaVRYdFNuaXBNZXRhZGF0YQAAAAAAeyJjbGlwUG9pbnRzIjpbeyJ4IjowLCJ5IjowfSx7IngiOjEzNiwieSI6MH0seyJ4IjoxMzYsInkiOjEyMn0seyJ4IjowLCJ5IjoxMjJ9XX3xSgAfAAA81klEQVR4Xu3defSeVXUv8BMyzyMEEkgYlTGAWkEEaqsiWm0Fq9au2lrnrnpv1+oft/3zrnXvXa1t/7pt12rtpLeTCCpqrZVBRUCZURkEkgAhISEhA5nzy3j3Zz/vefPk5Tcm+THvX06e932e85xhn+/ZZ+99hnfMgaDyGr1GA9Axnetr9Br1S69JkKNM+zvX/mhMJ7yc6FUpQbJPHOVuIblXYk97VUoQVT6wP6od3XnMmDFx8aHzsEP79+/vBuSdffv2NeAK8t4xx0T/iqtQvx/je1BlqvjuN/kcCqKXQ+981QKke41/+/bvK3v27Dkk9PX1lV27dpXdu3fnd9edO3fmfTRx4sQMY8ePK+PGjy+TJk3KMDnu+T5h/IR4Nr6MjzB2bABn7NguIEBFCV4DyEuUSIXa2ECwcePG8uyzz5bnnnsuw5YtW7pA2bt3b0oOoX5HTcOPLWNIjQCA7+PGjSslPs+YMaPMmTOnzJo1qxx33Pwyffq0Mm3a9DJt8uQyYUIAKOKlxMmUXtr0igFIrQbG12FB41Wx7ropGn/z5s1lawBg1apVZcOGDQmGvLd1a4IFaAChzRZp9ndF+w7sPyTunpBGJEtKkwDEzJkzy5QpU8rUqdPK/GOPLQsXLCjz5h2bIJoW9wHrEIqk9keaqJ0P6v3+QtArDiDI547mUHbt3FWeCwCsWb26PPHkE2XFiqfKtm3byvYAhGGDZKg0UAMM1jChzSQAK+0fpA2nBGCmB1BmzZ5djp8/vyw6aVE5ceHCMju+T5gwIYclSO6vSV4ssLyiAFKrQoI8F5Lh2WfXleWPP16WL1te1qxZE8PKjrIzpIQWHU8n6CiP7Xf7o6MFkMik7Nu7L0ahY1LCTJk8pcyNoejUU0/NsHjx4pQ6wNJbptcAMgQp5lBMIQ3oEE88/kR5+JGfl5WrVpZNmzaFyD5Qtm/bHoAY0+gNY0Jv6LxTq+86ECtGAhCfDwwQfX+Ub8K4Zkgx/O3t251gNtwIAHLG6WeUU049JfWX9vDzGkCGoFrMyhh6QmUgYGx6blNZumxZeejBh8pTK2MY2bqt7N6zO98Din3REJWljcGZHxqKpA/Ec40l1HcE36tiSrmsUgeJ12Vf3Mv7EegQ3kNp9nbiR+Tuu3nN95vPCbMwveksgPL617++nHzyyaHkHlcmhmLL0lKeNK1fQHpZDjG1yBhLj1i6dGm55557yqNLHytbQrdAx4SUaBpp6OqlT6STZk27DRakcar14V67DO3vDSzk2oABQFyFwcj7+2P4cZUPiXLKyaeUCy+8sJzxujPK1ClTm7w69UmfywsAlpcNQPbv239IL1LslStXlnvvvbc88MADZUOYqn0hMfBPw46J4WRcxB2qYVDG6HBBukI2buQjP0qka9e0bTU4K4jJXP0le0N6VGfZcPI+hAC1Q7UcdJJzzjmnXHbZZeWUU05pTOkXkF5WEkQDYBBz9Gc/+1m55ZZbyuqwTnzni4gWLeNjjN+5a2dKhQkTxg/ZSJ6PjzSnhXVxbJihwEDET58+vWuiAoXQbpzKNlflqn6V1c+sKWvXrk3w8q1s3779kLiD0Zh4DJTKBHDiU2Z9nzt3boLkvPPOS/1koHp5Z6g6j4ResgBRrEPc4ZgWSt2qp1eVu+66q/zkJz9Jc7VNbeWQ3jAuwMInsXff3my8VBJ5OqOhjevHHjuvnBy9cnGYm/NjrNcIGgQYkDxHyp49kdfeyEf+QMO8XvHUU+WJJ55ISwqYI9FG2sSQMn58o9eQerw2A+W5Z8/eAO2McvbZZ5dLLrkkrJ6TQ0KGDhaoGqqcnh8uvaQliKJRQDEPwx988MGUGg8//HA2fK+4rQDx3v4AV47X8Q9A+Bh4NInp0049rZx+xull3rx5aVJqsHFjx3WHj5rGSMm7VQfJYS6uUtkX+e+J8q9fvz4srMfLY6EzrX56dZrhQEL6TVAXxR0gX/HS+gowGXZ+5T2/Ut74pjekZ5YETPHToV5AvGIBAhQYTVTTM+688878DDR6ul7YpgoQVB1gPJizZs0sr3vd6wIUZ5QFJywoM2L4MHSoeFvNO1JWeL8CREO20673lZnpbRha8dSKsvSxpeXp1U+n3tK3M6RLPyRdzlWWWC3jvLnzyhve+IZy6aWXhuSbE/kdrPyrAyBRKmYql/jdd9+dQwrGVl0gmdYJGMCvsD+UWD1t7LixqfUfN/+4cuaZZ5XTTzutHH/CCWXatGkZZ3xIC6TR8DXe7jL+SMiQGHZIlid1ic59VFNnAjOpSQOOu3UB+KWPPZaW2IZn16f7H7gTYMc0Q90BZvM+KTRDUKYdBSf9zj333PKWiy8uJy06MTtNf/SKAUhtbGSs5vC64847Unrs2LHjkCHAlYRpGNkE34Fn4cKF5bzzl5TTAhgLFiwoUydPSTDUIUcK1dI42pQAkUMn+fzcocy/RSAUcCk7Q5EFlKeeXJFW2TPPPFN2bN8ZdQwZ1FPMbK74V+s7YeKErCe95Jxzzo7hZ9LzwP6KAQgypBDDj0Wvuu2228ry5csbxa6HVFpPcxUwjJJ55plnZli0eFFaImNDWqhiVjL45LNGGy0PQq+rfUCAtLkeZTJ87Nq+o6xes7o8+uij5aGHHi5rn1kXusuerFu7kbM+EZj+rvSxkxadVC6//PIAyVk5fLbpFQMQRenb1VeWLV9Wvv/975dly5al9cH/oJLAU8l30oKlwBzViy644IJy6imn5lByTAwzxuUxHTGd1OLTMaNU6+ECxHCkvg37XeP/ADwpabrApOJPfvLTHHrMNKMKlPqeUBvfM+b5RRddVM4//7zsHJVeMQDR2BhCcjzyyCMpSVRO5VEtqu/A4gocgPHGN76xnBB6RlolQXXKvI7jlbGVWYfPssHpIIQHpwp2+kWWRoOHRKj6FavnmWfWlodDkjzw4APlqTCV6xAKZ3QQVOtjvskz61Auv/yyctGbfyElSd/u3WHBHbqkYCSAedEBUivtSrSSHI+HKVh1jv6ogsZcxZvf/OZy9llnlxkzZ3SB1KYuIOLaBsho0XABEnDIhm6zfwy/T4d88gwfSJMf//jH2WlIVCY7r3KbDnSrNaaceOKC8ra3va1csGRJrmTD33atX1YAqdkDxc0335w+DmDRw3orUiWHIeSMMFl/6Zd+KZhxYg5B0ukPIJVGGxiVhgsQlCCpFB+jMbqfEV/O7o4UXbduXfnxj35cfvrTn+bEZHumFx0EiNf3l5MXn5wgWXLeeUckQUZLVxs2KSyfwI9+9KO0Viik7lXpoeEriOqwwqfx3ve+Ny0UQ4r4g4HjZUH9tBkeTJ48sUwKJXReKOC//Mu/nI1OGa/U1P1QSWtoXv748nLrbbeWJ59a0R3ODodedAliruKrX/1qAkRFqg5RUe4eRqk0O/8tb3lLeec735lSpIKoxq3ke61W77OXGrXZ39sUzy/7mDR/NfwNN93Y0dGqfrb3YEeK676Qwvh15llnZWc6acHCsjd4KcVeE38wHr1o3U5lKKVc55xgJEcqYB3ynFRgwpm4mjp1atr6V155ZU6oteO26aUOiOFSux4sHg5AYcrUyeWKd15RPvCBD4R0mZK82b//IDgQAIwN/uDpz3/+83LrD3+Y4Bgb9007jIReFICojIrRNyhfFDEad2+ji6eXAMcb3vCGtPOZb/X9Xmoz1eeXA1hqOXtDm5pV881alPSyhuB84xvflJJ0ZijnJvJ6qYKkL0Dy4EMPpcNxd0iVXPc6AnrBAaJxDRvmVG6//fa8UrgMLZ4JleqQc/755+ecA8mBgCY18x5GHi715ltpoPupRNYwGA31fIRkLeu4cc2wOmHCuHLRRW9ORd3iItSU9SBPEiQxDG/ZvDmtwydXPJkzzZVq/fqtY4decICwUDiCSA5eUhUABI2uoL67umcM5d+gnM2fP78rYQCqKqVHCpLKIPn1MkpvJd49awdzKTXkIp/Wa9LwXsY179KT5mBUpUdvQNLpqBtJ7k6ZMqlccMGScullby0Tg1e8sQ1fDjrTvO/+008/HVbQj8qGDesPphllH6p8L7iSyitosQ9Es14wspKCa3wgEiyOIUb5O1S8zbD+aLBnQ1EthzQqYw19wGySsEvBrZqLq0lCQJ4evXjq1Cll0uTJWfa2hKssPpLy9ZLSSm3v/n1ldTT+93/wg/IgK7CvrwFui+SvTJNjGKe/vD2kDt2u0mDlesEBUv0d1nYodC8BgsbiFaWQAgnQuFdBMhAdaQMABH8D4G7ZvCWn4fU8kq5LLYBUspzgpJNOSik3P8ptKOSf4eVt+yuONkCQFM16P/nkilT4H3jgZ8nXumkM7d69J2e4gXZBlO/Xr/5ATk1UK3AwekEAIgsNbAUYN7rhRc90r820Gs9CHgopq4WC6r4g7uECpL5fPyPfMdNCnieffDLnfngrrf6iG5Ec4lrJZjz3mQezMRPH5JVJGQ9SISRJpoQU4aQ6+5yzy+K4nnraqWXRokW5TLAOn0PVYzjU22iUdsrod77znbJy5VMJkLomd08AxDWlRuSPr+94xzuyTKgO1/3RCwIQjb43NO1HH3u03HDDDWXFihU5TveSouhxKsAhBCiDFb6XBmN6bZj6WaOveWZNeSiYyszmpDPfwfQGGmWuAA425zvKbDy3GRtAzKM0EgLQopeGeeGd3MwdjTElwL34lJNzrmjJkiW5doOTq91z22UarPyDkXdJlG0xfN/+4x+VH8TwvXnLllxpxk9iyLHcUvqCtbeksxXzpMqLDhCMtUH61ltvLXfccUc6x/ojjLPD7D3veU+KbIgfCdMGi6vRMcNchvUWtklY23rffffld8+xQtDodTjzfffOXeX4E44vM6aHtRD3qrK8PSTiumfX5Qx0znnoscc0pqgOQbqMnzghpSCvL4Ub+DWM4QfVMstnJHXtJY0o33Xrny3f/va3ywOh57FYKKL8H+308RVY3/Wud+VQPli+ow4QyWO+Wdr/+I//SOkxEPGOQjZvKfNWI42keINVlAiO/lPuufeeFMPAahip5fNuBRGgYnZNb1YooB/60IfT3HaHhEDPhr5y8/duLnffdXfZGmBpoofEiXKzykQ+EDfVowbTBEzTK6644hA9QDlqfrXOg9WnlxIgISkMgffde1/W0ZpXs8ITo7zqnvEibVLOhiwGAPdBpXYZKo39n0Gdz6NCMqR7EOEUU949jGpTZUii+op3NZIj/ur9SkMxrPd5DhEYE/9sj/jmt75Z/vVf/zX9L8pUhxGEYXq2vOtOf0Q8vztA+4lPfKK87owzyuKwqCigwqnRwFavmYXeuGFD00pB0jCsHD//+JQuO7fvKOMMP1EfEoeDkL4jHn1FuQGy6ihZb2m1qjNU3RGuGv5mBqBJt7Vr18U9HIi/eF/Ae53AUOpKsumY3XyD2nmNOkAQS4BZy0LAhHYBaqF5SPUsO967FNF64w5Gvc/ze/wDzH/4h38o//7v/54SjKQQSBUilkLMda032c9CF8E8z88666zyud//XK6Ct1uvShjX8SHlbL42vhuyWEFYbBf/L7/97eXDH/5wHvdgRpZS3tfXTERqCPkAih7PjDcMedauw0Cf+yNP8/34I32Bb2XUw9EWbRJH+avU1DFYXz4rV6bQymvUAULfMEVNGfS5itqsTAQ9B7OZs3QPNa3P2gVFvd97qfc5JlgJ/9d//dc5GUgPwjx5cu0byn7rt36rfPCDH8x1JdaD/ud//mfulhMPIz/+8Y+XK97xzjwtyKxp5tAqG/NxwYITUkIZRidOMne0JyfL3n/VVeXSyy7Nuslv/Yb1aTEhdVae+++/P9OiOFrsg3zvrUvv98FIXKa2Dgns9V5NwxUYSBH1JA2VjzStbVNpVACSor2TCQXwhz/8YTKGGagAVZQhvZSYviqYSXFrP+uldsH7o/ZzyqjV8MChdwOLXqWXMzvf//7357Dx1kvemqYpM/dLX/pSNrJ0gMj8zyd+9+NlTlhThppMPZ6186GUslboHT++48fRCWI4CWA5ZoJkWbLk/HLiopPyekboH4Yuuo/Ogk+uJBxQUsyBRPq9fBiq7m2Sh/iGDvwnvXpJO+CJeh5//PFpMXrnBQFIiq/469vdlwzXQBrskDG2Q3qS8VoPrs/bpLA1DEae09jJeCasySngYMLKowKEufmpT30qAannEPHbt24rP/je98v3v/e9PH1I2Z019od/+IflwgCJPUnu+dfJrPksKG6UefbsOdlbl4U+Yvvnluc2l83RMOede145IRqApMld+697fXYUjUaCZLnjfc44nUicWTNnpclclxWioerfptrIhm1DDOckHiCgrDz2GV8MM3jBevPM+5UGNoCPgFQuYNBdY+qqwLVw7cpSkmxObnscK42EKdI298F6uO/++1Ln4NIHOr2EdLr44ovLH/2PP0rzru5vlS8m6sX2pNhhx39AYb0oQDtUGdLHEGHW7FnlI7/xG5HPrCyDdEkT6VJUrUC3e/+0008rv/3bv11+93d/NzuF9JWRZCNpr7nmmpxU611SOFKqDe0YCXqW9OWVfOoEz3VcAAJOz/1lR+vQqAAE8mWmh8hcIZBCKxjKwkQwvFg+iCp4ahgJeVfDcMZdd9112TA1DeBgVv7+7/9+SIQLswej7ju2GTz8UDaihpkWPe+qq6/O6/7oYUNR9rjg6euiMXgoqyQ0bNBruOx5WnODeTB/5vQZ5epI/9Of/nSCVhlINx2JMs8dQLGv/Dgc8q6GJpHwV5lqR63ks7wpzPQVHQnp3JVGBSAKxr2rkrVQWeBOQIBijymEtxvscKgyw+bob33rW+nKV1kNZxxm73/0ox/N/TJNY1pxFcyI7Ji0hqFn1jyTjWh4ODsslwtj2MtGFR9Pu+Egg7O8vkeHUHL1+bVf+7UU2aTZrl07y+MxdDwWALQuIztHJx08sUXh937v91KSyGdy8GHjho3lO//5nXLbrbfmMJQTb4fBlspz6Z5++unpwTWc+J786gRDjzaiZNOH6rCWdQsaFYDIpG6bJNqSyR1ScEEDYiQzEimQ+yOhWgnXLVu3pKXygx/8oLuPhIb+9o65qRcZPgDJaxRJ7z0dZTQMKqdGjEKUd779Hc26z05jupchKN5u/jKdgy2Xj+M/IORQmzSxAf26tevK/ffel2sybOIyRwJ4iNSgCH/uc5/LKwlmfmfVyqfKt//j2+Wn9/8kO9pICR/xPCVWEOUXr+VXh5ZKJIt7AOJUpt52GB2ARAZQCSCslORehANxwVIMnjh5Ull44sI0r9qMHgnJR+X0DD4FJiprRJ6GNaAgPeg5eqPV4MLmzc+lo2x9iNV77r6nrIgxH9M0nPF60cmL03fB2bR5y9ZUNpvQKJ7dtDZtis+bytbNW/LZc5YFROe4IIax6TOmK2HZsWtH1zHWjRtgEfRYwHSkAx/QrBgKnQSASd4x6706pGLDtZFTbWg+FlMYVVLX+/iuoxpmDDHqVIeZSqPiatdgeiWv5TNrn8nFLLVQ3MGytEr7fb/6q+VNF77hEESPlORFwfr7v//7XPyM4UjPwHjeWaJfvC5F/pxe7pmzUFZbHMePn1DmzJ5d3nLJJanEYlYOVZ2yI8yKGjSfpRMgsBzQkMVTOmnSxPRg3nnHHVku8yDTQue44MILyqLQByjA3s9Z4CBlkIflBXd0fDXSxS/m+O987GPpH5oxa2beazdX5Wkv9Tap7wB67bXX5kx1e0ivaeqo7373u9M3hF9V0owKQOzmuummG8uNN92U4h5AKpNrj7fa+jdC63dwS7uirWMuhiTvAcT3wjz9q7/6q5RY7lUwYIRKqiIL4iA1PUfN+SoqC/Ia79MFXPVms6G1fJ1YGS9DfFMvpwUAvljmadKyieekGAB5f1yA6ECnmt7Dh/gvdAALpKzXCCsu3kmJqxwRAO+St15aPht6yjnnnpMSruYtzVqu4RDfyBe/+MXUz9rbMpF08Mlk4q9Gp83OEWXj2xmVIcbpw6tCQVWonNhS4Q75pKLG+BmhQEbp8l4NIyGMqmtMqgu9Mk+FNUIdbvbEtQaeTqQBcuY2pI0GdPqQ7ya4NFpKhbBqAEWwIlwewFalizjNdW+KaksADB+7YojNekcbgpL3xDN0ZXni6rvy0D32xD3v1jUmNk2ZEeaBtgho545IL6gCRBgu4YHFyry1JEWbalrKwoFHNch7nkUYFYBoNMcZaCDKIMPWpmZBppOnTC7Hzg9Nv6MxHy5hNDOaKx9Vh5hK1vFdaH8WduY9SmlfSjtE6aSk7oi4W7dvixDXHT4fDOq1bVt87lyb7xEivqv7G0IP2dG3K4/kFmq9DSuWAzJ9haZcO+LdSKeGSBO4NCgFE9CfCR3k7tCTLCtMyyuoiv/hkgZnOKQTrrNIqE2eS5MfiH4FLNnBosyjMsQ8tnxZuq3XB0j0TqK1inqNanKIJ3PJeUtyTG7TQLvuqzhN0RzkO0b/3d/9Xeblvt5vOp2Ti2JWpYgKx4cGnR1ybvu999zT3RTN52GtxkknnpgnA4jab0NgV/5rrsqhDvLQ88dNaNaSKFudg6qkXDy5rAl5qmsOSfGeoPwCi+Keu+7K46oig3JiWCF8Jhx8k6dNTTDzzA6XAEt8UvZrX/ta6lx0NGVX7goBLgEWn7kjFuDukKKjApBbb7+9XHPNl7MnGE40rcLISC/ViL/10Y/meeUY0KbBAKKoyVh6QfQITqi/+Iu/yEVIKmTY+uQnP1k+8pGPJEAOoWBqJTrC0kcfK3/6+c+X226/LX0flOb/9X/+d7n08su7oODLeB5AkKRabGuzkASaysUdFgHF+SvXXZd6mPKZ/9HQLCXvqEcyp0PuHYjhjz/nH//xn8r1118fUmdXeqZ/4zc/Uj7z2c+W2XObuRpUr0NRBYhh6pqvXJN6CP3M+/ipI8hbGe3CM7udjrvddKijTDLjk6i9L5lQKQphGKAkKUyLr4OSwkN6FbEq6571o+YwpKfCgFfR7/lAZKUVccrcRfaakGrSSZZ7N0L1dfSG+C9CxOs8b5OV4/QVE3jnn39BMjqlS/BDnnUirZtWm9yLy9xQ3JnoejTdAR+dtvTEE49nOsMFRpc60XUqFkqdl5G/tGp6ylmHmEpHDSC1spi6KUw1yOQYah+uhojQ2XPmNKuchlnPrIS/SMv7iJLnFCIr0D3HRB5Dq7QwYDAmepf7e/36DTkscF5xJnHJU0o11ND0/DhZjhTddsJNKAsWLuxKMsBQ1toA+JR5IUnFd3X0/qTJk8rZYZ6bt+Fw5P53RsgDDzzY7SQjIbzRPoYVm6zqECeg5G8E4KOomuzsDORHX4KoDK+hzJhJqDaWQjLr9AxiMx7k/UqDmbjAIZ0KRNPY9AeSQ0U1riMuZ8+a3RWbAxGLQ2/eGpIO84Bu/vHzO40ZeXTK1R/EuvfEiVCZm2WL24avbBDXuDct0tQwQMnxRjdhWqeXM18QOtIESCLu/r37y8IYhvhwJoY0JIXXrF5TVjz5ZNTt8DyrLCVXVkyVsL7X5/Uz6b9nX1hj8aeNjj5AiKlNz0XCkWl811Nkjg+esWAAJLjYPGsFjBqMMLk2PMdPexrbuM5bqDHcy6Etmd8JGNAJNjJvCb2ABSN+rgwLE9CmJ42bzIqQn3v+4sHBtEjH+jlCZXIl4vy4eceW8cHoSSFRNNLm4I29tN18WnU+kF+DF5Gu2WGr62YE8McEmDyzCn/blmYaIcvSrt9QFNHld3B4b9oFSVtdDkTYHhbgnmgn6ePNUQeIBmTySdxntn3WIQDAttd4CqhwVRoMlzBVkC4vZU4uRTrysp6BGUeCDSY9kOdMYaSXe5/0aIavTm+uZaufhxlqo7tKj2RLEMdtPg9bE0i4nITrj6QTRJJYxDN37rzkH55t3LipO8s7UlIeAUDaelFNKZ/HlWGhIyrH2Lhx1ABSCy1jGSSjKsWz/Isri8Ex2M3wM7KKakjpSt9YWSfl3DcZdWz01qGGF6SMOzoOIb0V6Eg1kiRPaMY4ZT6M0CaNSt/ihIMQ5Sa5lHEoXYJeNE+djp2X/HNKEDf8ylWrRsq2pAoQQzKA4BE+tBPznP4BJPXu0ZMgnRQTfUGVWemqjj//661gMy5Eps/uNXGawguDUX1O4cMspJIAwgHEupHD89LxtRVItd19famgGmcx39jMmkkHVYAmEhlZiHea92o+IZkivamRblXWeWiT+ZFvbo3Md5u4ldpAmx3DjAOApQPEdJjc7TdChLSBWwEi79rhKvnMAsMb5L2jJ0H8RYJd0SXxqFQFRQ3xIK5NoTx/XmMOQjUuLyTpUcGY5mD0VswjWYjhVatW5kH6wtOrni5Pr1xVVq1cmYFXkteTpKjl5cGkCFoXsjYU4LV+tWEkYY1312QaTVhdnl0XFkGUMfkQgZNQPqw82ySUVRz7a+qe4IPhmdSR1K3yqbrpj4TwCTCk2QDkUAhot9xw1WnLo+Yok5hM6Qaf//znsxEVRvIaQNCgdAUTQpYZVgVzuFQBYkr/z/7sz3JxkB7BdLOuxFyDfPVSnSyrHu8og3e93TB6d3FyIIcULyhl0tYDw0HG6+RzONRmpzrzJvNgkh4KpYx+KMgJybpMzYvJS0+r72s8+gvF9P777u/+uuanPv3p8gd/8AfJ6+FSTVNeAGqW3XJMkiRu5sRcMqwT5xOf/GQ595xzo0x7jw5AJAEgGlyv+PM///NUVAGkSpOjBRBp8X/86Z/+aU7SqWQVlcpgfM+4Uatu1TrXbkXjezI43iHhavky/Xh8+PBgqXZzyfToWq7yI2XrRuoMhqVOD66zyt0yezd7Om9nYxbTm3iK//iP/3hEAGE9qZR3AORf/uVfEiA6l6GurdiLAyBLAiDBzaM4xHQq1q18hEMqfJQICASitqatcr6381RR0iFD6BjA6LOrwCGV09kRANl+FmATx72RBo0ptPNs562kOUXQ4U2+F9/re73B8wQ8/0WAxPv5XWOqcysMxeF6qDC+pB8m+FWDt5NnGc//TdnQMccEL/LTERLRWEtZGTAapEKRelYA41XMcJJDSpDeIeSKr9BHNm7amJNyfjeXzkKqmSuh5KakUdZIC7j8vi7FFwNzhvYIA4WSGW5/jMVIzXKBxsLLMkZQNg47IX/0uZW3odJMOPAqYwU98DTNOXxKAGijIDwEtEqedT7k5/wZ+U77+YWJozLEEGHElEbD4D/5kz/JBlGZBqVNwY50iJEGJtFBDGOWGNI/pGnVldlYYEkpw5Tcc3DHvlDFPwB9/WtfK/fce29aMEzk977vfVkmjKplHgn1dgq9XkPfduttORT6zNdijexbLnlLfJ6WACDJKqVk6aSDd+i7N95Qvh31tPRAHT7z6c+U//YH/z33+g5EUmiXBk/SKxqNTx+y6t8cVpVsIlf+KOMnPv6JnNfKeaN4cNQAIkOMABCNAP0VrRUgCwEkGoMbuUqB4ZK4AEK5NIv79a9/PcdRa07Nkn7oQx/qptd129eGa3Fs/bPry1/95V+W6669NhU0G5sofu+68spcK3u0JCAF9Z/+4R/LNV/5Sm7IAsTPfOYz5deuuqpZs6qMNSufo+xdfkQZNm7cUL7whS/k+7t2Nz9q8OnPfjbTGAlA0jEX6QKdzgUggIKXQJFDWCdvnttPhQ5yaijS23fuOPIhJivUKQ0xBiS8dQCRmbpPEYsKjRk7LhStEOXPbUnFa6SkQoglYO8pwMkDGJmJPtfG7bA5mZ6BhRBAFsSo4BWdVUPE5yqwiGfF2OGGmodg2FoTJjMPqmFi/ITxuWotJzA7Ir9hUPMRKX+G+AzIlP5KpgL83n9oMp07wyN8y7aIYHgj3et3ZXFF8nXwTVo3QdOmTD16SqrEZQSlzDOkAdqZ2/ysUbdv35YSZ1/n2XCpmoHysPaDj0C6wEjnqJ5VeXRnSvuhLGMMTabmkbkR76cuo3GCodlIhxHaJD0+DwDkc+FBdq5pbr8You6eAz79BJECFlRznPXmMxRJK0qX19SLoiPUztZbjManNDGU3+bBUQOIDIkqEsQGZI2QAOk0ahNnTDCNkrYlXc1pfo2A6jCFQcQ1SYXkY9ixEku95N3rAGqTMpJATiVUNj2c/4ZjqtvYWZ/DDJ33Kafro4H7+kzZ708JMGfO3Mx/OAQc69Y1v9Enjbnz5uVK95HBo+FbbQ+diG6hDMqZkr4TD+ncfDQ5LMX3IwZIZWibVIS0yENbidMW7QtQWIvJcaQAvWEwCqh1wUbvqLvFVBJATP+LA6xV2euPMItyO2VySJBILhsyRHkeIdkxCQ8hSY0gKI/GMKtNWjZlPpC909JGJI68uxRx8qv34/OO/D27dSlFpKU+xx83P+ebDm3S52WfoU0NYJspfzqi8lQ+uoqf96IzJ0DGWZmvPMHLjHWU6bj5J5SxprcPNMMKqgVCzcLfZiZW8TJEKYXBqIIRc/Uki4P0BmnbX0ozr/6RQ1nYUH0/JUhIuTyhOPKkD3HPb9vWDFGRQHOt5Otwg0uUz2Exjz++PMzVnekPyan/447Nw2WUIaldX58jZNZxtWHqkUcfzQXR6mNOx2E0U6ZMznzCuugGL3Vez9BLjUQdk6ADuMpD6Yo/lrQNQADhPBIu4vscsvDo6iA1GGJMfrUVoEqeK6T5hsH0hP4oJUMEw5MhwrK8Wlk9w2JckqTJ89B824Rhhii/iik9DUoZXLvmmUbqoQ7jM4yEIrpFz4D6+PLHy94YErUC8/GE40/I1WLMTRNwh1LTtHQzBPB5MkCkQ4Ior+UMZsPVeSRU4+N5VXpru2T947M42kzbuYdH+Tz/P8o0a2bzu7T0AEPKQQoAxR9NuhlbR+5v4H0kH1ghTGWbv1UQSOzSB5IU3x2G90cYAGDmX3Jsjvh0GyYgB9UREWZH+gmQzskGmD992vQ834z/I240oYeacjenMpGGLDNlNYza8+scFdKot9MNl6RH12pTG2ykXLrf45580VE5QEaC7YBJT4adnb05Kt0MMwrieTBv1+4Y62aVs846Mxs6qVPO57PtICVjIkLNx7saoX1IDGBqfHtfeEZZJ72BM09wsF7u5Q0FkGmHOQ6eS+ujE9d+2/a7QwWKJfP04Z//vNx4ww0pLU3308vOX7IkGmFSWjZ0nk0boyzxXB7i8aQqs8XYjoEAdvWkjFdHoDKqZ13OiZLng1CVEDa32/PLn9KmCjgSyrYMQ28FyFFxlPXSrrBUbr31tvKNb3yjU5mDWjup0de3p5zxutPLBz/4gXLKKYubCnY8W4P9GmVvUfXOa6+9Nmd201sY0kDlrA0xftYe2aaqvEpJo3CJU1Kl7fdXKL7SaSurg1lEvSR9C48MeabxDVk5pgfDAddxV+qLL5TGbIgokvyZ/dXCATYWh3hvetOb8mwTx0VoXPfaltBQAJGPjdn/9m//lltFKMttwiedzSF+fjhBOWuaowKQvj17o2euyL2gGiEdQ+iAqfZmud2MGTPLFe96RxTol5rx7jAAUocVAFFxjEN62e5dfc343w+pPB2AP6LrReyY48Z7VkTtQWioBmgTZxt9w7ClnhpUmnWDVAI0AkArX1udBhB5afzqZRZ4iD/72c/m1oxaxwqQ4ZRNGvYO/dd//VdK9a7U7pDnrBdTIPUo0ErD7xojICLVAfd6o8y7FCCYMH5cFmD3nl2piNVeHnp2XkdCmGS7wi/8wi/kd8wCjjQLo4Hl0xt4MjUWqZBzM/GPx1ODYZxnDaCVu4bhEanD12GzmHql9JBXlIVzSuO6DzjSVUZ1qKEqiVVK0IfMM6lfe8tk6mFtvraofb/92cZ2ul/v8FIJ33ioe8EzKgCxq3NC9NBFJy4IQDSbnCodM1bvPSb9A0zL9evWRvzmOZBo5OEGhKlO6LFhClMNO/IDkmopMIVrsLPPkjq9Vwo1vvT4QXxn9rKUbJ4mZXJNR8QdKmg4s7bA4B1rPOSTYO0wHkAEcYECa+RvH43yG1aqM5DS6DAak4gaTjzvkXq1/oOROOrDctEZKb9tyYhq3XU0+fneplEZYpBKOgP0+uu/UZ4L5atWqF53xRAwffq08p4rr8xhxv3ewvfS8wof7wCCk3Gu/8b15W/+5m9SyRPPxix7Wa96/1VpIu7c1axiR4Y0zAAYK8tsE733nntDojTu8F//4AfzSPBGzFuP0WuSDky7otf/37/8v/lbcbzGAOzcsiuvfFfu2bGAmfQisXCCG35W3P/ZT39arrnu2jw7XvnVDTgMLXQQ6VRhVgFSedkf1TRcnSxt9R0JAmhVaiOf3aME00EynxaN2kG6GlvGrAQHyDZ1UUPjqrF5XDqBOHpozuJGlaP24g2f9DriUcWAo55qBKDIBvElF14QovqkMv/44zMAzKzZc0KkHlfmzJ1TVj21MvfZYBam2mNz1Qeujl51Ylo18+c7jXh4Qd5f++rXsteqyrx5c8tVV11dfvFtb8sfBJgXYnzusfPK3Mj/uPh+woIFIWn2lptuvjl/zZL0MRQaat73vvcluOqUAn0FuEcCDsMUgLBe8Mj7bYCIhx8UYPXuTXdUhhgF0HAKxPZXKD0dJQiCAIheyi5nzlES68qn4ZJ8MEH6dtU5IYe/oNrzq1auyt3/d9z+o1QeiXzB8GG9iM+TJ03Od4y/dAXWxz13310ee8TBc33GjUaB7SewDpptEs0MMHPZEgSdQpnUcf5x8/M3YwxV4kdxI35Tbt5LJu5XA1DXx3uGF+/gW7Uo0tvbocq7wcCB8EXAc24ADjKfmyEtytsKpKThheWSZeqhUQEIUgni+vTTTiuzwmIx/Z2u27jv6ruTfIg9Fsj2HR3Xez+FrOR5b6hjs8qTRHanU+wQryR39d9+4Qv50x9Wk9W1n7UBgensGOPtyosHqVRa7XXjjTfkECR+f/kKCfJoK8DygYXgtCPSiwKsbG9961tz3igV4iBNm8CK7xsDHNd/7evly1/+cuapTN6hc6gHR556uV/zGw6Jp46kWd2/XJV3wbMKIPVX9zoD30ujAhAFVCnBqcFVAao9HtWrQppk41b2GSPqs6FI3Eo+6wWOLrBqS8+tJO2//du/zZVdRG57FRciWs+/4IJcxCMdip3TEi2qGWqDUxTWf2nW+okR70hD3Uk16U6bJt0GHIikNBRed+1X8gcGmqOzGp5YyWVoYW5q1ErSpHsMh8SVlrIASB22KkAyrQjAl1MOEeTVHwBHTQdRABxRCIoYsVtFaLsg4mkQvQ6S20pSpjFMwhAA9L7hwvCwatXTja8hnnEzO/JSb58+dWqCqVJz9tf+8tBDD5cNMeR5Z/OWzWGmz8kjHPTqgag2mp8Bs/qLtcAx5ly2Sy+7LHSIt5eZs8NEjeEkKpS8eOThn5frvvrVPP/DXhqNh1nqf9XVV3V+D/fQHl15MVyesFh4TgGEJNEOdegBXmR4Yf057A9ApN2b/qgBBMms2XZYUvzyDmqsXoAgKCdl6i9cqkhvYfv7XoN0BZXX+CeGgrlz5448K23rtq1lQp4+uDaVUcc9WVrHimq8pM1UPMVy2fJlWRb5m67323NO+AF26edw0iLSgOl84w03lm9985s5LJEpDsh3SJ8h1okGgPTcc5vz9MMvX3NNuenGG5MfpJn6OiriQx/+UFpe1X9U6zYU1bj1s7KTmiSaKYUKCPdrBxXk46TnOiS3eVlpVAGCZKiAlD9HNkBzf0T0Ef8AQjFri8JK7c+9VOPWygMJES8dRz/qUQg47G8lfukBgAGYDnxx8sBPwtzcsvm5HFpIvBkzZ4Ru0/zyZr/+h/j6VJjK//TFL+auvTSNoyHeecU782dGpgUIgWbpY0sTQI7qZNKSmgLeONn5I7/5m7kmlvSrNJK6dxs1LmvXrc0fUKD8k8wVIOLgDSK1SA4TgKwkafSXx6gDBGGaglUp0h8pfBWFjj1o/AXDBwg65Hkwipi2JAAz9CQTaXUcNuRhIKkiX+5xPYn0WBaNCVDuW7tySoBWDzfV3ku8sCyXm266qZP23rJo0eI8rN859A7pvemmmwMY1+WPDTqam4VHgcYT55L+zu/8Tlos/CFpIcUfPrRpqLpXgCi/yUvno9VOASBVIosnf3oHBbpK7IHSf0EAonAaSU+yLHAwKaKCRJ+eZKl+rZTrUEyqJH6uqwiekRCWBJBKTGogkQcyT2TIcdAciYKUc9nSZXlKo88kn2GA0wqIalkqmQv653/+5+Zwlyi/NS5+G+bMM19f7rzzrvL/vvSlcsMN380jpOTLYUcSmc32AwPOkL/4kreExTc+FV3AqL28TUPVXblYR0z7W354S3qplR/vPUMVCL5z3zsXteoeA9GoA6T2WGJcYZp1loeuQK/kO3QD0IkLT0yR7133K9NqZdFAFavxK0MwynBj/y6xDhiu0tK79DTKpcPdOJRs7q4r0cURnzSoh88ZCpXLBm0mKr8J8Btu5OW47u/d/L00edU1T+3ZuyfE/d60aPz23cc+9rEMylXPIcuTBaK87Xr1fu+PgECQD3CoQ+W78nqG/4YbACQpLwsFWn3EqUNQfzRqrvY21UIqDJ+Hn+3k/1Bx99skjp5qfoW5SpogaQi9zBsJeV/jMmG5nkkOepF0qkkJoCyOmrZ3ONU05OtDKsyZPScbG6PTh3PPvXkVjwQR13S/uRj31K+exboolN3Lf/EXyweuvrqcHOlpNPl069GxiLrfR0AkHY+p893biimqABGHvuFceI4498R70QGi0TG+MtWOOJuH9Vw9pxbBVVz3uJrfEeaeeQjnfFnk7CimNvNGOgOMUd4nofRsQKE7mDchJZQxRa7IHa4oU83T/9Ko6YjvSmpIkwSYOHFSI50iTi4pCL3FOR/8Gr/y3veViy6+KIc970kn0+2kX6n3+1BEMrBagN7Q0qu/yEcZSTnORNP6VXrQDwejFwQgqDJaoSiHpIhrRbBKiFPR7PtJixclSM456+ysdPocOsyjzDkof7jMlK+0q1bvuzzM31Do/NoT5U4vc0xUuuMjDqq9T3yHzCin0MysRpB+6B5MZp5izyyKNiz5mQ8K6DnnnpvrUWt5E1ydd48EIMpI+cdPk6PSrUZBpcpbiqlJuYsvurh5ENm4Pxi9YABpk0bSey2r43vIBTZRUQocB1MllbRynfl3+qmnNesx435dWJxjdrI469r5NHKSNwDw6Bq/HwjAWDNrRZgdd8qLTXWVmQb0PX8FMz4bTqwDMaXvhwsXRO9cEkrtqTGMGCKZ0OMnNueyIXUQNByqzra6WGo4AJG/95WZv6OCG/jb4ECkGwlCKWa58G6jzMe/QfJ7UQCiYpRVK5zMkSASghaf1keHHJ6vEXj73hH6yOIwHzXC7riv2ClVjhQgUfs0LCM9jKKj2AbAHOcCB2DWT57hHg1Q13dgmsawxpReYr7FTK0ZWz8mlNsbIl4XFFnAzuf8P/jQAhzqrqaL70PVBQ/pTzfccEPXpO0PHAjASTJLGKw7Ze1UcFQaCCQvCkCq6LZyWwUNNSqskE7SqZTL9qLcgGDsvOyyy8spAZKxTMIAycRxR776SfVreTBYGQxf8SD+1bI0EkO8PAkoHzdOp/qOz+lljfI2K8biXovp6lHPX0UN0w9lfRsWPh389nwyrFBIrR+h8+Bff+BApJgfjmaqy1LcduIDgQMdDk+PmDBVMHxYqe24R4U2dLRZpsKCcZXov/XWH5bHVzyRjcRH4h1BY9VwOJT5pMu9oV5+VQAAqn2rFFl6iavxXl2SlIGjK0OUS20irZQeLTpYyoMPemWGd9v1y2snbeC45ZZbuvtmenWO2uD4BhxM2pytDqplqjQYONAL4igbiFSKAwsDiHErzLN1InSLnV8b5ZblwbNpQk7FDQUZzzuRhnhDVbiXavxD3iNBgnrTa3/v737eC32ikSSd5614h3wO8i1i518vAUKzZqWRDBX8T618Ki0vOgfHG+C0y1Q/u89aAg4OsTr5J50ar8YdjF4UCdImM6V8HuYEZtaFuR1m9JJKM4+/+93vlp898ECabRREony4FX5ZETZElaJmKQ0ef+Lx1NuAQ93Vl1TrlZw6E3BwEdA9uAzE7Y33sgCIQpMihpoloYwS16rR4c0hfQujAILmbkHPXXffVTZ01qC2x/tXAmk8Q4f5H3tqDSd+T5fPpja0q3i9DW3os0rOTK3V8P2Bo9JQIHlRlNQ21exJBxNnN9x4Y+54yyWCAZPqK8jP8VfFbR2e/L6tXnLiwoXZm+gx4lmTMVTlB6KRsERe/lXq71136CEZdwDK5ZDBA0BXD2SYsZ6X95kyij8kibq3hxZUeQJUwMGc9esXvleA1Pgj4cuLDpA2EY1MtxsDJIaSvj27c0pehVSpt2KVKXwPF190UTnrzLPS62oDEtHo2eHQSFjSX5l6aTgASYspACE95TaEWE9q2p6CzscxEMkTcLjR7Ve2ANksbXqFI73eMvWWeTB6SQEEVUnCifazBx/I9RuAU/WMNrHvLRp23895vDEkyQUXXpiLdSZEL2xbJiOhkbCkt0z9vTscgKBojKwTH5FZZj4irgB5AM1A5XKfI8xkpPkrvg7xa9l63+st82D0kgKIohCrPKQcVLfdfnu5/yf3p56R4lelO/FUUsHpLHqPLxxPJtVMZb+B0juj+a3ZkdJIWNKbfn/vkoIAMhhgvbdty5b0CdkmSXqkEh714wl1HUgiVnC87W1v6y50blNvmV62AKlUi+QY6ltuvTVXYJlMy22M8cdJhukU1l4CJKL1nLPOCaX3/PS1zJw1veurkLSdc2PHNr3yaNNBN19Tj172NutU/OpFI+GUd2dfX3ls6WPloZ89kMOJzqGRa5kHIpLVsEIHY86SnLXxBwPByx4gbdq8dUu54847y1133lXWrFkdTGl2gpEynFEY3CaVV6W9e/aVObPmlHPPO7ec+fozAyinlomTJgTj7Xu1R6Rxwok/EoYNRf0BpLLYnAvfjXJv27Ejh5QVq1bmJBtgbN64KaUhYPRnvrbJM3ywip85y9XvvZrfqwIgikZS2DPLvLNtwfpSP8uFgXrQQBTyoezd3fwYsslA2wlOXnxyOf2M03O3m59Qx9Aahss0zBouw2pjVRazVNTF2WO8odapLl22NFe2T5o0uewPcBguMm6AaLAyOYKr7knm1RXEH05zvmIAYi4G6enWgxDDFLdHH3m0bNq0sWvCNYzJqF0yFIWM6I7jqsl5xAN78smLywkLTshljdZqMJcrgwdjXs2ifa2x673u98hPI/tZ05zo27otvcU8oUDus2UFuc4l8nTiM+kC+HQOymqtXyVpKqdpe0sIgKN2lJFIw+HEqfTSliCd0KZ169bmrz/ee+89ZfVq55E1cxXWYhxSE18O+d7RN8Y0oLPMb+48+3PnpXjGdOM5N76rxqnSRa/OBm/xtSad97nFQ1JpKCcHcIHbUG67BSBYNmAl/cYNG7PxxQWlem5KbbB6OnSTZiNBqp7kas6KMkpyWGvyPPJ+JDUUAF7RANHwDsi3Wtw0N63fHA3ONCDpcvnQl1sAOVhl1+YzxdZWCXMWJAuguCeQPJF4WiLtJA1/lE5LAEgqZ5mSCpb8WYhkbapfALXoGXgMMRq6NnpvQ1WAIAARSAgSzmQbiWEBNgAP1myvWoColuLm/ZAcW7dsLY88+ki6oZcvfzwn8rqkWu2XWwDBICHTOtAs7K33KvNIDo1TrzLPfDvX+j1QkhKEcpkgiEZNlkYACEMFQEinP19Om9oAkZbhhBXGI2oPi+GRNKvSZSAa7Bka6nmbXn4SJO7Ue8HusofSt/7Z8kjoJUuXLitPP7069RMNlEsCKzMCIFnVChAtnI/aEsVrhyqWKNOIf3knrjlIefdglIjfXDswzHdyfkhane+9BAQZLwCUi6V270nLhPSyZhQwSAz7jKdOa35/FwFIlUKHQ/2VZSB6WQHkIDQOUlY1bpu7WfvsswGS5REeK089uSL1AENAs7+mYe6YYw42fsOn56fZS5WhVXq45vdOOm0WtpcNJghrnM47bWpLAqb3+AAAUBhOXOvWD0dHNBU9OvSqAkiXohp79zjvdHf+kNCqlU+X5SFRDEF+ONApQc1vpnTiJzU5DMWw0QIIhVU8SxVPXrS4nBnSgvJJGbVssflduyZ9YSQNOxiNJJ1XBEBUwSp0NSGGXQ+E+HYe6dpQYK0tfeTnj5VnYyjatGlDI1G6FsSRAySY2DxokXeGAohN4WcYRhxgE6CYPXNWo6vE8FHzJGWqpDmSYaVNNe3h0EsaICOhrET8V+uebRbKo+phsF9d4JzKbZUBmvUbmlOH65K9Or4nBXi6ja+h6TIdQLmfIf8wMELkk8+6ebNuolF93rc/JYXGdZiu479PWLggj8Qyb+RnSaZNnhLvyudgw/l08FuT5kga9mjRKwYgQ9G+vY1Jav7G5q0NG9fnwiPSxeype+Z7mKh9YXkAhDUlzg7xTm0c7MrJN38aLcCRsqLTwFzoDstlms4Ic9RZZMxnfpY58+bmGWl+tYFjDFF4U0JEfv4q9QLkxaJXDUB299kwZfOVoy93l0mTmn0qtgsAiCtwOPJhy7atjbMrzGaruZw9FtBoJEcXIATNmDxNkb7A/GSBTAylku+Er8LRWxYycfW7l+8EEFhXO0NXqicwt4FR6TWAvIBkLY5aatbsp8n9ptptyVDJgiP+i77dzclHnF5J0uh4bvV8b/ptFT/jBQBAAhhob0gFehAQNScYNaCSn6vtHekXGQAGWcTm44tKrxoJgrKRVDdbqmkslI3WYkPbpT4UpQ7S+dwfVedXW0mtym4vOI6OCnp06aVYplEjQEiRbrzvgKILmteoHyrl/wO7+FIrZ+K2WQAAAABJRU5ErkJggg==;" vertex="1" parent="1">
          <mxGeometry x="80.66" y="175" width="78.68" height="70" as="geometry" />
        </mxCell>
        <mxCell id="ZVRVcHzqKUU942DQ3SIE-4" value="" style="shape=image;verticalLabelPosition=bottom;labelBackgroundColor=default;verticalAlign=top;aspect=fixed;imageAspect=0;image=data:image/png,iVBORw0KGgoAAAANSUhEUgAAAIgAAAB5CAYAAADidGnuAAAAAXNSR0IArs4c6QAAAARnQU1BAACxjwv8YQUAAAAJcEhZcwAAFiUAABYlAUlSJPAAAABhaVRYdFNuaXBNZXRhZGF0YQAAAAAAeyJjbGlwUG9pbnRzIjpbeyJ4IjowLCJ5IjowfSx7IngiOjEzNiwieSI6MH0seyJ4IjoxMzYsInkiOjEyMn0seyJ4IjowLCJ5IjoxMjJ9XX3xSgAfAAA81klEQVR4Xu3defSeVXUv8BMyzyMEEkgYlTGAWkEEaqsiWm0Fq9au2lrnrnpv1+oft/3zrnXvXa1t/7pt12rtpLeTCCpqrZVBRUCZURkEkgAhISEhA5nzy3j3Zz/vefPk5Tcm+THvX06e932e85xhn+/ZZ+99hnfMgaDyGr1GA9Axnetr9Br1S69JkKNM+zvX/mhMJ7yc6FUpQbJPHOVuIblXYk97VUoQVT6wP6od3XnMmDFx8aHzsEP79+/vBuSdffv2NeAK8t4xx0T/iqtQvx/je1BlqvjuN/kcCqKXQ+981QKke41/+/bvK3v27Dkk9PX1lV27dpXdu3fnd9edO3fmfTRx4sQMY8ePK+PGjy+TJk3KMDnu+T5h/IR4Nr6MjzB2bABn7NguIEBFCV4DyEuUSIXa2ECwcePG8uyzz5bnnnsuw5YtW7pA2bt3b0oOoX5HTcOPLWNIjQCA7+PGjSslPs+YMaPMmTOnzJo1qxx33Pwyffq0Mm3a9DJt8uQyYUIAKOKlxMmUXtr0igFIrQbG12FB41Wx7ropGn/z5s1lawBg1apVZcOGDQmGvLd1a4IFaAChzRZp9ndF+w7sPyTunpBGJEtKkwDEzJkzy5QpU8rUqdPK/GOPLQsXLCjz5h2bIJoW9wHrEIqk9keaqJ0P6v3+QtArDiDI547mUHbt3FWeCwCsWb26PPHkE2XFiqfKtm3byvYAhGGDZKg0UAMM1jChzSQAK+0fpA2nBGCmB1BmzZ5djp8/vyw6aVE5ceHCMju+T5gwIYclSO6vSV4ssLyiAFKrQoI8F5Lh2WfXleWPP16WL1te1qxZE8PKjrIzpIQWHU8n6CiP7Xf7o6MFkMik7Nu7L0ahY1LCTJk8pcyNoejUU0/NsHjx4pQ6wNJbptcAMgQp5lBMIQ3oEE88/kR5+JGfl5WrVpZNmzaFyD5Qtm/bHoAY0+gNY0Jv6LxTq+86ECtGAhCfDwwQfX+Ub8K4Zkgx/O3t251gNtwIAHLG6WeUU049JfWX9vDzGkCGoFrMyhh6QmUgYGx6blNZumxZeejBh8pTK2MY2bqt7N6zO98Din3REJWljcGZHxqKpA/Ec40l1HcE36tiSrmsUgeJ12Vf3Mv7EegQ3kNp9nbiR+Tuu3nN95vPCbMwveksgPL617++nHzyyaHkHlcmhmLL0lKeNK1fQHpZDjG1yBhLj1i6dGm55557yqNLHytbQrdAx4SUaBpp6OqlT6STZk27DRakcar14V67DO3vDSzk2oABQFyFwcj7+2P4cZUPiXLKyaeUCy+8sJzxujPK1ClTm7w69UmfywsAlpcNQPbv239IL1LslStXlnvvvbc88MADZUOYqn0hMfBPw46J4WRcxB2qYVDG6HBBukI2buQjP0qka9e0bTU4K4jJXP0le0N6VGfZcPI+hAC1Q7UcdJJzzjmnXHbZZeWUU05pTOkXkF5WEkQDYBBz9Gc/+1m55ZZbyuqwTnzni4gWLeNjjN+5a2dKhQkTxg/ZSJ6PjzSnhXVxbJihwEDET58+vWuiAoXQbpzKNlflqn6V1c+sKWvXrk3w8q1s3779kLiD0Zh4DJTKBHDiU2Z9nzt3boLkvPPOS/1koHp5Z6g6j4ResgBRrEPc4ZgWSt2qp1eVu+66q/zkJz9Jc7VNbeWQ3jAuwMInsXff3my8VBJ5OqOhjevHHjuvnBy9cnGYm/NjrNcIGgQYkDxHyp49kdfeyEf+QMO8XvHUU+WJJ55ISwqYI9FG2sSQMn58o9eQerw2A+W5Z8/eAO2McvbZZ5dLLrkkrJ6TQ0KGDhaoGqqcnh8uvaQliKJRQDEPwx988MGUGg8//HA2fK+4rQDx3v4AV47X8Q9A+Bh4NInp0049rZx+xull3rx5aVJqsHFjx3WHj5rGSMm7VQfJYS6uUtkX+e+J8q9fvz4srMfLY6EzrX56dZrhQEL6TVAXxR0gX/HS+gowGXZ+5T2/Ut74pjekZ5YETPHToV5AvGIBAhQYTVTTM+688878DDR6ul7YpgoQVB1gPJizZs0sr3vd6wIUZ5QFJywoM2L4MHSoeFvNO1JWeL8CREO20673lZnpbRha8dSKsvSxpeXp1U+n3tK3M6RLPyRdzlWWWC3jvLnzyhve+IZy6aWXhuSbE/kdrPyrAyBRKmYql/jdd9+dQwrGVl0gmdYJGMCvsD+UWD1t7LixqfUfN/+4cuaZZ5XTTzutHH/CCWXatGkZZ3xIC6TR8DXe7jL+SMiQGHZIlid1ic59VFNnAjOpSQOOu3UB+KWPPZaW2IZn16f7H7gTYMc0Q90BZvM+KTRDUKYdBSf9zj333PKWiy8uJy06MTtNf/SKAUhtbGSs5vC64847Unrs2LHjkCHAlYRpGNkE34Fn4cKF5bzzl5TTAhgLFiwoUydPSTDUIUcK1dI42pQAkUMn+fzcocy/RSAUcCk7Q5EFlKeeXJFW2TPPPFN2bN8ZdQwZ1FPMbK74V+s7YeKErCe95Jxzzo7hZ9LzwP6KAQgypBDDj0Wvuu2228ry5csbxa6HVFpPcxUwjJJ55plnZli0eFFaImNDWqhiVjL45LNGGy0PQq+rfUCAtLkeZTJ87Nq+o6xes7o8+uij5aGHHi5rn1kXusuerFu7kbM+EZj+rvSxkxadVC6//PIAyVk5fLbpFQMQRenb1VeWLV9Wvv/975dly5al9cH/oJLAU8l30oKlwBzViy644IJy6imn5lByTAwzxuUxHTGd1OLTMaNU6+ECxHCkvg37XeP/ADwpabrApOJPfvLTHHrMNKMKlPqeUBvfM+b5RRddVM4//7zsHJVeMQDR2BhCcjzyyCMpSVRO5VEtqu/A4gocgPHGN76xnBB6RlolQXXKvI7jlbGVWYfPssHpIIQHpwp2+kWWRoOHRKj6FavnmWfWlodDkjzw4APlqTCV6xAKZ3QQVOtjvskz61Auv/yyctGbfyElSd/u3WHBHbqkYCSAedEBUivtSrSSHI+HKVh1jv6ogsZcxZvf/OZy9llnlxkzZ3SB1KYuIOLaBsho0XABEnDIhm6zfwy/T4d88gwfSJMf//jH2WlIVCY7r3KbDnSrNaaceOKC8ra3va1csGRJrmTD33atX1YAqdkDxc0335w+DmDRw3orUiWHIeSMMFl/6Zd+KZhxYg5B0ukPIJVGGxiVhgsQlCCpFB+jMbqfEV/O7o4UXbduXfnxj35cfvrTn+bEZHumFx0EiNf3l5MXn5wgWXLeeUckQUZLVxs2KSyfwI9+9KO0Viik7lXpoeEriOqwwqfx3ve+Ny0UQ4r4g4HjZUH9tBkeTJ48sUwKJXReKOC//Mu/nI1OGa/U1P1QSWtoXv748nLrbbeWJ59a0R3ODodedAliruKrX/1qAkRFqg5RUe4eRqk0O/8tb3lLeec735lSpIKoxq3ke61W77OXGrXZ39sUzy/7mDR/NfwNN93Y0dGqfrb3YEeK676Qwvh15llnZWc6acHCsjd4KcVeE38wHr1o3U5lKKVc55xgJEcqYB3ynFRgwpm4mjp1atr6V155ZU6oteO26aUOiOFSux4sHg5AYcrUyeWKd15RPvCBD4R0mZK82b//IDgQAIwN/uDpz3/+83LrD3+Y4Bgb9007jIReFICojIrRNyhfFDEad2+ji6eXAMcb3vCGtPOZb/X9Xmoz1eeXA1hqOXtDm5pV881alPSyhuB84xvflJJ0ZijnJvJ6qYKkL0Dy4EMPpcNxd0iVXPc6AnrBAaJxDRvmVG6//fa8UrgMLZ4JleqQc/755+ecA8mBgCY18x5GHi715ltpoPupRNYwGA31fIRkLeu4cc2wOmHCuHLRRW9ORd3iItSU9SBPEiQxDG/ZvDmtwydXPJkzzZVq/fqtY4decICwUDiCSA5eUhUABI2uoL67umcM5d+gnM2fP78rYQCqKqVHCpLKIPn1MkpvJd49awdzKTXkIp/Wa9LwXsY179KT5mBUpUdvQNLpqBtJ7k6ZMqlccMGScullby0Tg1e8sQ1fDjrTvO/+008/HVbQj8qGDesPphllH6p8L7iSyitosQ9Es14wspKCa3wgEiyOIUb5O1S8zbD+aLBnQ1EthzQqYw19wGySsEvBrZqLq0lCQJ4evXjq1Cll0uTJWfa2hKssPpLy9ZLSSm3v/n1ldTT+93/wg/IgK7CvrwFui+SvTJNjGKe/vD2kDt2u0mDlesEBUv0d1nYodC8BgsbiFaWQAgnQuFdBMhAdaQMABH8D4G7ZvCWn4fU8kq5LLYBUspzgpJNOSik3P8ptKOSf4eVt+yuONkCQFM16P/nkilT4H3jgZ8nXumkM7d69J2e4gXZBlO/Xr/5ATk1UK3AwekEAIgsNbAUYN7rhRc90r820Gs9CHgopq4WC6r4g7uECpL5fPyPfMdNCnieffDLnfngrrf6iG5Ec4lrJZjz3mQezMRPH5JVJGQ9SISRJpoQU4aQ6+5yzy+K4nnraqWXRokW5TLAOn0PVYzjU22iUdsrod77znbJy5VMJkLomd08AxDWlRuSPr+94xzuyTKgO1/3RCwIQjb43NO1HH3u03HDDDWXFihU5TveSouhxKsAhBCiDFb6XBmN6bZj6WaOveWZNeSiYyszmpDPfwfQGGmWuAA425zvKbDy3GRtAzKM0EgLQopeGeeGd3MwdjTElwL34lJNzrmjJkiW5doOTq91z22UarPyDkXdJlG0xfN/+4x+VH8TwvXnLllxpxk9iyLHcUvqCtbeksxXzpMqLDhCMtUH61ltvLXfccUc6x/ojjLPD7D3veU+KbIgfCdMGi6vRMcNchvUWtklY23rffffld8+xQtDodTjzfffOXeX4E44vM6aHtRD3qrK8PSTiumfX5Qx0znnoscc0pqgOQbqMnzghpSCvL4Ub+DWM4QfVMstnJHXtJY0o33Xrny3f/va3ywOh57FYKKL8H+308RVY3/Wud+VQPli+ow4QyWO+Wdr/+I//SOkxEPGOQjZvKfNWI42keINVlAiO/lPuufeeFMPAahip5fNuBRGgYnZNb1YooB/60IfT3HaHhEDPhr5y8/duLnffdXfZGmBpoofEiXKzykQ+EDfVowbTBEzTK6644hA9QDlqfrXOg9WnlxIgISkMgffde1/W0ZpXs8ITo7zqnvEibVLOhiwGAPdBpXYZKo39n0Gdz6NCMqR7EOEUU949jGpTZUii+op3NZIj/ur9SkMxrPd5DhEYE/9sj/jmt75Z/vVf/zX9L8pUhxGEYXq2vOtOf0Q8vztA+4lPfKK87owzyuKwqCigwqnRwFavmYXeuGFD00pB0jCsHD//+JQuO7fvKOMMP1EfEoeDkL4jHn1FuQGy6ihZb2m1qjNU3RGuGv5mBqBJt7Vr18U9HIi/eF/Ae53AUOpKsumY3XyD2nmNOkAQS4BZy0LAhHYBaqF5SPUsO967FNF64w5Gvc/ze/wDzH/4h38o//7v/54SjKQQSBUilkLMda032c9CF8E8z88666zyud//XK6Ct1uvShjX8SHlbL42vhuyWEFYbBf/L7/97eXDH/5wHvdgRpZS3tfXTERqCPkAih7PjDcMedauw0Cf+yNP8/34I32Bb2XUw9EWbRJH+avU1DFYXz4rV6bQymvUAULfMEVNGfS5itqsTAQ9B7OZs3QPNa3P2gVFvd97qfc5JlgJ/9d//dc5GUgPwjx5cu0byn7rt36rfPCDH8x1JdaD/ud//mfulhMPIz/+8Y+XK97xzjwtyKxp5tAqG/NxwYITUkIZRidOMne0JyfL3n/VVeXSyy7Nuslv/Yb1aTEhdVae+++/P9OiOFrsg3zvrUvv98FIXKa2Dgns9V5NwxUYSBH1JA2VjzStbVNpVACSor2TCQXwhz/8YTKGGagAVZQhvZSYviqYSXFrP+uldsH7o/ZzyqjV8MChdwOLXqWXMzvf//7357Dx1kvemqYpM/dLX/pSNrJ0gMj8zyd+9+NlTlhThppMPZ6186GUslboHT++48fRCWI4CWA5ZoJkWbLk/HLiopPyekboH4Yuuo/Ogk+uJBxQUsyBRPq9fBiq7m2Sh/iGDvwnvXpJO+CJeh5//PFpMXrnBQFIiq/469vdlwzXQBrskDG2Q3qS8VoPrs/bpLA1DEae09jJeCasySngYMLKowKEufmpT30qAannEPHbt24rP/je98v3v/e9PH1I2Z019od/+IflwgCJPUnu+dfJrPksKG6UefbsOdlbl4U+Yvvnluc2l83RMOede145IRqApMld+697fXYUjUaCZLnjfc44nUicWTNnpclclxWioerfptrIhm1DDOckHiCgrDz2GV8MM3jBevPM+5UGNoCPgFQuYNBdY+qqwLVw7cpSkmxObnscK42EKdI298F6uO/++1Ln4NIHOr2EdLr44ovLH/2PP0rzru5vlS8m6sX2pNhhx39AYb0oQDtUGdLHEGHW7FnlI7/xG5HPrCyDdEkT6VJUrUC3e/+0008rv/3bv11+93d/NzuF9JWRZCNpr7nmmpxU611SOFKqDe0YCXqW9OWVfOoEz3VcAAJOz/1lR+vQqAAE8mWmh8hcIZBCKxjKwkQwvFg+iCp4ahgJeVfDcMZdd9112TA1DeBgVv7+7/9+SIQLswej7ju2GTz8UDaihpkWPe+qq6/O6/7oYUNR9rjg6euiMXgoqyQ0bNBruOx5WnODeTB/5vQZ5epI/9Of/nSCVhlINx2JMs8dQLGv/Dgc8q6GJpHwV5lqR63ks7wpzPQVHQnp3JVGBSAKxr2rkrVQWeBOQIBijymEtxvscKgyw+bob33rW+nKV1kNZxxm73/0ox/N/TJNY1pxFcyI7Ji0hqFn1jyTjWh4ODsslwtj2MtGFR9Pu+Egg7O8vkeHUHL1+bVf+7UU2aTZrl07y+MxdDwWALQuIztHJx08sUXh937v91KSyGdy8GHjho3lO//5nXLbrbfmMJQTb4fBlspz6Z5++unpwTWc+J786gRDjzaiZNOH6rCWdQsaFYDIpG6bJNqSyR1ScEEDYiQzEimQ+yOhWgnXLVu3pKXygx/8oLuPhIb+9o65qRcZPgDJaxRJ7z0dZTQMKqdGjEKUd779Hc26z05jupchKN5u/jKdgy2Xj+M/IORQmzSxAf26tevK/ffel2sybOIyRwJ4iNSgCH/uc5/LKwlmfmfVyqfKt//j2+Wn9/8kO9pICR/xPCVWEOUXr+VXh5ZKJIt7AOJUpt52GB2ARAZQCSCslORehANxwVIMnjh5Ull44sI0r9qMHgnJR+X0DD4FJiprRJ6GNaAgPeg5eqPV4MLmzc+lo2x9iNV77r6nrIgxH9M0nPF60cmL03fB2bR5y9ZUNpvQKJ7dtDZtis+bytbNW/LZc5YFROe4IIax6TOmK2HZsWtH1zHWjRtgEfRYwHSkAx/QrBgKnQSASd4x6706pGLDtZFTbWg+FlMYVVLX+/iuoxpmDDHqVIeZSqPiatdgeiWv5TNrn8nFLLVQ3MGytEr7fb/6q+VNF77hEESPlORFwfr7v//7XPyM4UjPwHjeWaJfvC5F/pxe7pmzUFZbHMePn1DmzJ5d3nLJJanEYlYOVZ2yI8yKGjSfpRMgsBzQkMVTOmnSxPRg3nnHHVku8yDTQue44MILyqLQByjA3s9Z4CBlkIflBXd0fDXSxS/m+O987GPpH5oxa2beazdX5Wkv9Tap7wB67bXX5kx1e0ivaeqo7373u9M3hF9V0owKQOzmuummG8uNN92U4h5AKpNrj7fa+jdC63dwS7uirWMuhiTvAcT3wjz9q7/6q5RY7lUwYIRKqiIL4iA1PUfN+SoqC/Ia79MFXPVms6G1fJ1YGS9DfFMvpwUAvljmadKyieekGAB5f1yA6ECnmt7Dh/gvdAALpKzXCCsu3kmJqxwRAO+St15aPht6yjnnnpMSruYtzVqu4RDfyBe/+MXUz9rbMpF08Mlk4q9Gp83OEWXj2xmVIcbpw6tCQVWonNhS4Q75pKLG+BmhQEbp8l4NIyGMqmtMqgu9Mk+FNUIdbvbEtQaeTqQBcuY2pI0GdPqQ7ya4NFpKhbBqAEWwIlwewFalizjNdW+KaksADB+7YojNekcbgpL3xDN0ZXni6rvy0D32xD3v1jUmNk2ZEeaBtgho545IL6gCRBgu4YHFyry1JEWbalrKwoFHNch7nkUYFYBoNMcZaCDKIMPWpmZBppOnTC7Hzg9Nv6MxHy5hNDOaKx9Vh5hK1vFdaH8WduY9SmlfSjtE6aSk7oi4W7dvixDXHT4fDOq1bVt87lyb7xEivqv7G0IP2dG3K4/kFmq9DSuWAzJ9haZcO+LdSKeGSBO4NCgFE9CfCR3k7tCTLCtMyyuoiv/hkgZnOKQTrrNIqE2eS5MfiH4FLNnBosyjMsQ8tnxZuq3XB0j0TqK1inqNanKIJ3PJeUtyTG7TQLvuqzhN0RzkO0b/3d/9Xeblvt5vOp2Ti2JWpYgKx4cGnR1ybvu999zT3RTN52GtxkknnpgnA4jab0NgV/5rrsqhDvLQ88dNaNaSKFudg6qkXDy5rAl5qmsOSfGeoPwCi+Keu+7K46oig3JiWCF8Jhx8k6dNTTDzzA6XAEt8UvZrX/ta6lx0NGVX7goBLgEWn7kjFuDukKKjApBbb7+9XHPNl7MnGE40rcLISC/ViL/10Y/meeUY0KbBAKKoyVh6QfQITqi/+Iu/yEVIKmTY+uQnP1k+8pGPJEAOoWBqJTrC0kcfK3/6+c+X226/LX0flOb/9X/+d7n08su7oODLeB5AkKRabGuzkASaysUdFgHF+SvXXZd6mPKZ/9HQLCXvqEcyp0PuHYjhjz/nH//xn8r1118fUmdXeqZ/4zc/Uj7z2c+W2XObuRpUr0NRBYhh6pqvXJN6CP3M+/ipI8hbGe3CM7udjrvddKijTDLjk6i9L5lQKQphGKAkKUyLr4OSwkN6FbEq6571o+YwpKfCgFfR7/lAZKUVccrcRfaakGrSSZZ7N0L1dfSG+C9CxOs8b5OV4/QVE3jnn39BMjqlS/BDnnUirZtWm9yLy9xQ3JnoejTdAR+dtvTEE49nOsMFRpc60XUqFkqdl5G/tGp6ylmHmEpHDSC1spi6KUw1yOQYah+uhojQ2XPmNKuchlnPrIS/SMv7iJLnFCIr0D3HRB5Dq7QwYDAmepf7e/36DTkscF5xJnHJU0o11ND0/DhZjhTddsJNKAsWLuxKMsBQ1toA+JR5IUnFd3X0/qTJk8rZYZ6bt+Fw5P53RsgDDzzY7SQjIbzRPoYVm6zqECeg5G8E4KOomuzsDORHX4KoDK+hzJhJqDaWQjLr9AxiMx7k/UqDmbjAIZ0KRNPY9AeSQ0U1riMuZ8+a3RWbAxGLQ2/eGpIO84Bu/vHzO40ZeXTK1R/EuvfEiVCZm2WL24avbBDXuDct0tQwQMnxRjdhWqeXM18QOtIESCLu/r37y8IYhvhwJoY0JIXXrF5TVjz5ZNTt8DyrLCVXVkyVsL7X5/Uz6b9nX1hj8aeNjj5AiKlNz0XCkWl811Nkjg+esWAAJLjYPGsFjBqMMLk2PMdPexrbuM5bqDHcy6Etmd8JGNAJNjJvCb2ABSN+rgwLE9CmJ42bzIqQn3v+4sHBtEjH+jlCZXIl4vy4eceW8cHoSSFRNNLm4I29tN18WnU+kF+DF5Gu2WGr62YE8McEmDyzCn/blmYaIcvSrt9QFNHld3B4b9oFSVtdDkTYHhbgnmgn6ePNUQeIBmTySdxntn3WIQDAttd4CqhwVRoMlzBVkC4vZU4uRTrysp6BGUeCDSY9kOdMYaSXe5/0aIavTm+uZaufhxlqo7tKj2RLEMdtPg9bE0i4nITrj6QTRJJYxDN37rzkH55t3LipO8s7UlIeAUDaelFNKZ/HlWGhIyrH2Lhx1ABSCy1jGSSjKsWz/Isri8Ex2M3wM7KKakjpSt9YWSfl3DcZdWz01qGGF6SMOzoOIb0V6Eg1kiRPaMY4ZT6M0CaNSt/ihIMQ5Sa5lHEoXYJeNE+djp2X/HNKEDf8ylWrRsq2pAoQQzKA4BE+tBPznP4BJPXu0ZMgnRQTfUGVWemqjj//661gMy5Eps/uNXGawguDUX1O4cMspJIAwgHEupHD89LxtRVItd19famgGmcx39jMmkkHVYAmEhlZiHea92o+IZkivamRblXWeWiT+ZFvbo3Md5u4ldpAmx3DjAOApQPEdJjc7TdChLSBWwEi79rhKvnMAsMb5L2jJ0H8RYJd0SXxqFQFRQ3xIK5NoTx/XmMOQjUuLyTpUcGY5mD0VswjWYjhVatW5kH6wtOrni5Pr1xVVq1cmYFXkteTpKjl5cGkCFoXsjYU4LV+tWEkYY1312QaTVhdnl0XFkGUMfkQgZNQPqw82ySUVRz7a+qe4IPhmdSR1K3yqbrpj4TwCTCk2QDkUAhot9xw1WnLo+Yok5hM6Qaf//znsxEVRvIaQNCgdAUTQpYZVgVzuFQBYkr/z/7sz3JxkB7BdLOuxFyDfPVSnSyrHu8og3e93TB6d3FyIIcULyhl0tYDw0HG6+RzONRmpzrzJvNgkh4KpYx+KMgJybpMzYvJS0+r72s8+gvF9P777u/+uuanPv3p8gd/8AfJ6+FSTVNeAGqW3XJMkiRu5sRcMqwT5xOf/GQ595xzo0x7jw5AJAEgGlyv+PM///NUVAGkSpOjBRBp8X/86Z/+aU7SqWQVlcpgfM+4Uatu1TrXbkXjezI43iHhavky/Xh8+PBgqXZzyfToWq7yI2XrRuoMhqVOD66zyt0yezd7Om9nYxbTm3iK//iP/3hEAGE9qZR3AORf/uVfEiA6l6GurdiLAyBLAiDBzaM4xHQq1q18hEMqfJQICASitqatcr6381RR0iFD6BjA6LOrwCGV09kRANl+FmATx72RBo0ptPNs562kOUXQ4U2+F9/re73B8wQ8/0WAxPv5XWOqcysMxeF6qDC+pB8m+FWDt5NnGc//TdnQMccEL/LTERLRWEtZGTAapEKRelYA41XMcJJDSpDeIeSKr9BHNm7amJNyfjeXzkKqmSuh5KakUdZIC7j8vi7FFwNzhvYIA4WSGW5/jMVIzXKBxsLLMkZQNg47IX/0uZW3odJMOPAqYwU98DTNOXxKAGijIDwEtEqedT7k5/wZ+U77+YWJozLEEGHElEbD4D/5kz/JBlGZBqVNwY50iJEGJtFBDGOWGNI/pGnVldlYYEkpw5Tcc3DHvlDFPwB9/WtfK/fce29aMEzk977vfVkmjKplHgn1dgq9XkPfduttORT6zNdijexbLnlLfJ6WACDJKqVk6aSDd+i7N95Qvh31tPRAHT7z6c+U//YH/z33+g5EUmiXBk/SKxqNTx+y6t8cVpVsIlf+KOMnPv6JnNfKeaN4cNQAIkOMABCNAP0VrRUgCwEkGoMbuUqB4ZK4AEK5NIv79a9/PcdRa07Nkn7oQx/qptd129eGa3Fs/bPry1/95V+W6669NhU0G5sofu+68spcK3u0JCAF9Z/+4R/LNV/5Sm7IAsTPfOYz5deuuqpZs6qMNSufo+xdfkQZNm7cUL7whS/k+7t2Nz9q8OnPfjbTGAlA0jEX6QKdzgUggIKXQJFDWCdvnttPhQ5yaijS23fuOPIhJivUKQ0xBiS8dQCRmbpPEYsKjRk7LhStEOXPbUnFa6SkQoglYO8pwMkDGJmJPtfG7bA5mZ6BhRBAFsSo4BWdVUPE5yqwiGfF2OGGmodg2FoTJjMPqmFi/ITxuWotJzA7Ir9hUPMRKX+G+AzIlP5KpgL83n9oMp07wyN8y7aIYHgj3et3ZXFF8nXwTVo3QdOmTD16SqrEZQSlzDOkAdqZ2/ysUbdv35YSZ1/n2XCpmoHysPaDj0C6wEjnqJ5VeXRnSvuhLGMMTabmkbkR76cuo3GCodlIhxHaJD0+DwDkc+FBdq5pbr8You6eAz79BJECFlRznPXmMxRJK0qX19SLoiPUztZbjManNDGU3+bBUQOIDIkqEsQGZI2QAOk0ahNnTDCNkrYlXc1pfo2A6jCFQcQ1SYXkY9ixEku95N3rAGqTMpJATiVUNj2c/4ZjqtvYWZ/DDJ33Kafro4H7+kzZ708JMGfO3Mx/OAQc69Y1v9Enjbnz5uVK95HBo+FbbQ+diG6hDMqZkr4TD+ncfDQ5LMX3IwZIZWibVIS0yENbidMW7QtQWIvJcaQAvWEwCqh1wUbvqLvFVBJATP+LA6xV2euPMItyO2VySJBILhsyRHkeIdkxCQ8hSY0gKI/GMKtNWjZlPpC909JGJI68uxRx8qv34/OO/D27dSlFpKU+xx83P+ebDm3S52WfoU0NYJspfzqi8lQ+uoqf96IzJ0DGWZmvPMHLjHWU6bj5J5SxprcPNMMKqgVCzcLfZiZW8TJEKYXBqIIRc/Uki4P0BmnbX0ozr/6RQ1nYUH0/JUhIuTyhOPKkD3HPb9vWDFGRQHOt5Otwg0uUz2Exjz++PMzVnekPyan/447Nw2WUIaldX58jZNZxtWHqkUcfzQXR6mNOx2E0U6ZMznzCuugGL3Vez9BLjUQdk6ADuMpD6Yo/lrQNQADhPBIu4vscsvDo6iA1GGJMfrUVoEqeK6T5hsH0hP4oJUMEw5MhwrK8Wlk9w2JckqTJ89B824Rhhii/iik9DUoZXLvmmUbqoQ7jM4yEIrpFz4D6+PLHy94YErUC8/GE40/I1WLMTRNwh1LTtHQzBPB5MkCkQ4Ior+UMZsPVeSRU4+N5VXpru2T947M42kzbuYdH+Tz/P8o0a2bzu7T0AEPKQQoAxR9NuhlbR+5v4H0kH1ghTGWbv1UQSOzSB5IU3x2G90cYAGDmX3Jsjvh0GyYgB9UREWZH+gmQzskGmD992vQ834z/I240oYeacjenMpGGLDNlNYza8+scFdKot9MNl6RH12pTG2ykXLrf45580VE5QEaC7YBJT4adnb05Kt0MMwrieTBv1+4Y62aVs846Mxs6qVPO57PtICVjIkLNx7saoX1IDGBqfHtfeEZZJ72BM09wsF7u5Q0FkGmHOQ6eS+ujE9d+2/a7QwWKJfP04Z//vNx4ww0pLU3308vOX7IkGmFSWjZ0nk0boyzxXB7i8aQqs8XYjoEAdvWkjFdHoDKqZ13OiZLng1CVEDa32/PLn9KmCjgSyrYMQ28FyFFxlPXSrrBUbr31tvKNb3yjU5mDWjup0de3p5zxutPLBz/4gXLKKYubCnY8W4P9GmVvUfXOa6+9Nmd201sY0kDlrA0xftYe2aaqvEpJo3CJU1Kl7fdXKL7SaSurg1lEvSR9C48MeabxDVk5pgfDAddxV+qLL5TGbIgokvyZ/dXCATYWh3hvetOb8mwTx0VoXPfaltBQAJGPjdn/9m//lltFKMttwiedzSF+fjhBOWuaowKQvj17o2euyL2gGiEdQ+iAqfZmud2MGTPLFe96RxTol5rx7jAAUocVAFFxjEN62e5dfc343w+pPB2AP6LrReyY48Z7VkTtQWioBmgTZxt9w7ClnhpUmnWDVAI0AkArX1udBhB5afzqZRZ4iD/72c/m1oxaxwqQ4ZRNGvYO/dd//VdK9a7U7pDnrBdTIPUo0ErD7xojICLVAfd6o8y7FCCYMH5cFmD3nl2piNVeHnp2XkdCmGS7wi/8wi/kd8wCjjQLo4Hl0xt4MjUWqZBzM/GPx1ODYZxnDaCVu4bhEanD12GzmHql9JBXlIVzSuO6DzjSVUZ1qKEqiVVK0IfMM6lfe8tk6mFtvraofb/92cZ2ul/v8FIJ33ioe8EzKgCxq3NC9NBFJy4IQDSbnCodM1bvPSb9A0zL9evWRvzmOZBo5OEGhKlO6LFhClMNO/IDkmopMIVrsLPPkjq9Vwo1vvT4QXxn9rKUbJ4mZXJNR8QdKmg4s7bA4B1rPOSTYO0wHkAEcYECa+RvH43yG1aqM5DS6DAak4gaTjzvkXq1/oOROOrDctEZKb9tyYhq3XU0+fneplEZYpBKOgP0+uu/UZ4L5atWqF53xRAwffq08p4rr8xhxv3ewvfS8wof7wCCk3Gu/8b15W/+5m9SyRPPxix7Wa96/1VpIu7c1axiR4Y0zAAYK8tsE733nntDojTu8F//4AfzSPBGzFuP0WuSDky7otf/37/8v/lbcbzGAOzcsiuvfFfu2bGAmfQisXCCG35W3P/ZT39arrnu2jw7XvnVDTgMLXQQ6VRhVgFSedkf1TRcnSxt9R0JAmhVaiOf3aME00EynxaN2kG6GlvGrAQHyDZ1UUPjqrF5XDqBOHpozuJGlaP24g2f9DriUcWAo55qBKDIBvElF14QovqkMv/44zMAzKzZc0KkHlfmzJ1TVj21MvfZYBam2mNz1Qeujl51Ylo18+c7jXh4Qd5f++rXsteqyrx5c8tVV11dfvFtb8sfBJgXYnzusfPK3Mj/uPh+woIFIWn2lptuvjl/zZL0MRQaat73vvcluOqUAn0FuEcCDsMUgLBe8Mj7bYCIhx8UYPXuTXdUhhgF0HAKxPZXKD0dJQiCAIheyi5nzlES68qn4ZJ8MEH6dtU5IYe/oNrzq1auyt3/d9z+o1QeiXzB8GG9iM+TJ03Od4y/dAXWxz13310ee8TBc33GjUaB7SewDpptEs0MMHPZEgSdQpnUcf5x8/M3YwxV4kdxI35Tbt5LJu5XA1DXx3uGF+/gW7Uo0tvbocq7wcCB8EXAc24ADjKfmyEtytsKpKThheWSZeqhUQEIUgni+vTTTiuzwmIx/Z2u27jv6ruTfIg9Fsj2HR3Xez+FrOR5b6hjs8qTRHanU+wQryR39d9+4Qv50x9Wk9W1n7UBgensGOPtyosHqVRa7XXjjTfkECR+f/kKCfJoK8DygYXgtCPSiwKsbG9961tz3igV4iBNm8CK7xsDHNd/7evly1/+cuapTN6hc6gHR556uV/zGw6Jp46kWd2/XJV3wbMKIPVX9zoD30ujAhAFVCnBqcFVAao9HtWrQppk41b2GSPqs6FI3Eo+6wWOLrBqS8+tJO2//du/zZVdRG57FRciWs+/4IJcxCMdip3TEi2qGWqDUxTWf2nW+okR70hD3Uk16U6bJt0GHIikNBRed+1X8gcGmqOzGp5YyWVoYW5q1ErSpHsMh8SVlrIASB22KkAyrQjAl1MOEeTVHwBHTQdRABxRCIoYsVtFaLsg4mkQvQ6S20pSpjFMwhAA9L7hwvCwatXTja8hnnEzO/JSb58+dWqCqVJz9tf+8tBDD5cNMeR5Z/OWzWGmz8kjHPTqgag2mp8Bs/qLtcAx5ly2Sy+7LHSIt5eZs8NEjeEkKpS8eOThn5frvvrVPP/DXhqNh1nqf9XVV3V+D/fQHl15MVyesFh4TgGEJNEOdegBXmR4Yf057A9ApN2b/qgBBMms2XZYUvzyDmqsXoAgKCdl6i9cqkhvYfv7XoN0BZXX+CeGgrlz5448K23rtq1lQp4+uDaVUcc9WVrHimq8pM1UPMVy2fJlWRb5m67323NO+AF26edw0iLSgOl84w03lm9985s5LJEpDsh3SJ8h1okGgPTcc5vz9MMvX3NNuenGG5MfpJn6OiriQx/+UFpe1X9U6zYU1bj1s7KTmiSaKYUKCPdrBxXk46TnOiS3eVlpVAGCZKiAlD9HNkBzf0T0Ef8AQjFri8JK7c+9VOPWygMJES8dRz/qUQg47G8lfukBgAGYDnxx8sBPwtzcsvm5HFpIvBkzZ4Ru0/zyZr/+h/j6VJjK//TFL+auvTSNoyHeecU782dGpgUIgWbpY0sTQI7qZNKSmgLeONn5I7/5m7kmlvSrNJK6dxs1LmvXrc0fUKD8k8wVIOLgDSK1SA4TgKwkafSXx6gDBGGaglUp0h8pfBWFjj1o/AXDBwg65Hkwipi2JAAz9CQTaXUcNuRhIKkiX+5xPYn0WBaNCVDuW7tySoBWDzfV3ku8sCyXm266qZP23rJo0eI8rN859A7pvemmmwMY1+WPDTqam4VHgcYT55L+zu/8Tlos/CFpIcUfPrRpqLpXgCi/yUvno9VOASBVIosnf3oHBbpK7IHSf0EAonAaSU+yLHAwKaKCRJ+eZKl+rZTrUEyqJH6uqwiekRCWBJBKTGogkQcyT2TIcdAciYKUc9nSZXlKo88kn2GA0wqIalkqmQv653/+5+Zwlyi/NS5+G+bMM19f7rzzrvL/vvSlcsMN380jpOTLYUcSmc32AwPOkL/4kreExTc+FV3AqL28TUPVXblYR0z7W354S3qplR/vPUMVCL5z3zsXteoeA9GoA6T2WGJcYZp1loeuQK/kO3QD0IkLT0yR7133K9NqZdFAFavxK0MwynBj/y6xDhiu0tK79DTKpcPdOJRs7q4r0cURnzSoh88ZCpXLBm0mKr8J8Btu5OW47u/d/L00edU1T+3ZuyfE/d60aPz23cc+9rEMylXPIcuTBaK87Xr1fu+PgECQD3CoQ+W78nqG/4YbACQpLwsFWn3EqUNQfzRqrvY21UIqDJ+Hn+3k/1Bx99skjp5qfoW5SpogaQi9zBsJeV/jMmG5nkkOepF0qkkJoCyOmrZ3ONU05OtDKsyZPScbG6PTh3PPvXkVjwQR13S/uRj31K+exboolN3Lf/EXyweuvrqcHOlpNPl069GxiLrfR0AkHY+p893biimqABGHvuFceI4498R70QGi0TG+MtWOOJuH9Vw9pxbBVVz3uJrfEeaeeQjnfFnk7CimNvNGOgOMUd4nofRsQKE7mDchJZQxRa7IHa4oU83T/9Ko6YjvSmpIkwSYOHFSI50iTi4pCL3FOR/8Gr/y3veViy6+KIc970kn0+2kX6n3+1BEMrBagN7Q0qu/yEcZSTnORNP6VXrQDwejFwQgqDJaoSiHpIhrRbBKiFPR7PtJixclSM456+ysdPocOsyjzDkof7jMlK+0q1bvuzzM31Do/NoT5U4vc0xUuuMjDqq9T3yHzCin0MysRpB+6B5MZp5izyyKNiz5mQ8K6DnnnpvrUWt5E1ydd48EIMpI+cdPk6PSrUZBpcpbiqlJuYsvurh5ENm4Pxi9YABpk0bSey2r43vIBTZRUQocB1MllbRynfl3+qmnNesx435dWJxjdrI469r5NHKSNwDw6Bq/HwjAWDNrRZgdd8qLTXWVmQb0PX8FMz4bTqwDMaXvhwsXRO9cEkrtqTGMGCKZ0OMnNueyIXUQNByqzra6WGo4AJG/95WZv6OCG/jb4ECkGwlCKWa58G6jzMe/QfJ7UQCiYpRVK5zMkSASghaf1keHHJ6vEXj73hH6yOIwHzXC7riv2ClVjhQgUfs0LCM9jKKj2AbAHOcCB2DWT57hHg1Q13dgmsawxpReYr7FTK0ZWz8mlNsbIl4XFFnAzuf8P/jQAhzqrqaL70PVBQ/pTzfccEPXpO0PHAjASTJLGKw7Ze1UcFQaCCQvCkCq6LZyWwUNNSqskE7SqZTL9qLcgGDsvOyyy8spAZKxTMIAycRxR776SfVreTBYGQxf8SD+1bI0EkO8PAkoHzdOp/qOz+lljfI2K8biXovp6lHPX0UN0w9lfRsWPh389nwyrFBIrR+h8+Bff+BApJgfjmaqy1LcduIDgQMdDk+PmDBVMHxYqe24R4U2dLRZpsKCcZXov/XWH5bHVzyRjcRH4h1BY9VwOJT5pMu9oV5+VQAAqn2rFFl6iavxXl2SlIGjK0OUS20irZQeLTpYyoMPemWGd9v1y2snbeC45ZZbuvtmenWO2uD4BhxM2pytDqplqjQYONAL4igbiFSKAwsDiHErzLN1InSLnV8b5ZblwbNpQk7FDQUZzzuRhnhDVbiXavxD3iNBgnrTa3/v737eC32ikSSd5614h3wO8i1i518vAUKzZqWRDBX8T618Ki0vOgfHG+C0y1Q/u89aAg4OsTr5J50ar8YdjF4UCdImM6V8HuYEZtaFuR1m9JJKM4+/+93vlp898ECabRREony4FX5ZETZElaJmKQ0ef+Lx1NuAQ93Vl1TrlZw6E3BwEdA9uAzE7Y33sgCIQpMihpoloYwS16rR4c0hfQujAILmbkHPXXffVTZ01qC2x/tXAmk8Q4f5H3tqDSd+T5fPpja0q3i9DW3os0rOTK3V8P2Bo9JQIHlRlNQ21exJBxNnN9x4Y+54yyWCAZPqK8jP8VfFbR2e/L6tXnLiwoXZm+gx4lmTMVTlB6KRsERe/lXq71136CEZdwDK5ZDBA0BXD2SYsZ6X95kyij8kibq3hxZUeQJUwMGc9esXvleA1Pgj4cuLDpA2EY1MtxsDJIaSvj27c0pehVSpt2KVKXwPF190UTnrzLPS62oDEtHo2eHQSFjSX5l6aTgASYspACE95TaEWE9q2p6CzscxEMkTcLjR7Ve2ANksbXqFI73eMvWWeTB6SQEEVUnCifazBx/I9RuAU/WMNrHvLRp23895vDEkyQUXXpiLdSZEL2xbJiOhkbCkt0z9vTscgKBojKwTH5FZZj4irgB5AM1A5XKfI8xkpPkrvg7xa9l63+st82D0kgKIohCrPKQcVLfdfnu5/yf3p56R4lelO/FUUsHpLHqPLxxPJtVMZb+B0juj+a3ZkdJIWNKbfn/vkoIAMhhgvbdty5b0CdkmSXqkEh714wl1HUgiVnC87W1v6y50blNvmV62AKlUi+QY6ltuvTVXYJlMy22M8cdJhukU1l4CJKL1nLPOCaX3/PS1zJw1veurkLSdc2PHNr3yaNNBN19Tj172NutU/OpFI+GUd2dfX3ls6WPloZ89kMOJzqGRa5kHIpLVsEIHY86SnLXxBwPByx4gbdq8dUu54847y1133lXWrFkdTGl2gpEynFEY3CaVV6W9e/aVObPmlHPPO7ec+fozAyinlomTJgTj7Xu1R6Rxwok/EoYNRf0BpLLYnAvfjXJv27Ejh5QVq1bmJBtgbN64KaUhYPRnvrbJM3ywip85y9XvvZrfqwIgikZS2DPLvLNtwfpSP8uFgXrQQBTyoezd3fwYsslA2wlOXnxyOf2M03O3m59Qx9Aahss0zBouw2pjVRazVNTF2WO8odapLl22NFe2T5o0uewPcBguMm6AaLAyOYKr7knm1RXEH05zvmIAYi4G6enWgxDDFLdHH3m0bNq0sWvCNYzJqF0yFIWM6I7jqsl5xAN78smLywkLTshljdZqMJcrgwdjXs2ifa2x673u98hPI/tZ05zo27otvcU8oUDus2UFuc4l8nTiM+kC+HQOymqtXyVpKqdpe0sIgKN2lJFIw+HEqfTSliCd0KZ169bmrz/ee+89ZfVq55E1cxXWYhxSE18O+d7RN8Y0oLPMb+48+3PnpXjGdOM5N76rxqnSRa/OBm/xtSad97nFQ1JpKCcHcIHbUG67BSBYNmAl/cYNG7PxxQWlem5KbbB6OnSTZiNBqp7kas6KMkpyWGvyPPJ+JDUUAF7RANHwDsi3Wtw0N63fHA3ONCDpcvnQl1sAOVhl1+YzxdZWCXMWJAuguCeQPJF4WiLtJA1/lE5LAEgqZ5mSCpb8WYhkbapfALXoGXgMMRq6NnpvQ1WAIAARSAgSzmQbiWEBNgAP1myvWoColuLm/ZAcW7dsLY88+ki6oZcvfzwn8rqkWu2XWwDBICHTOtAs7K33KvNIDo1TrzLPfDvX+j1QkhKEcpkgiEZNlkYACEMFQEinP19Om9oAkZbhhBXGI2oPi+GRNKvSZSAa7Bka6nmbXn4SJO7Ue8HusofSt/7Z8kjoJUuXLitPP7069RMNlEsCKzMCIFnVChAtnI/aEsVrhyqWKNOIf3knrjlIefdglIjfXDswzHdyfkhane+9BAQZLwCUi6V270nLhPSyZhQwSAz7jKdOa35/FwFIlUKHQ/2VZSB6WQHkIDQOUlY1bpu7WfvsswGS5REeK089uSL1AENAs7+mYe6YYw42fsOn56fZS5WhVXq45vdOOm0WtpcNJghrnM47bWpLAqb3+AAAUBhOXOvWD0dHNBU9OvSqAkiXohp79zjvdHf+kNCqlU+X5SFRDEF+ONApQc1vpnTiJzU5DMWw0QIIhVU8SxVPXrS4nBnSgvJJGbVssflduyZ9YSQNOxiNJJ1XBEBUwSp0NSGGXQ+E+HYe6dpQYK0tfeTnj5VnYyjatGlDI1G6FsSRAySY2DxokXeGAohN4WcYRhxgE6CYPXNWo6vE8FHzJGWqpDmSYaVNNe3h0EsaICOhrET8V+uebRbKo+phsF9d4JzKbZUBmvUbmlOH65K9Or4nBXi6ja+h6TIdQLmfIf8wMELkk8+6ebNuolF93rc/JYXGdZiu479PWLggj8Qyb+RnSaZNnhLvyudgw/l08FuT5kga9mjRKwYgQ9G+vY1Jav7G5q0NG9fnwiPSxeype+Z7mKh9YXkAhDUlzg7xTm0c7MrJN38aLcCRsqLTwFzoDstlms4Ic9RZZMxnfpY58+bmGWl+tYFjDFF4U0JEfv4q9QLkxaJXDUB299kwZfOVoy93l0mTmn0qtgsAiCtwOPJhy7atjbMrzGaruZw9FtBoJEcXIATNmDxNkb7A/GSBTAylku+Er8LRWxYycfW7l+8EEFhXO0NXqicwt4FR6TWAvIBkLY5aatbsp8n9ptptyVDJgiP+i77dzclHnF5J0uh4bvV8b/ptFT/jBQBAAhhob0gFehAQNScYNaCSn6vtHekXGQAGWcTm44tKrxoJgrKRVDdbqmkslI3WYkPbpT4UpQ7S+dwfVedXW0mtym4vOI6OCnp06aVYplEjQEiRbrzvgKILmteoHyrl/wO7+FIrZ+K2WQAAAABJRU5ErkJggg==;" vertex="1" parent="1">
          <mxGeometry x="80.66" y="255" width="78.68" height="70" as="geometry" />
        </mxCell>
        <mxCell id="ZVRVcHzqKUU942DQ3SIE-5" value="" style="shape=image;verticalLabelPosition=bottom;labelBackgroundColor=default;verticalAlign=top;aspect=fixed;imageAspect=0;image=data:image/png,iVBORw0KGgoAAAANSUhEUgAAAIgAAAB5CAYAAADidGnuAAAAAXNSR0IArs4c6QAAAARnQU1BAACxjwv8YQUAAAAJcEhZcwAAFiUAABYlAUlSJPAAAABhaVRYdFNuaXBNZXRhZGF0YQAAAAAAeyJjbGlwUG9pbnRzIjpbeyJ4IjowLCJ5IjowfSx7IngiOjEzNiwieSI6MH0seyJ4IjoxMzYsInkiOjEyMn0seyJ4IjowLCJ5IjoxMjJ9XX3xSgAfAAA81klEQVR4Xu3defSeVXUv8BMyzyMEEkgYlTGAWkEEaqsiWm0Fq9au2lrnrnpv1+oft/3zrnXvXa1t/7pt12rtpLeTCCpqrZVBRUCZURkEkgAhISEhA5nzy3j3Zz/vefPk5Tcm+THvX06e932e85xhn+/ZZ+99hnfMgaDyGr1GA9Axnetr9Br1S69JkKNM+zvX/mhMJ7yc6FUpQbJPHOVuIblXYk97VUoQVT6wP6od3XnMmDFx8aHzsEP79+/vBuSdffv2NeAK8t4xx0T/iqtQvx/je1BlqvjuN/kcCqKXQ+981QKke41/+/bvK3v27Dkk9PX1lV27dpXdu3fnd9edO3fmfTRx4sQMY8ePK+PGjy+TJk3KMDnu+T5h/IR4Nr6MjzB2bABn7NguIEBFCV4DyEuUSIXa2ECwcePG8uyzz5bnnnsuw5YtW7pA2bt3b0oOoX5HTcOPLWNIjQCA7+PGjSslPs+YMaPMmTOnzJo1qxx33Pwyffq0Mm3a9DJt8uQyYUIAKOKlxMmUXtr0igFIrQbG12FB41Wx7ropGn/z5s1lawBg1apVZcOGDQmGvLd1a4IFaAChzRZp9ndF+w7sPyTunpBGJEtKkwDEzJkzy5QpU8rUqdPK/GOPLQsXLCjz5h2bIJoW9wHrEIqk9keaqJ0P6v3+QtArDiDI547mUHbt3FWeCwCsWb26PPHkE2XFiqfKtm3byvYAhGGDZKg0UAMM1jChzSQAK+0fpA2nBGCmB1BmzZ5djp8/vyw6aVE5ceHCMju+T5gwIYclSO6vSV4ssLyiAFKrQoI8F5Lh2WfXleWPP16WL1te1qxZE8PKjrIzpIQWHU8n6CiP7Xf7o6MFkMik7Nu7L0ahY1LCTJk8pcyNoejUU0/NsHjx4pQ6wNJbptcAMgQp5lBMIQ3oEE88/kR5+JGfl5WrVpZNmzaFyD5Qtm/bHoAY0+gNY0Jv6LxTq+86ECtGAhCfDwwQfX+Ub8K4Zkgx/O3t251gNtwIAHLG6WeUU049JfWX9vDzGkCGoFrMyhh6QmUgYGx6blNZumxZeejBh8pTK2MY2bqt7N6zO98Din3REJWljcGZHxqKpA/Ec40l1HcE36tiSrmsUgeJ12Vf3Mv7EegQ3kNp9nbiR+Tuu3nN95vPCbMwveksgPL617++nHzyyaHkHlcmhmLL0lKeNK1fQHpZDjG1yBhLj1i6dGm55557yqNLHytbQrdAx4SUaBpp6OqlT6STZk27DRakcar14V67DO3vDSzk2oABQFyFwcj7+2P4cZUPiXLKyaeUCy+8sJzxujPK1ClTm7w69UmfywsAlpcNQPbv239IL1LslStXlnvvvbc88MADZUOYqn0hMfBPw46J4WRcxB2qYVDG6HBBukI2buQjP0qka9e0bTU4K4jJXP0le0N6VGfZcPI+hAC1Q7UcdJJzzjmnXHbZZeWUU05pTOkXkF5WEkQDYBBz9Gc/+1m55ZZbyuqwTnzni4gWLeNjjN+5a2dKhQkTxg/ZSJ6PjzSnhXVxbJihwEDET58+vWuiAoXQbpzKNlflqn6V1c+sKWvXrk3w8q1s3779kLiD0Zh4DJTKBHDiU2Z9nzt3boLkvPPOS/1koHp5Z6g6j4ResgBRrEPc4ZgWSt2qp1eVu+66q/zkJz9Jc7VNbeWQ3jAuwMInsXff3my8VBJ5OqOhjevHHjuvnBy9cnGYm/NjrNcIGgQYkDxHyp49kdfeyEf+QMO8XvHUU+WJJ55ISwqYI9FG2sSQMn58o9eQerw2A+W5Z8/eAO2McvbZZ5dLLrkkrJ6TQ0KGDhaoGqqcnh8uvaQliKJRQDEPwx988MGUGg8//HA2fK+4rQDx3v4AV47X8Q9A+Bh4NInp0049rZx+xull3rx5aVJqsHFjx3WHj5rGSMm7VQfJYS6uUtkX+e+J8q9fvz4srMfLY6EzrX56dZrhQEL6TVAXxR0gX/HS+gowGXZ+5T2/Ut74pjekZ5YETPHToV5AvGIBAhQYTVTTM+688878DDR6ul7YpgoQVB1gPJizZs0sr3vd6wIUZ5QFJywoM2L4MHSoeFvNO1JWeL8CREO20673lZnpbRha8dSKsvSxpeXp1U+n3tK3M6RLPyRdzlWWWC3jvLnzyhve+IZy6aWXhuSbE/kdrPyrAyBRKmYql/jdd9+dQwrGVl0gmdYJGMCvsD+UWD1t7LixqfUfN/+4cuaZZ5XTTzutHH/CCWXatGkZZ3xIC6TR8DXe7jL+SMiQGHZIlid1ic59VFNnAjOpSQOOu3UB+KWPPZaW2IZn16f7H7gTYMc0Q90BZvM+KTRDUKYdBSf9zj333PKWiy8uJy06MTtNf/SKAUhtbGSs5vC64847Unrs2LHjkCHAlYRpGNkE34Fn4cKF5bzzl5TTAhgLFiwoUydPSTDUIUcK1dI42pQAkUMn+fzcocy/RSAUcCk7Q5EFlKeeXJFW2TPPPFN2bN8ZdQwZ1FPMbK74V+s7YeKErCe95Jxzzo7hZ9LzwP6KAQgypBDDj0Wvuu2228ry5csbxa6HVFpPcxUwjJJ55plnZli0eFFaImNDWqhiVjL45LNGGy0PQq+rfUCAtLkeZTJ87Nq+o6xes7o8+uij5aGHHi5rn1kXusuerFu7kbM+EZj+rvSxkxadVC6//PIAyVk5fLbpFQMQRenb1VeWLV9Wvv/975dly5al9cH/oJLAU8l30oKlwBzViy644IJy6imn5lByTAwzxuUxHTGd1OLTMaNU6+ECxHCkvg37XeP/ADwpabrApOJPfvLTHHrMNKMKlPqeUBvfM+b5RRddVM4//7zsHJVeMQDR2BhCcjzyyCMpSVRO5VEtqu/A4gocgPHGN76xnBB6RlolQXXKvI7jlbGVWYfPssHpIIQHpwp2+kWWRoOHRKj6FavnmWfWlodDkjzw4APlqTCV6xAKZ3QQVOtjvskz61Auv/yyctGbfyElSd/u3WHBHbqkYCSAedEBUivtSrSSHI+HKVh1jv6ogsZcxZvf/OZy9llnlxkzZ3SB1KYuIOLaBsho0XABEnDIhm6zfwy/T4d88gwfSJMf//jH2WlIVCY7r3KbDnSrNaaceOKC8ra3va1csGRJrmTD33atX1YAqdkDxc0335w+DmDRw3orUiWHIeSMMFl/6Zd+KZhxYg5B0ukPIJVGGxiVhgsQlCCpFB+jMbqfEV/O7o4UXbduXfnxj35cfvrTn+bEZHumFx0EiNf3l5MXn5wgWXLeeUckQUZLVxs2KSyfwI9+9KO0Viik7lXpoeEriOqwwqfx3ve+Ny0UQ4r4g4HjZUH9tBkeTJ48sUwKJXReKOC//Mu/nI1OGa/U1P1QSWtoXv748nLrbbeWJ59a0R3ODodedAliruKrX/1qAkRFqg5RUe4eRqk0O/8tb3lLeec735lSpIKoxq3ke61W77OXGrXZ39sUzy/7mDR/NfwNN93Y0dGqfrb3YEeK676Qwvh15llnZWc6acHCsjd4KcVeE38wHr1o3U5lKKVc55xgJEcqYB3ynFRgwpm4mjp1atr6V155ZU6oteO26aUOiOFSux4sHg5AYcrUyeWKd15RPvCBD4R0mZK82b//IDgQAIwN/uDpz3/+83LrD3+Y4Bgb9007jIReFICojIrRNyhfFDEad2+ji6eXAMcb3vCGtPOZb/X9Xmoz1eeXA1hqOXtDm5pV881alPSyhuB84xvflJJ0ZijnJvJ6qYKkL0Dy4EMPpcNxd0iVXPc6AnrBAaJxDRvmVG6//fa8UrgMLZ4JleqQc/755+ecA8mBgCY18x5GHi715ltpoPupRNYwGA31fIRkLeu4cc2wOmHCuHLRRW9ORd3iItSU9SBPEiQxDG/ZvDmtwydXPJkzzZVq/fqtY4decICwUDiCSA5eUhUABI2uoL67umcM5d+gnM2fP78rYQCqKqVHCpLKIPn1MkpvJd49awdzKTXkIp/Wa9LwXsY179KT5mBUpUdvQNLpqBtJ7k6ZMqlccMGScullby0Tg1e8sQ1fDjrTvO/+008/HVbQj8qGDesPphllH6p8L7iSyitosQ9Es14wspKCa3wgEiyOIUb5O1S8zbD+aLBnQ1EthzQqYw19wGySsEvBrZqLq0lCQJ4evXjq1Cll0uTJWfa2hKssPpLy9ZLSSm3v/n1ldTT+93/wg/IgK7CvrwFui+SvTJNjGKe/vD2kDt2u0mDlesEBUv0d1nYodC8BgsbiFaWQAgnQuFdBMhAdaQMABH8D4G7ZvCWn4fU8kq5LLYBUspzgpJNOSik3P8ptKOSf4eVt+yuONkCQFM16P/nkilT4H3jgZ8nXumkM7d69J2e4gXZBlO/Xr/5ATk1UK3AwekEAIgsNbAUYN7rhRc90r820Gs9CHgopq4WC6r4g7uECpL5fPyPfMdNCnieffDLnfngrrf6iG5Ec4lrJZjz3mQezMRPH5JVJGQ9SISRJpoQU4aQ6+5yzy+K4nnraqWXRokW5TLAOn0PVYzjU22iUdsrod77znbJy5VMJkLomd08AxDWlRuSPr+94xzuyTKgO1/3RCwIQjb43NO1HH3u03HDDDWXFihU5TveSouhxKsAhBCiDFb6XBmN6bZj6WaOveWZNeSiYyszmpDPfwfQGGmWuAA425zvKbDy3GRtAzKM0EgLQopeGeeGd3MwdjTElwL34lJNzrmjJkiW5doOTq91z22UarPyDkXdJlG0xfN/+4x+VH8TwvXnLllxpxk9iyLHcUvqCtbeksxXzpMqLDhCMtUH61ltvLXfccUc6x/ojjLPD7D3veU+KbIgfCdMGi6vRMcNchvUWtklY23rffffld8+xQtDodTjzfffOXeX4E44vM6aHtRD3qrK8PSTiumfX5Qx0znnoscc0pqgOQbqMnzghpSCvL4Ub+DWM4QfVMstnJHXtJY0o33Xrny3f/va3ywOh57FYKKL8H+308RVY3/Wud+VQPli+ow4QyWO+Wdr/+I//SOkxEPGOQjZvKfNWI42keINVlAiO/lPuufeeFMPAahip5fNuBRGgYnZNb1YooB/60IfT3HaHhEDPhr5y8/duLnffdXfZGmBpoofEiXKzykQ+EDfVowbTBEzTK6644hA9QDlqfrXOg9WnlxIgISkMgffde1/W0ZpXs8ITo7zqnvEibVLOhiwGAPdBpXYZKo39n0Gdz6NCMqR7EOEUU949jGpTZUii+op3NZIj/ur9SkMxrPd5DhEYE/9sj/jmt75Z/vVf/zX9L8pUhxGEYXq2vOtOf0Q8vztA+4lPfKK87owzyuKwqCigwqnRwFavmYXeuGFD00pB0jCsHD//+JQuO7fvKOMMP1EfEoeDkL4jHn1FuQGy6ihZb2m1qjNU3RGuGv5mBqBJt7Vr18U9HIi/eF/Ae53AUOpKsumY3XyD2nmNOkAQS4BZy0LAhHYBaqF5SPUsO967FNF64w5Gvc/ze/wDzH/4h38o//7v/54SjKQQSBUilkLMda032c9CF8E8z88666zyud//XK6Ct1uvShjX8SHlbL42vhuyWEFYbBf/L7/97eXDH/5wHvdgRpZS3tfXTERqCPkAih7PjDcMedauw0Cf+yNP8/34I32Bb2XUw9EWbRJH+avU1DFYXz4rV6bQymvUAULfMEVNGfS5itqsTAQ9B7OZs3QPNa3P2gVFvd97qfc5JlgJ/9d//dc5GUgPwjx5cu0byn7rt36rfPCDH8x1JdaD/ud//mfulhMPIz/+8Y+XK97xzjwtyKxp5tAqG/NxwYITUkIZRidOMne0JyfL3n/VVeXSyy7Nuslv/Yb1aTEhdVae+++/P9OiOFrsg3zvrUvv98FIXKa2Dgns9V5NwxUYSBH1JA2VjzStbVNpVACSor2TCQXwhz/8YTKGGagAVZQhvZSYviqYSXFrP+uldsH7o/ZzyqjV8MChdwOLXqWXMzvf//7357Dx1kvemqYpM/dLX/pSNrJ0gMj8zyd+9+NlTlhThppMPZ6186GUslboHT++48fRCWI4CWA5ZoJkWbLk/HLiopPyekboH4Yuuo/Ogk+uJBxQUsyBRPq9fBiq7m2Sh/iGDvwnvXpJO+CJeh5//PFpMXrnBQFIiq/469vdlwzXQBrskDG2Q3qS8VoPrs/bpLA1DEae09jJeCasySngYMLKowKEufmpT30qAannEPHbt24rP/je98v3v/e9PH1I2Z019od/+IflwgCJPUnu+dfJrPksKG6UefbsOdlbl4U+Yvvnluc2l83RMOede145IRqApMld+697fXYUjUaCZLnjfc44nUicWTNnpclclxWioerfptrIhm1DDOckHiCgrDz2GV8MM3jBevPM+5UGNoCPgFQuYNBdY+qqwLVw7cpSkmxObnscK42EKdI298F6uO/++1Ln4NIHOr2EdLr44ovLH/2PP0rzru5vlS8m6sX2pNhhx39AYb0oQDtUGdLHEGHW7FnlI7/xG5HPrCyDdEkT6VJUrUC3e/+0008rv/3bv11+93d/NzuF9JWRZCNpr7nmmpxU611SOFKqDe0YCXqW9OWVfOoEz3VcAAJOz/1lR+vQqAAE8mWmh8hcIZBCKxjKwkQwvFg+iCp4ahgJeVfDcMZdd9112TA1DeBgVv7+7/9+SIQLswej7ju2GTz8UDaihpkWPe+qq6/O6/7oYUNR9rjg6euiMXgoqyQ0bNBruOx5WnODeTB/5vQZ5epI/9Of/nSCVhlINx2JMs8dQLGv/Dgc8q6GJpHwV5lqR63ks7wpzPQVHQnp3JVGBSAKxr2rkrVQWeBOQIBijymEtxvscKgyw+bob33rW+nKV1kNZxxm73/0ox/N/TJNY1pxFcyI7Ji0hqFn1jyTjWh4ODsslwtj2MtGFR9Pu+Egg7O8vkeHUHL1+bVf+7UU2aTZrl07y+MxdDwWALQuIztHJx08sUXh937v91KSyGdy8GHjho3lO//5nXLbrbfmMJQTb4fBlspz6Z5++unpwTWc+J786gRDjzaiZNOH6rCWdQsaFYDIpG6bJNqSyR1ScEEDYiQzEimQ+yOhWgnXLVu3pKXygx/8oLuPhIb+9o65qRcZPgDJaxRJ7z0dZTQMKqdGjEKUd779Hc26z05jupchKN5u/jKdgy2Xj+M/IORQmzSxAf26tevK/ffel2sybOIyRwJ4iNSgCH/uc5/LKwlmfmfVyqfKt//j2+Wn9/8kO9pICR/xPCVWEOUXr+VXh5ZKJIt7AOJUpt52GB2ARAZQCSCslORehANxwVIMnjh5Ull44sI0r9qMHgnJR+X0DD4FJiprRJ6GNaAgPeg5eqPV4MLmzc+lo2x9iNV77r6nrIgxH9M0nPF60cmL03fB2bR5y9ZUNpvQKJ7dtDZtis+bytbNW/LZc5YFROe4IIax6TOmK2HZsWtH1zHWjRtgEfRYwHSkAx/QrBgKnQSASd4x6706pGLDtZFTbWg+FlMYVVLX+/iuoxpmDDHqVIeZSqPiatdgeiWv5TNrn8nFLLVQ3MGytEr7fb/6q+VNF77hEESPlORFwfr7v//7XPyM4UjPwHjeWaJfvC5F/pxe7pmzUFZbHMePn1DmzJ5d3nLJJanEYlYOVZ2yI8yKGjSfpRMgsBzQkMVTOmnSxPRg3nnHHVku8yDTQue44MILyqLQByjA3s9Z4CBlkIflBXd0fDXSxS/m+O987GPpH5oxa2beazdX5Wkv9Tap7wB67bXX5kx1e0ivaeqo7373u9M3hF9V0owKQOzmuummG8uNN92U4h5AKpNrj7fa+jdC63dwS7uirWMuhiTvAcT3wjz9q7/6q5RY7lUwYIRKqiIL4iA1PUfN+SoqC/Ia79MFXPVms6G1fJ1YGS9DfFMvpwUAvljmadKyieekGAB5f1yA6ECnmt7Dh/gvdAALpKzXCCsu3kmJqxwRAO+St15aPht6yjnnnpMSruYtzVqu4RDfyBe/+MXUz9rbMpF08Mlk4q9Gp83OEWXj2xmVIcbpw6tCQVWonNhS4Q75pKLG+BmhQEbp8l4NIyGMqmtMqgu9Mk+FNUIdbvbEtQaeTqQBcuY2pI0GdPqQ7ya4NFpKhbBqAEWwIlwewFalizjNdW+KaksADB+7YojNekcbgpL3xDN0ZXni6rvy0D32xD3v1jUmNk2ZEeaBtgho545IL6gCRBgu4YHFyry1JEWbalrKwoFHNch7nkUYFYBoNMcZaCDKIMPWpmZBppOnTC7Hzg9Nv6MxHy5hNDOaKx9Vh5hK1vFdaH8WduY9SmlfSjtE6aSk7oi4W7dvixDXHT4fDOq1bVt87lyb7xEivqv7G0IP2dG3K4/kFmq9DSuWAzJ9haZcO+LdSKeGSBO4NCgFE9CfCR3k7tCTLCtMyyuoiv/hkgZnOKQTrrNIqE2eS5MfiH4FLNnBosyjMsQ8tnxZuq3XB0j0TqK1inqNanKIJ3PJeUtyTG7TQLvuqzhN0RzkO0b/3d/9Xeblvt5vOp2Ti2JWpYgKx4cGnR1ybvu999zT3RTN52GtxkknnpgnA4jab0NgV/5rrsqhDvLQ88dNaNaSKFudg6qkXDy5rAl5qmsOSfGeoPwCi+Keu+7K46oig3JiWCF8Jhx8k6dNTTDzzA6XAEt8UvZrX/ta6lx0NGVX7goBLgEWn7kjFuDukKKjApBbb7+9XHPNl7MnGE40rcLISC/ViL/10Y/meeUY0KbBAKKoyVh6QfQITqi/+Iu/yEVIKmTY+uQnP1k+8pGPJEAOoWBqJTrC0kcfK3/6+c+X226/LX0flOb/9X/+d7n08su7oODLeB5AkKRabGuzkASaysUdFgHF+SvXXZd6mPKZ/9HQLCXvqEcyp0PuHYjhjz/nH//xn8r1118fUmdXeqZ/4zc/Uj7z2c+W2XObuRpUr0NRBYhh6pqvXJN6CP3M+/ipI8hbGe3CM7udjrvddKijTDLjk6i9L5lQKQphGKAkKUyLr4OSwkN6FbEq6571o+YwpKfCgFfR7/lAZKUVccrcRfaakGrSSZZ7N0L1dfSG+C9CxOs8b5OV4/QVE3jnn39BMjqlS/BDnnUirZtWm9yLy9xQ3JnoejTdAR+dtvTEE49nOsMFRpc60XUqFkqdl5G/tGp6ylmHmEpHDSC1spi6KUw1yOQYah+uhojQ2XPmNKuchlnPrIS/SMv7iJLnFCIr0D3HRB5Dq7QwYDAmepf7e/36DTkscF5xJnHJU0o11ND0/DhZjhTddsJNKAsWLuxKMsBQ1toA+JR5IUnFd3X0/qTJk8rZYZ6bt+Fw5P53RsgDDzzY7SQjIbzRPoYVm6zqECeg5G8E4KOomuzsDORHX4KoDK+hzJhJqDaWQjLr9AxiMx7k/UqDmbjAIZ0KRNPY9AeSQ0U1riMuZ8+a3RWbAxGLQ2/eGpIO84Bu/vHzO40ZeXTK1R/EuvfEiVCZm2WL24avbBDXuDct0tQwQMnxRjdhWqeXM18QOtIESCLu/r37y8IYhvhwJoY0JIXXrF5TVjz5ZNTt8DyrLCVXVkyVsL7X5/Uz6b9nX1hj8aeNjj5AiKlNz0XCkWl811Nkjg+esWAAJLjYPGsFjBqMMLk2PMdPexrbuM5bqDHcy6Etmd8JGNAJNjJvCb2ABSN+rgwLE9CmJ42bzIqQn3v+4sHBtEjH+jlCZXIl4vy4eceW8cHoSSFRNNLm4I29tN18WnU+kF+DF5Gu2WGr62YE8McEmDyzCn/blmYaIcvSrt9QFNHld3B4b9oFSVtdDkTYHhbgnmgn6ePNUQeIBmTySdxntn3WIQDAttd4CqhwVRoMlzBVkC4vZU4uRTrysp6BGUeCDSY9kOdMYaSXe5/0aIavTm+uZaufhxlqo7tKj2RLEMdtPg9bE0i4nITrj6QTRJJYxDN37rzkH55t3LipO8s7UlIeAUDaelFNKZ/HlWGhIyrH2Lhx1ABSCy1jGSSjKsWz/Isri8Ex2M3wM7KKakjpSt9YWSfl3DcZdWz01qGGF6SMOzoOIb0V6Eg1kiRPaMY4ZT6M0CaNSt/ihIMQ5Sa5lHEoXYJeNE+djp2X/HNKEDf8ylWrRsq2pAoQQzKA4BE+tBPznP4BJPXu0ZMgnRQTfUGVWemqjj//661gMy5Eps/uNXGawguDUX1O4cMspJIAwgHEupHD89LxtRVItd19famgGmcx39jMmkkHVYAmEhlZiHea92o+IZkivamRblXWeWiT+ZFvbo3Md5u4ldpAmx3DjAOApQPEdJjc7TdChLSBWwEi79rhKvnMAsMb5L2jJ0H8RYJd0SXxqFQFRQ3xIK5NoTx/XmMOQjUuLyTpUcGY5mD0VswjWYjhVatW5kH6wtOrni5Pr1xVVq1cmYFXkteTpKjl5cGkCFoXsjYU4LV+tWEkYY1312QaTVhdnl0XFkGUMfkQgZNQPqw82ySUVRz7a+qe4IPhmdSR1K3yqbrpj4TwCTCk2QDkUAhot9xw1WnLo+Yok5hM6Qaf//znsxEVRvIaQNCgdAUTQpYZVgVzuFQBYkr/z/7sz3JxkB7BdLOuxFyDfPVSnSyrHu8og3e93TB6d3FyIIcULyhl0tYDw0HG6+RzONRmpzrzJvNgkh4KpYx+KMgJybpMzYvJS0+r72s8+gvF9P777u/+uuanPv3p8gd/8AfJ6+FSTVNeAGqW3XJMkiRu5sRcMqwT5xOf/GQ595xzo0x7jw5AJAEgGlyv+PM///NUVAGkSpOjBRBp8X/86Z/+aU7SqWQVlcpgfM+4Uatu1TrXbkXjezI43iHhavky/Xh8+PBgqXZzyfToWq7yI2XrRuoMhqVOD66zyt0yezd7Om9nYxbTm3iK//iP/3hEAGE9qZR3AORf/uVfEiA6l6GurdiLAyBLAiDBzaM4xHQq1q18hEMqfJQICASitqatcr6381RR0iFD6BjA6LOrwCGV09kRANl+FmATx72RBo0ptPNs562kOUXQ4U2+F9/re73B8wQ8/0WAxPv5XWOqcysMxeF6qDC+pB8m+FWDt5NnGc//TdnQMccEL/LTERLRWEtZGTAapEKRelYA41XMcJJDSpDeIeSKr9BHNm7amJNyfjeXzkKqmSuh5KakUdZIC7j8vi7FFwNzhvYIA4WSGW5/jMVIzXKBxsLLMkZQNg47IX/0uZW3odJMOPAqYwU98DTNOXxKAGijIDwEtEqedT7k5/wZ+U77+YWJozLEEGHElEbD4D/5kz/JBlGZBqVNwY50iJEGJtFBDGOWGNI/pGnVldlYYEkpw5Tcc3DHvlDFPwB9/WtfK/fce29aMEzk977vfVkmjKplHgn1dgq9XkPfduttORT6zNdijexbLnlLfJ6WACDJKqVk6aSDd+i7N95Qvh31tPRAHT7z6c+U//YH/z33+g5EUmiXBk/SKxqNTx+y6t8cVpVsIlf+KOMnPv6JnNfKeaN4cNQAIkOMABCNAP0VrRUgCwEkGoMbuUqB4ZK4AEK5NIv79a9/PcdRa07Nkn7oQx/qptd129eGa3Fs/bPry1/95V+W6669NhU0G5sofu+68spcK3u0JCAF9Z/+4R/LNV/5Sm7IAsTPfOYz5deuuqpZs6qMNSufo+xdfkQZNm7cUL7whS/k+7t2Nz9q8OnPfjbTGAlA0jEX6QKdzgUggIKXQJFDWCdvnttPhQ5yaijS23fuOPIhJivUKQ0xBiS8dQCRmbpPEYsKjRk7LhStEOXPbUnFa6SkQoglYO8pwMkDGJmJPtfG7bA5mZ6BhRBAFsSo4BWdVUPE5yqwiGfF2OGGmodg2FoTJjMPqmFi/ITxuWotJzA7Ir9hUPMRKX+G+AzIlP5KpgL83n9oMp07wyN8y7aIYHgj3et3ZXFF8nXwTVo3QdOmTD16SqrEZQSlzDOkAdqZ2/ysUbdv35YSZ1/n2XCpmoHysPaDj0C6wEjnqJ5VeXRnSvuhLGMMTabmkbkR76cuo3GCodlIhxHaJD0+DwDkc+FBdq5pbr8You6eAz79BJECFlRznPXmMxRJK0qX19SLoiPUztZbjManNDGU3+bBUQOIDIkqEsQGZI2QAOk0ahNnTDCNkrYlXc1pfo2A6jCFQcQ1SYXkY9ixEku95N3rAGqTMpJATiVUNj2c/4ZjqtvYWZ/DDJ33Kafro4H7+kzZ708JMGfO3Mx/OAQc69Y1v9Enjbnz5uVK95HBo+FbbQ+diG6hDMqZkr4TD+ncfDQ5LMX3IwZIZWibVIS0yENbidMW7QtQWIvJcaQAvWEwCqh1wUbvqLvFVBJATP+LA6xV2euPMItyO2VySJBILhsyRHkeIdkxCQ8hSY0gKI/GMKtNWjZlPpC909JGJI68uxRx8qv34/OO/D27dSlFpKU+xx83P+ebDm3S52WfoU0NYJspfzqi8lQ+uoqf96IzJ0DGWZmvPMHLjHWU6bj5J5SxprcPNMMKqgVCzcLfZiZW8TJEKYXBqIIRc/Uki4P0BmnbX0ozr/6RQ1nYUH0/JUhIuTyhOPKkD3HPb9vWDFGRQHOt5Otwg0uUz2Exjz++PMzVnekPyan/447Nw2WUIaldX58jZNZxtWHqkUcfzQXR6mNOx2E0U6ZMznzCuugGL3Vez9BLjUQdk6ADuMpD6Yo/lrQNQADhPBIu4vscsvDo6iA1GGJMfrUVoEqeK6T5hsH0hP4oJUMEw5MhwrK8Wlk9w2JckqTJ89B824Rhhii/iik9DUoZXLvmmUbqoQ7jM4yEIrpFz4D6+PLHy94YErUC8/GE40/I1WLMTRNwh1LTtHQzBPB5MkCkQ4Ior+UMZsPVeSRU4+N5VXpru2T947M42kzbuYdH+Tz/P8o0a2bzu7T0AEPKQQoAxR9NuhlbR+5v4H0kH1ghTGWbv1UQSOzSB5IU3x2G90cYAGDmX3Jsjvh0GyYgB9UREWZH+gmQzskGmD992vQ834z/I240oYeacjenMpGGLDNlNYza8+scFdKot9MNl6RH12pTG2ykXLrf45580VE5QEaC7YBJT4adnb05Kt0MMwrieTBv1+4Y62aVs846Mxs6qVPO57PtICVjIkLNx7saoX1IDGBqfHtfeEZZJ72BM09wsF7u5Q0FkGmHOQ6eS+ujE9d+2/a7QwWKJfP04Z//vNx4ww0pLU3308vOX7IkGmFSWjZ0nk0boyzxXB7i8aQqs8XYjoEAdvWkjFdHoDKqZ13OiZLng1CVEDa32/PLn9KmCjgSyrYMQ28FyFFxlPXSrrBUbr31tvKNb3yjU5mDWjup0de3p5zxutPLBz/4gXLKKYubCnY8W4P9GmVvUfXOa6+9Nmd201sY0kDlrA0xftYe2aaqvEpJo3CJU1Kl7fdXKL7SaSurg1lEvSR9C48MeabxDVk5pgfDAddxV+qLL5TGbIgokvyZ/dXCATYWh3hvetOb8mwTx0VoXPfaltBQAJGPjdn/9m//lltFKMttwiedzSF+fjhBOWuaowKQvj17o2euyL2gGiEdQ+iAqfZmud2MGTPLFe96RxTol5rx7jAAUocVAFFxjEN62e5dfc343w+pPB2AP6LrReyY48Z7VkTtQWioBmgTZxt9w7ClnhpUmnWDVAI0AkArX1udBhB5afzqZRZ4iD/72c/m1oxaxwqQ4ZRNGvYO/dd//VdK9a7U7pDnrBdTIPUo0ErD7xojICLVAfd6o8y7FCCYMH5cFmD3nl2piNVeHnp2XkdCmGS7wi/8wi/kd8wCjjQLo4Hl0xt4MjUWqZBzM/GPx1ODYZxnDaCVu4bhEanD12GzmHql9JBXlIVzSuO6DzjSVUZ1qKEqiVVK0IfMM6lfe8tk6mFtvraofb/92cZ2ul/v8FIJ33ioe8EzKgCxq3NC9NBFJy4IQDSbnCodM1bvPSb9A0zL9evWRvzmOZBo5OEGhKlO6LFhClMNO/IDkmopMIVrsLPPkjq9Vwo1vvT4QXxn9rKUbJ4mZXJNR8QdKmg4s7bA4B1rPOSTYO0wHkAEcYECa+RvH43yG1aqM5DS6DAak4gaTjzvkXq1/oOROOrDctEZKb9tyYhq3XU0+fneplEZYpBKOgP0+uu/UZ4L5atWqF53xRAwffq08p4rr8xhxv3ewvfS8wof7wCCk3Gu/8b15W/+5m9SyRPPxix7Wa96/1VpIu7c1axiR4Y0zAAYK8tsE733nntDojTu8F//4AfzSPBGzFuP0WuSDky7otf/37/8v/lbcbzGAOzcsiuvfFfu2bGAmfQisXCCG35W3P/ZT39arrnu2jw7XvnVDTgMLXQQ6VRhVgFSedkf1TRcnSxt9R0JAmhVaiOf3aME00EynxaN2kG6GlvGrAQHyDZ1UUPjqrF5XDqBOHpozuJGlaP24g2f9DriUcWAo55qBKDIBvElF14QovqkMv/44zMAzKzZc0KkHlfmzJ1TVj21MvfZYBam2mNz1Qeujl51Ylo18+c7jXh4Qd5f++rXsteqyrx5c8tVV11dfvFtb8sfBJgXYnzusfPK3Mj/uPh+woIFIWn2lptuvjl/zZL0MRQaat73vvcluOqUAn0FuEcCDsMUgLBe8Mj7bYCIhx8UYPXuTXdUhhgF0HAKxPZXKD0dJQiCAIheyi5nzlES68qn4ZJ8MEH6dtU5IYe/oNrzq1auyt3/d9z+o1QeiXzB8GG9iM+TJ03Od4y/dAXWxz13310ee8TBc33GjUaB7SewDpptEs0MMHPZEgSdQpnUcf5x8/M3YwxV4kdxI35Tbt5LJu5XA1DXx3uGF+/gW7Uo0tvbocq7wcCB8EXAc24ADjKfmyEtytsKpKThheWSZeqhUQEIUgni+vTTTiuzwmIx/Z2u27jv6ruTfIg9Fsj2HR3Xez+FrOR5b6hjs8qTRHanU+wQryR39d9+4Qv50x9Wk9W1n7UBgensGOPtyosHqVRa7XXjjTfkECR+f/kKCfJoK8DygYXgtCPSiwKsbG9961tz3igV4iBNm8CK7xsDHNd/7evly1/+cuapTN6hc6gHR556uV/zGw6Jp46kWd2/XJV3wbMKIPVX9zoD30ujAhAFVCnBqcFVAao9HtWrQppk41b2GSPqs6FI3Eo+6wWOLrBqS8+tJO2//du/zZVdRG57FRciWs+/4IJcxCMdip3TEi2qGWqDUxTWf2nW+okR70hD3Uk16U6bJt0GHIikNBRed+1X8gcGmqOzGp5YyWVoYW5q1ErSpHsMh8SVlrIASB22KkAyrQjAl1MOEeTVHwBHTQdRABxRCIoYsVtFaLsg4mkQvQ6S20pSpjFMwhAA9L7hwvCwatXTja8hnnEzO/JSb58+dWqCqVJz9tf+8tBDD5cNMeR5Z/OWzWGmz8kjHPTqgag2mp8Bs/qLtcAx5ly2Sy+7LHSIt5eZs8NEjeEkKpS8eOThn5frvvrVPP/DXhqNh1nqf9XVV3V+D/fQHl15MVyesFh4TgGEJNEOdegBXmR4Yf057A9ApN2b/qgBBMms2XZYUvzyDmqsXoAgKCdl6i9cqkhvYfv7XoN0BZXX+CeGgrlz5448K23rtq1lQp4+uDaVUcc9WVrHimq8pM1UPMVy2fJlWRb5m67323NO+AF26edw0iLSgOl84w03lm9985s5LJEpDsh3SJ8h1okGgPTcc5vz9MMvX3NNuenGG5MfpJn6OiriQx/+UFpe1X9U6zYU1bj1s7KTmiSaKYUKCPdrBxXk46TnOiS3eVlpVAGCZKiAlD9HNkBzf0T0Ef8AQjFri8JK7c+9VOPWygMJES8dRz/qUQg47G8lfukBgAGYDnxx8sBPwtzcsvm5HFpIvBkzZ4Ru0/zyZr/+h/j6VJjK//TFL+auvTSNoyHeecU782dGpgUIgWbpY0sTQI7qZNKSmgLeONn5I7/5m7kmlvSrNJK6dxs1LmvXrc0fUKD8k8wVIOLgDSK1SA4TgKwkafSXx6gDBGGaglUp0h8pfBWFjj1o/AXDBwg65Hkwipi2JAAz9CQTaXUcNuRhIKkiX+5xPYn0WBaNCVDuW7tySoBWDzfV3ku8sCyXm266qZP23rJo0eI8rN859A7pvemmmwMY1+WPDTqam4VHgcYT55L+zu/8Tlos/CFpIcUfPrRpqLpXgCi/yUvno9VOASBVIosnf3oHBbpK7IHSf0EAonAaSU+yLHAwKaKCRJ+eZKl+rZTrUEyqJH6uqwiekRCWBJBKTGogkQcyT2TIcdAciYKUc9nSZXlKo88kn2GA0wqIalkqmQv653/+5+Zwlyi/NS5+G+bMM19f7rzzrvL/vvSlcsMN380jpOTLYUcSmc32AwPOkL/4kreExTc+FV3AqL28TUPVXblYR0z7W354S3qplR/vPUMVCL5z3zsXteoeA9GoA6T2WGJcYZp1loeuQK/kO3QD0IkLT0yR7133K9NqZdFAFavxK0MwynBj/y6xDhiu0tK79DTKpcPdOJRs7q4r0cURnzSoh88ZCpXLBm0mKr8J8Btu5OW47u/d/L00edU1T+3ZuyfE/d60aPz23cc+9rEMylXPIcuTBaK87Xr1fu+PgECQD3CoQ+W78nqG/4YbACQpLwsFWn3EqUNQfzRqrvY21UIqDJ+Hn+3k/1Bx99skjp5qfoW5SpogaQi9zBsJeV/jMmG5nkkOepF0qkkJoCyOmrZ3ONU05OtDKsyZPScbG6PTh3PPvXkVjwQR13S/uRj31K+exboolN3Lf/EXyweuvrqcHOlpNPl069GxiLrfR0AkHY+p893biimqABGHvuFceI4498R70QGi0TG+MtWOOJuH9Vw9pxbBVVz3uJrfEeaeeQjnfFnk7CimNvNGOgOMUd4nofRsQKE7mDchJZQxRa7IHa4oU83T/9Ko6YjvSmpIkwSYOHFSI50iTi4pCL3FOR/8Gr/y3veViy6+KIc970kn0+2kX6n3+1BEMrBagN7Q0qu/yEcZSTnORNP6VXrQDwejFwQgqDJaoSiHpIhrRbBKiFPR7PtJixclSM456+ysdPocOsyjzDkof7jMlK+0q1bvuzzM31Do/NoT5U4vc0xUuuMjDqq9T3yHzCin0MysRpB+6B5MZp5izyyKNiz5mQ8K6DnnnpvrUWt5E1ydd48EIMpI+cdPk6PSrUZBpcpbiqlJuYsvurh5ENm4Pxi9YABpk0bSey2r43vIBTZRUQocB1MllbRynfl3+qmnNesx435dWJxjdrI469r5NHKSNwDw6Bq/HwjAWDNrRZgdd8qLTXWVmQb0PX8FMz4bTqwDMaXvhwsXRO9cEkrtqTGMGCKZ0OMnNueyIXUQNByqzra6WGo4AJG/95WZv6OCG/jb4ECkGwlCKWa58G6jzMe/QfJ7UQCiYpRVK5zMkSASghaf1keHHJ6vEXj73hH6yOIwHzXC7riv2ClVjhQgUfs0LCM9jKKj2AbAHOcCB2DWT57hHg1Q13dgmsawxpReYr7FTK0ZWz8mlNsbIl4XFFnAzuf8P/jQAhzqrqaL70PVBQ/pTzfccEPXpO0PHAjASTJLGKw7Ze1UcFQaCCQvCkCq6LZyWwUNNSqskE7SqZTL9qLcgGDsvOyyy8spAZKxTMIAycRxR776SfVreTBYGQxf8SD+1bI0EkO8PAkoHzdOp/qOz+lljfI2K8biXovp6lHPX0UN0w9lfRsWPh389nwyrFBIrR+h8+Bff+BApJgfjmaqy1LcduIDgQMdDk+PmDBVMHxYqe24R4U2dLRZpsKCcZXov/XWH5bHVzyRjcRH4h1BY9VwOJT5pMu9oV5+VQAAqn2rFFl6iavxXl2SlIGjK0OUS20irZQeLTpYyoMPemWGd9v1y2snbeC45ZZbuvtmenWO2uD4BhxM2pytDqplqjQYONAL4igbiFSKAwsDiHErzLN1InSLnV8b5ZblwbNpQk7FDQUZzzuRhnhDVbiXavxD3iNBgnrTa3/v737eC32ikSSd5614h3wO8i1i518vAUKzZqWRDBX8T618Ki0vOgfHG+C0y1Q/u89aAg4OsTr5J50ar8YdjF4UCdImM6V8HuYEZtaFuR1m9JJKM4+/+93vlp898ECabRREony4FX5ZETZElaJmKQ0ef+Lx1NuAQ93Vl1TrlZw6E3BwEdA9uAzE7Y33sgCIQpMihpoloYwS16rR4c0hfQujAILmbkHPXXffVTZ01qC2x/tXAmk8Q4f5H3tqDSd+T5fPpja0q3i9DW3os0rOTK3V8P2Bo9JQIHlRlNQ21exJBxNnN9x4Y+54yyWCAZPqK8jP8VfFbR2e/L6tXnLiwoXZm+gx4lmTMVTlB6KRsERe/lXq71136CEZdwDK5ZDBA0BXD2SYsZ6X95kyij8kibq3hxZUeQJUwMGc9esXvleA1Pgj4cuLDpA2EY1MtxsDJIaSvj27c0pehVSpt2KVKXwPF190UTnrzLPS62oDEtHo2eHQSFjSX5l6aTgASYspACE95TaEWE9q2p6CzscxEMkTcLjR7Ve2ANksbXqFI73eMvWWeTB6SQEEVUnCifazBx/I9RuAU/WMNrHvLRp23895vDEkyQUXXpiLdSZEL2xbJiOhkbCkt0z9vTscgKBojKwTH5FZZj4irgB5AM1A5XKfI8xkpPkrvg7xa9l63+st82D0kgKIohCrPKQcVLfdfnu5/yf3p56R4lelO/FUUsHpLHqPLxxPJtVMZb+B0juj+a3ZkdJIWNKbfn/vkoIAMhhgvbdty5b0CdkmSXqkEh714wl1HUgiVnC87W1v6y50blNvmV62AKlUi+QY6ltuvTVXYJlMy22M8cdJhukU1l4CJKL1nLPOCaX3/PS1zJw1veurkLSdc2PHNr3yaNNBN19Tj172NutU/OpFI+GUd2dfX3ls6WPloZ89kMOJzqGRa5kHIpLVsEIHY86SnLXxBwPByx4gbdq8dUu54847y1133lXWrFkdTGl2gpEynFEY3CaVV6W9e/aVObPmlHPPO7ec+fozAyinlomTJgTj7Xu1R6Rxwok/EoYNRf0BpLLYnAvfjXJv27Ejh5QVq1bmJBtgbN64KaUhYPRnvrbJM3ywip85y9XvvZrfqwIgikZS2DPLvLNtwfpSP8uFgXrQQBTyoezd3fwYsslA2wlOXnxyOf2M03O3m59Qx9Aahss0zBouw2pjVRazVNTF2WO8odapLl22NFe2T5o0uewPcBguMm6AaLAyOYKr7knm1RXEH05zvmIAYi4G6enWgxDDFLdHH3m0bNq0sWvCNYzJqF0yFIWM6I7jqsl5xAN78smLywkLTshljdZqMJcrgwdjXs2ifa2x673u98hPI/tZ05zo27otvcU8oUDus2UFuc4l8nTiM+kC+HQOymqtXyVpKqdpe0sIgKN2lJFIw+HEqfTSliCd0KZ169bmrz/ee+89ZfVq55E1cxXWYhxSE18O+d7RN8Y0oLPMb+48+3PnpXjGdOM5N76rxqnSRa/OBm/xtSad97nFQ1JpKCcHcIHbUG67BSBYNmAl/cYNG7PxxQWlem5KbbB6OnSTZiNBqp7kas6KMkpyWGvyPPJ+JDUUAF7RANHwDsi3Wtw0N63fHA3ONCDpcvnQl1sAOVhl1+YzxdZWCXMWJAuguCeQPJF4WiLtJA1/lE5LAEgqZ5mSCpb8WYhkbapfALXoGXgMMRq6NnpvQ1WAIAARSAgSzmQbiWEBNgAP1myvWoColuLm/ZAcW7dsLY88+ki6oZcvfzwn8rqkWu2XWwDBICHTOtAs7K33KvNIDo1TrzLPfDvX+j1QkhKEcpkgiEZNlkYACEMFQEinP19Om9oAkZbhhBXGI2oPi+GRNKvSZSAa7Bka6nmbXn4SJO7Ue8HusofSt/7Z8kjoJUuXLitPP7069RMNlEsCKzMCIFnVChAtnI/aEsVrhyqWKNOIf3knrjlIefdglIjfXDswzHdyfkhane+9BAQZLwCUi6V270nLhPSyZhQwSAz7jKdOa35/FwFIlUKHQ/2VZSB6WQHkIDQOUlY1bpu7WfvsswGS5REeK089uSL1AENAs7+mYe6YYw42fsOn56fZS5WhVXq45vdOOm0WtpcNJghrnM47bWpLAqb3+AAAUBhOXOvWD0dHNBU9OvSqAkiXohp79zjvdHf+kNCqlU+X5SFRDEF+ONApQc1vpnTiJzU5DMWw0QIIhVU8SxVPXrS4nBnSgvJJGbVssflduyZ9YSQNOxiNJJ1XBEBUwSp0NSGGXQ+E+HYe6dpQYK0tfeTnj5VnYyjatGlDI1G6FsSRAySY2DxokXeGAohN4WcYRhxgE6CYPXNWo6vE8FHzJGWqpDmSYaVNNe3h0EsaICOhrET8V+uebRbKo+phsF9d4JzKbZUBmvUbmlOH65K9Or4nBXi6ja+h6TIdQLmfIf8wMELkk8+6ebNuolF93rc/JYXGdZiu479PWLggj8Qyb+RnSaZNnhLvyudgw/l08FuT5kga9mjRKwYgQ9G+vY1Jav7G5q0NG9fnwiPSxeype+Z7mKh9YXkAhDUlzg7xTm0c7MrJN38aLcCRsqLTwFzoDstlms4Ic9RZZMxnfpY58+bmGWl+tYFjDFF4U0JEfv4q9QLkxaJXDUB299kwZfOVoy93l0mTmn0qtgsAiCtwOPJhy7atjbMrzGaruZw9FtBoJEcXIATNmDxNkb7A/GSBTAylku+Er8LRWxYycfW7l+8EEFhXO0NXqicwt4FR6TWAvIBkLY5aatbsp8n9ptptyVDJgiP+i77dzclHnF5J0uh4bvV8b/ptFT/jBQBAAhhob0gFehAQNScYNaCSn6vtHekXGQAGWcTm44tKrxoJgrKRVDdbqmkslI3WYkPbpT4UpQ7S+dwfVedXW0mtym4vOI6OCnp06aVYplEjQEiRbrzvgKILmteoHyrl/wO7+FIrZ+K2WQAAAABJRU5ErkJggg==;" vertex="1" parent="1">
          <mxGeometry x="80.66" y="335" width="78.68" height="70" as="geometry" />
        </mxCell>
        <mxCell id="ZVRVcHzqKUU942DQ3SIE-7" value="&lt;font style=&quot;font-size: 18px;&quot;&gt;Load&lt;/font&gt;&lt;div style=&quot;font-size: 18px;&quot;&gt;&lt;font style=&quot;font-size: 18px;&quot;&gt;balancer&lt;/font&gt;&lt;/div&gt;" style="shape=hexagon;perimeter=hexagonPerimeter2;whiteSpace=wrap;html=1;fixedSize=1;fillColor=#d5e8d4;strokeColor=#82b366;rotation=0;direction=north;" vertex="1" parent="1">
          <mxGeometry x="240" y="220" width="80" height="90" as="geometry" />
        </mxCell>
        <mxCell id="ZVRVcHzqKUU942DQ3SIE-12" value="" style="shape=image;verticalLabelPosition=bottom;labelBackgroundColor=default;verticalAlign=top;aspect=fixed;imageAspect=0;image=data:image/png,iVBORw0KGgoAAAANSUhEUgAAAG8AAACFCAYAAABVGqaEAAAAAXNSR0IArs4c6QAAAARnQU1BAACxjwv8YQUAAAAJcEhZcwAAFiUAABYlAUlSJPAAAABhaVRYdFNuaXBNZXRhZGF0YQAAAAAAeyJjbGlwUG9pbnRzIjpbeyJ4IjowLCJ5IjowfSx7IngiOjExMSwieSI6MH0seyJ4IjoxMTEsInkiOjEzNH0seyJ4IjowLCJ5IjoxMzR9XX16O9bUAAAZ20lEQVR4Xu2dZ5AU1RbHD5uXIGIWEER2UZKKgJJEBVRMZallKAUUUbQsLbX8pH5RP5mLUl/5qkylllWG0jLwzAFQQQmCYAADqCBKEgMsLBt493dmzni3ndAzO7Mzg/PXQ4fp7nvP+Z9zbuje7k7bt2/fLSUUJcqiyxKKECXyihgl8ooYJfKKGCXy8oBOrouYSNJBibwiRom8IkaJvCJGwQ3SW1tbpaysTCorK6W8vFx2794t27Ztk59++kl+/PFH2bFjR/TI4kGmEdLJ2WGv7t1lwIABsv/+++s+7GEoyBkWKlhbWyuubkrYe++9J2+++aZs3LhRWlpalOBiQqbkQUx5RYWcdNJJMnPmTDnkkEMiP0RRkOTt2rVLI2zOnDny+uuvy5dffil//fVXLCo7deoUPbLwQU3T7UUaOK3V/VtXVydXX321kkhGsujLG3mxCjgiELYhh2j77rvv5KWXXpKPP/5YtmzZotFWU1OjxJFK7byigNML8tDPdGWfW9F96KbbHKr/RnRT+7hlc2uL9OrVS2bMmCGnnXaaVFdX6zl6rXyQR8Wampp0nfRY4VLD77//rimSaHvrrbdk06ZN0tjYqMfxe48ePeSggw6SvffeW72vmLC7pVUNjh5VTnY7J2102YVmYP369dLS3CytziaNOxulrKJcKpx+HK92ammWQw89VC6//HI5/bTTpbKqUm2SF/LM24gilGF77dq18sknnyhxy5Yt05RJhHFMVVWV5voxY8aoHHjggXpeMaG8UyTVkytane5bf9uqTcHcuXNk+fLl0uzIa3EE0zTUdK6VGufQELzNZSHSppF3xhlnqOPi1HmLPEgBRNdXX30lb7/9tpK3c+dOVYCKQRo9rGHDhsnEiRPl6KOPln322Sd2bjHB2rwtWzbLmu/XyKdOV/T94YcfZMfOHY7QVtez7CTVVdVSN6BeDu13qKxauUq+/e5b2eWINfLOPPNMddwOJ08Li8qOhh2yctVK+fDDD+Wjjz5SJRgOkEKJRJZDhw6V448/XkaPHi29e/fWNo+IxUs5plBgOlEn2myW5c7Bdre6OjpCysvK5a8//9QmYfHiRbJg/gJZtWqV/On20ciRYSCurn+dDBo8KNKu1dbIo48+qpmozP0OedOnT1fyOiTyVAlXMAZHIKRpV5OsXrPaKbFYiSPqUIKK0MOEoP79+8txxx0n48aNk4EDB+o+fi9kkA0iqa9FOxREGvt2uqjatGmzzJs3Tz52Trrqm1Uus2xT43NshWvfDtj/ABkydIhMmDBBjjzySOnZs5f8tG6t3H///UoeusdLm1w/Z+RRqHXtAR2SpUuXyjvvvKPLrVu3asPLMaQC2jJS5KRJk1SJzp07x3qWtixU4KiQh644KR2QzZu3yOJFi2T+/Pny6aefamahLeeYMmebbnvtJfX19TJ2LG35WOl58MGq824XhfS2Z82apb1t7NPh5BFJ3bp1kz/++EO++eYb1zjP1cqQIi3tUQmOoT3D80aNGqXt2l7d9pLtDa6xjhJrDlCoIIowKnWlzf586bJItDl9f/31V2loaJBK91uTI7WmploG1A+QMY60448fr5mmS5cu2kGpdO08vUs6cETeBx98kDDy2J8V8izfA6IEwcuo+CLnfW+88YZ8++23WijRhpeSDulF0qZRKdo1VcJdq8z1zlp3R9oP9TBX0UKD1QviWKez9f3336vB5zqBAJd/VNcm58jYh2muY445Rsa6JoFUue8++7prMCXoKEDXcuek7lo///yz3HPPPfLuu++qQwTJIzBA1iKPykEaSxShXWO8Rq+Kdo0C+Z3K7LfffjJy5Eg54YQTtGPC2C1RdKmHFRh5OJXpAsgmZBaI+/rrr6Wlqdk56k5n6Cq1R3eXIkc4fU868UQZPnx4RF9HVEVFpfs9Mp4zVFXXyI8//Sh33323Tgv65NGZoRdOAHBO1sjD+HghE8i0ay+88IK2cxBpPUUqAlmnn366jB8/Xg444ADdb1EbD4VIHvVBX5qEJUuWyOzZs7VdY+hD9mh0vend7j/Sf/+6OiXt7LPPlp69exFgrrfdoNFY5To35Y7EROS9//776iRG3qmnnqodIuyFpE0eJwWjhMI3b96sOd7mIkkXKGmdEqZ46PrT3aUXCTgGQrleIgILjTx0Jf2vXLlSnZToYAoPBwXOnlLmLNq/rr+MHDFSSTvC6UubhqM2O+Ea1kS0uDYuEXlc2ydv8uTJWg624lqhycOAFILBAUbnIjTQpAraNXpWRBv7OZ52jxQxduxYOeWUUzRVkjJtesfgV75Q4NcP56KtQVfaI9Ij7RHtOGRhYI5hiZOOOm6UTJo4waXIEWqnoPOZvmZTH1WuQ8OY0Mjjun7atCzGeWlHnqU/CKIQxmu0bWvWrFGyAATTi6QrDGl0/61dI2dTaT/SCo086oZQX0B7jVMydffyyy/L559/rqQZKRi0e/fuUl9XL+NPGC+TTzlVunXtqtNcZmgfyfQNkkcZQfKoW9rkETF414YNG3ROjntsK1as0A4JlURZhLbsRJfn6R0xDGDClfMadjQo8XhxIZMH0IN6oSvjLpvC++WXX3Q/+iA4Kbds6Hwx3CGzdK7tLDujjtylaxednPCRijw6QPQ2g+RZ2rTzk5JnBkYR1kkbpAoa0gULFsi6des0ylACUkgZRx11lLZtxx57rHojv1lP0690ovV8w6KJsRkzQKRI2nJ0BbR3OB8dB4yKnuhLloFIbRJUHW4BRVKpRbAhmb6M9eK1edOnT1fyKJfzqWdC8jgAoWCMz3wcPSumbFinkj7wuBEjRmj71rdv3+jev8G1cAAzjo9kynQE1BDRelFHsgjtOLpCIL1KnFOn+Jzeffr00fEaxDErxMSCrwNURa4XuWY8nROhvLIiljaDvU3Io9mhjvCSNPKsUMYwr7zyiixcuFC7/tbuGcGAOwAHH3yweh/nWcfGUOjkWZrEUdGR9AhpljX4ncxy+OGHa4rk9tRebvxm5/s6lEd1JPIiy/DkcT/PyCPqffJo86y/wf6k5JEe6ITcfPPNeiEUwPOoKOtcwCrNOmKIRwiko0hQGY6Nd3xHwcgDFnmA/RBJZNldDiKNzGJ3QDjWnNL0siSZK/IseKwchRnRFwrmbq8jWdfZx8lEFkSyZJt1iOY42ot4QnuBMTjOF/bxW77E6kQdiTQzNs5LU3DJJZfIddddpx0w5iIhDsKwBaQjbQhiHVu5hUoa/6WDNpFnhBlgHXKmTp2q3WPSBBWlN4liVmGWRqx5oX8d0Ea5AgW6MtlAxwzdGUhfe+216vGsJ0LQbhbFmYCICht5ScnjACJqypQpOjRAAfL++eef3+YxNJ88/3xbLwbiMBK3qXjwCV0B3fK77rpLO2G+XkEE9S4Y8kgr06ZNU4Xo6Rx22GFy6623au43UljanYBijTwMTifFenmgqxto33nnnToPi8ESIV/kJS3FSFByXIVYciLr/gQp+5qam3TJ8dYe+FLoQCeEupoewNc9mdj5SEchaUkaTY4IA17wbwKkFDKSu0nhN1V7HAiYsOi4GN+DkdUIdZcK29SUyMsS/PavPeB8a6pSXatEXoGiFHlFCD/aSpG3B6NEXhy0t93qKCQnz6Vd6/kU48A7myhE3VNH3r+IIyOFyCuG6GtDHhXOdJoneG5QiglB4uIRGYxEXzoKxWXVDgSEmRQqkpLn/Ch2pwCPirV7rR3rYR0F0ykeYejuSyGgFHlR+M6Zd3hVwI0SxX6JPA+aVTzJB/QPM92SR+YRtnWfk2DnsUSewRkGwgopLaZCibwiRom8Aoff5gXbvxJ5eYa1aSZtwLa3z8gzApOS50Y5+p8h1oV2C39/CflByshz/S5tyI24WE+sxF3ekTzyyv5+FtNmG+zJqngD2RI6FknJU+ICsylGZgn5R/K06ThyVOkqk8ulaCssJI+8aHtXQmGiDXkQZTMMNs9n5P3bos50N8nVLa7YXxJFpQ1sf3STeR+EbfhI2eb9G1EsjprShSAQZfb0yHPxpdmmmPRMSZ5N0vopxPbtSTC9CkE3y3e6xJe81OkjdOQZ2A5iT4lMiAvq29Gwtq/Vlm6ftnNUCfEQijxroI04lvFILHYUm04pyUuFPSXqlDi4KyL+skJeCflBu8grEZdflMgrYmRMXom4/KPdbV4J+UOJvCJGibwiRom8IkaJvCIFkwol8ooYOSGv0OY+C60+2UJOycu22C0bX/hegUlsf0tEbF9zc7MuiwbOzxhF64O4LKMSnHfNCXnchWAQr8Z1Rmc9XfEfOUD4Dl1FeYW+7a6NsC8q+oVIFHRlljltOc/qUyzvTaP+1DpGHMuoBJET8gAE8IpHDMfLR3lfM98mCCu8+9KX37b+FpHfEgvn/fEH52/Vt9aiPm8nrKyIfOEY2ZOQ8n2bfFeAV/TytnO2eYv77bffru+g5JW+iQBpEManaXhDerJj2wPfI52/aP2bm5r1swD96+tk0KDB0n3v7jG9cKpEWP39av302cfzP9bjebMv79vkheC8NLYjUFtdI99+841+V4EPjlBfe9/mqbxvszKNl6VmSh4FvPrqq/L4448ricmMlg70Kh5hQdDOAVL2IX0OkRkzrtC6VtdU6xeRkyEf5AXTIW/X9cnjQ4mQN92RN9mRV+nI43tEfPw+Z2kTwngvNW9tdQ6SPdm2XRrcMp5s37ZN0yUv++ZLkWtWr5E1a1brC8D1G67FBqrsVTvo/jkjD6/lfdR81DCrnQVSo1vEE82bTljHg3v27KkfGOSrkXjwnoacpU3AN4b4uhff1MtW2lFv+7uKbUBq5o9j+OZ4rSOvX79++nLvns6JSOMtu5MPFwoubc6Lps1+kbSp75j20mZOybN2To0aFdvOFJzpn61/aO+BTdXB/Q9ZtHMYgH0tiViPotjIS5k222NocwSWiA6gnWgUZCh84T/efhN+10F6dIwJWig3ur4nIWdtnsFIY5YjG8IXj+Pt94WvQSI+gcUC6mtZyrl8dG98/IM8O9EiTi8SvWAmMONlcn7sHLuG/tsW/BIURbC8FMXHykpxXIfAr4O3HtMtijbkoYAvti+b3su1woiBWqiwLyr+cS62/inuBHvKmCuxdIq00S0ogM5OcF+uoXX0xenkSo/8ho4sdSuyVL10K0TajCnWTmWoCPCNk0xAhCA9Kz0x7QC7igqu8p4NkiEUeWb4TMAYD+HDUVWVVTrXmJbUxNmXQvj6I+XRO2aarr06dCSop/IW8MF4yGmHBQPyVSw+Vcp3VxF/PZS44zknLXFdbb67yiewm10HBoPQeQmDfJNM6W0EEqMSRJtxXhB4LbP1V155pRqS7bDjPIzF4JxBOue2a5Yl5NSWeqw7FAKqqqukT9++MmHiRB2sE30WhYmwevVque+++/QbsYCvcHb0xDTZIqOveAXBiZB3xRVXxAgw8viKYzLymE984okn5Mknn9QvgXF7KBOoqUOSF2neXXvh/mVcxxcnp112qX5Yn7sMqcDnwu+9996iIS902kw3nRB5dh8PIklfmUhTU2RsF0o41jkU5zFRvXnLZi0fhOkAGPKdOsMiKXm+wukqRHs3evRojVA+BIznZyJ8HH+fHj1Cyb777iv7OOEjjXzXdeyYsTJ48GDp3Lmzeis6+BKE6Zvo90JD0rTJHWga/ctnXK6f16YnFzZtYggigBQQ79PcYYE5XUsV2QgBIr6Ta9v2dsQf0reP9OrdWx2J8klBvkMG10mbzCnOmzdP28d83IxNJ20mJY92CvL4wDoEMGnKJ7XvuOMOna2nLYsHLm4FYDhaITUcD5akiUgLFh7cjMXQERKZYooQAxlEE/UyBMmjg8VnRiGP7UInL62hgp9KkqUVCiRKIR+Cecl4467G+DdXU8o22dGwPZQ0bNum5zRDnlPQSKSuZAGfuCCMSJ/QQkfa5OHBkY3IIh4wAIKxiDwjGlIR67KHlbAg0srL3bWZ5nJi0QaBJslgZaVbbr6Qk8jjt2S/dzSsLjHHSwBHWVGQZkiLPBDWKwuJPOqbyqFUJ/4PqV8hIG3ywiKYpnyDmIHCivsnI6HXadegLkZgPCJt218mk0JATsjDWNq7jBqNJSnLF2v/UkmZEyUhE4mWb3WIR4KJTavFtn0EfvvH73lCziLPCNq4caOsW7dO1q9frx+RT1cyPQ/hCWpzHOrCekJosHrRXsCw+iUfpLueInObjDFWrlyp2zzOd9ttt8mo40YJH7ZPBHqay5cvl5dfflmnxzKd22yPlzOzM2nSJKmvr1fyLHUaINXA72vXrtXx1dy5c/W42Nzm+BNkV1PbCQn/3Gwi2Thv8uTJygF6qDMmI48L4b0M0nlknbFbWPIg7OGHH5bHHntMiaMwg596MEIyb0+03863ayFcC0E5xnUMsi+77DI5//zzlQj2JwL1I0MYeRybC/Ioh3MZ/+Lg2AYdIYVt7my8++678sorr6gzcSzPvl566aVKHhMlQHXVtQQwA3FxWw8LjrdBMkueYLaBN080U3mm11gikG3rviTab+f6S461MnhymjLZR10gM10dsg2zCQKJEIZg3y+++EL+85//6NTjM888Iz///LMGC+dAMPO8EMax5tApbwnx4Cwhu2LFCmU9bORB2rJly+SFF17QNGCRR2V8iXUGEoz6tbI0SAEEp9piCrmleqUTJqfPOeccGTRoUGQ6ye1LBH7HYETenDlztP5du3bV6bJsTo/hRNQD0nBibrXRvDAlxzrRhp2pD8eyfvLJJ8uMGTOkT58+Mf2oX87IA5zPHW0qSWEGMzSAOH5TIhPAP97gk2VC2uFaZhwm0Xv06KHXtmP8evgw8iAL8jgnF/fzKIdrQ9T8+fO1LP6Sir4F5RFl2Jyoq6urkwkTJsi4ceNk4MCBei46oofqlEvyKARDmuHKOrmIKE+/rUhGbDxAkDkEwjrlg0TX8smjowDaQx5GBpSLI2FL0jjpEdL4IxyEvz2kbfZJGzJkiBI2cuRIzRrUw9I/9jQdctNlioJCUILwR3kmp2mLci0oShtImZQNedQjEXFBcFzYY+OBciGjtqY2RtrChQu18/bQQw/Jc889J4sXL9YyuEsDIJnoIj3ecMMNcvHFF8uYMWO0reMJ8HjOl5Q8TkAsevwoCrY5iWBRYAb0t8NIJueYpEsCehlieiaQZOB3nGbDxg3y2WefySOPPCIPPPCAPPXUU7Jo0SJ1MMiFWCLtiCOOkIsuukhuuukmmTlzpowaNUpJo7nBEclw6BMsN2XkuapG1zIDhJtQ2XSFdBZvfxixcsMYPC7g3cQDV7LrsbQyWOJsRNrSpUuVrFmzZsmzzz4rS5Ys0YikE8RxtbW1GmmQxh/yMKThoS6aJgjjOhyPxCMOJI88/oue5Bsh3oVSwaIgE/HLbY+kA/56hzNiwnZUAAbFwADbUE/aLPoG/DUw3X562rRxDGVwJo5hyaTBeeedJ1dffbVMmTJFI412D6K4JtcD5riJ6p468uKcmIkxigEYN7ZMpl6UQI4jSn799Vdt04g0Jiaef/55JQ0yIAICSINHHXWUknbNNdfItGnT9GkEIjFTpCTPlGhv5PnnpisdCQgxEmMsBWB7eToO0p5++mkljfRIG6ftlCOOuvMw1NChQ+XCCy+Uq666SqZOnao9SYs0IjhTpBV5ptjfynUMfCJzJYa/0yVjKdJj9NEJZ2T+PJpUttN1JD5bvESeiKbHF198USONts5SKW3XsGHD9JlXeo8XXHCBjBgxQp9ww36Qloq4ePX0JRR5QcLyQWBHwChU8qIbjE3ZgLitbiC9YMF8efDBB5S02a/N1sfrIY2hCeM5yKGLf+2118r1118vZ511lkYeDwCTPgG2MwJSwY6LJ0nJcxRFllkgKl7hYaWjoGpGHbO5OdpxcMXzAO/Spcvkvw//Vx+Hf+3V12TF8uWaNqkf3X6eLx0+fLhOaNAROffcc3UIQNrMFUJFnvV+9nw49hxZ6jBKYHNkwvjBB/Vxx//9b7as+HyFbHfjNH4j2iCOh4tvvPFGueWWW2KRRhRaPyFXWSrl9BiNL7eEmMohj/fv3197S0zbWH4Pg1wowDUxEAakbrRHtt9HsG3xO1+sI5y7ccMGufvOu+Ttd97R5z+r3XXpWPB+l6bGXZHr8oSaO7bajdOGHTNMJp18sk5nkS6ZxsJmwfI4Tx0iup4thCKPKRsGmXgTaYD7SyhrxkqFbFY4CIxCPZmpsDlEI8Z+95eAdSPN9vO3g41OV6atNm3aJOVuP6/B4rqgwh1LpHXp1lX69usnp06eLKNd28ZblnAcdDQ9U+mbLXuEJg+lGKtQMDdoWfJ7GGSrsvFgBATJsDKDSx8+obxVsNydr2+TcJGDIxDRjY6wCtdpIU1qpE06WYYNP0b6HXaYdHVEkn0sA4XVM1v2SEoexsDb6OoyE45CgMKJOpYdXWEfvvG5Pka0cvjNX08GPc79X+5SIqsQxTu+OjnScNAjXRt21hlnyMCBg6S3izT+WrfC2aLRpdLyivT/7jBbtujU0NCQ9Ep44UcffSSzZ8/Wv1tgqscmTCE2bEWyVeF44NrUM14Z8fYFybSo9a/RrUtXGVBfr6lxyODBcsTAgbo/hpAT8+kiHTslJc8uxDiG+050jfFu62khYZBOhdKFRVi8MhKVGySPbcTvaDCu69Wzlz78Q5ZB5xg4PXCNbCEdW6WMPCoNYTTKeCcw5dMpKJ1jw4J6WJ1ApmUYef756EzKZB9ZhnJMb+CvZxPp6JCSPJt/CxJnyAUpQSQqg7qYURMdE29/UAe2g/sA+/xU6jtKvOOzgXTsmTJt+qmkPciVstlEsjpiC//3/JMn8n+p/fLlTy83JAAAAABJRU5ErkJggg==;" vertex="1" parent="1">
          <mxGeometry x="398.42" y="115" width="58.42" height="70" as="geometry" />
        </mxCell>
        <mxCell id="ZVRVcHzqKUU942DQ3SIE-13" value="" style="shape=image;verticalLabelPosition=bottom;labelBackgroundColor=default;verticalAlign=top;aspect=fixed;imageAspect=0;image=data:image/png,iVBORw0KGgoAAAANSUhEUgAAAG8AAACFCAYAAABVGqaEAAAAAXNSR0IArs4c6QAAAARnQU1BAACxjwv8YQUAAAAJcEhZcwAAFiUAABYlAUlSJPAAAABhaVRYdFNuaXBNZXRhZGF0YQAAAAAAeyJjbGlwUG9pbnRzIjpbeyJ4IjowLCJ5IjowfSx7IngiOjExMSwieSI6MH0seyJ4IjoxMTEsInkiOjEzNH0seyJ4IjowLCJ5IjoxMzR9XX16O9bUAAAZ20lEQVR4Xu2dZ5AU1RbHD5uXIGIWEER2UZKKgJJEBVRMZallKAUUUbQsLbX8pH5RP5mLUl/5qkylllWG0jLwzAFQQQmCYAADqCBKEgMsLBt493dmzni3ndAzO7Mzg/PXQ4fp7nvP+Z9zbuje7k7bt2/fLSUUJcqiyxKKECXyihgl8ooYJfKKGCXy8oBOrouYSNJBibwiRom8IkaJvCJGwQ3SW1tbpaysTCorK6W8vFx2794t27Ztk59++kl+/PFH2bFjR/TI4kGmEdLJ2WGv7t1lwIABsv/+++s+7GEoyBkWKlhbWyuubkrYe++9J2+++aZs3LhRWlpalOBiQqbkQUx5RYWcdNJJMnPmTDnkkEMiP0RRkOTt2rVLI2zOnDny+uuvy5dffil//fVXLCo7deoUPbLwQU3T7UUaOK3V/VtXVydXX321kkhGsujLG3mxCjgiELYhh2j77rvv5KWXXpKPP/5YtmzZotFWU1OjxJFK7byigNML8tDPdGWfW9F96KbbHKr/RnRT+7hlc2uL9OrVS2bMmCGnnXaaVFdX6zl6rXyQR8Wampp0nfRY4VLD77//rimSaHvrrbdk06ZN0tjYqMfxe48ePeSggw6SvffeW72vmLC7pVUNjh5VTnY7J2102YVmYP369dLS3CytziaNOxulrKJcKpx+HK92ammWQw89VC6//HI5/bTTpbKqUm2SF/LM24gilGF77dq18sknnyhxy5Yt05RJhHFMVVWV5voxY8aoHHjggXpeMaG8UyTVkytane5bf9uqTcHcuXNk+fLl0uzIa3EE0zTUdK6VGufQELzNZSHSppF3xhlnqOPi1HmLPEgBRNdXX30lb7/9tpK3c+dOVYCKQRo9rGHDhsnEiRPl6KOPln322Sd2bjHB2rwtWzbLmu/XyKdOV/T94YcfZMfOHY7QVtez7CTVVdVSN6BeDu13qKxauUq+/e5b2eWINfLOPPNMddwOJ08Li8qOhh2yctVK+fDDD+Wjjz5SJRgOkEKJRJZDhw6V448/XkaPHi29e/fWNo+IxUs5plBgOlEn2myW5c7Bdre6OjpCysvK5a8//9QmYfHiRbJg/gJZtWqV/On20ciRYSCurn+dDBo8KNKu1dbIo48+qpmozP0OedOnT1fyOiTyVAlXMAZHIKRpV5OsXrPaKbFYiSPqUIKK0MOEoP79+8txxx0n48aNk4EDB+o+fi9kkA0iqa9FOxREGvt2uqjatGmzzJs3Tz52Trrqm1Uus2xT43NshWvfDtj/ABkydIhMmDBBjjzySOnZs5f8tG6t3H///UoeusdLm1w/Z+RRqHXtAR2SpUuXyjvvvKPLrVu3asPLMaQC2jJS5KRJk1SJzp07x3qWtixU4KiQh644KR2QzZu3yOJFi2T+/Pny6aefamahLeeYMmebbnvtJfX19TJ2LG35WOl58MGq824XhfS2Z82apb1t7NPh5BFJ3bp1kz/++EO++eYb1zjP1cqQIi3tUQmOoT3D80aNGqXt2l7d9pLtDa6xjhJrDlCoIIowKnWlzf586bJItDl9f/31V2loaJBK91uTI7WmploG1A+QMY60448fr5mmS5cu2kGpdO08vUs6cETeBx98kDDy2J8V8izfA6IEwcuo+CLnfW+88YZ8++23WijRhpeSDulF0qZRKdo1VcJdq8z1zlp3R9oP9TBX0UKD1QviWKez9f3336vB5zqBAJd/VNcm58jYh2muY445Rsa6JoFUue8++7prMCXoKEDXcuek7lo///yz3HPPPfLuu++qQwTJIzBA1iKPykEaSxShXWO8Rq+Kdo0C+Z3K7LfffjJy5Eg54YQTtGPC2C1RdKmHFRh5OJXpAsgmZBaI+/rrr6Wlqdk56k5n6Cq1R3eXIkc4fU868UQZPnx4RF9HVEVFpfs9Mp4zVFXXyI8//Sh33323Tgv65NGZoRdOAHBO1sjD+HghE8i0ay+88IK2cxBpPUUqAlmnn366jB8/Xg444ADdb1EbD4VIHvVBX5qEJUuWyOzZs7VdY+hD9mh0vend7j/Sf/+6OiXt7LPPlp69exFgrrfdoNFY5To35Y7EROS9//776iRG3qmnnqodIuyFpE0eJwWjhMI3b96sOd7mIkkXKGmdEqZ46PrT3aUXCTgGQrleIgILjTx0Jf2vXLlSnZToYAoPBwXOnlLmLNq/rr+MHDFSSTvC6UubhqM2O+Ea1kS0uDYuEXlc2ydv8uTJWg624lqhycOAFILBAUbnIjTQpAraNXpWRBv7OZ52jxQxduxYOeWUUzRVkjJtesfgV75Q4NcP56KtQVfaI9Ij7RHtOGRhYI5hiZOOOm6UTJo4waXIEWqnoPOZvmZTH1WuQ8OY0Mjjun7atCzGeWlHnqU/CKIQxmu0bWvWrFGyAATTi6QrDGl0/61dI2dTaT/SCo086oZQX0B7jVMydffyyy/L559/rqQZKRi0e/fuUl9XL+NPGC+TTzlVunXtqtNcZmgfyfQNkkcZQfKoW9rkETF414YNG3ROjntsK1as0A4JlURZhLbsRJfn6R0xDGDClfMadjQo8XhxIZMH0IN6oSvjLpvC++WXX3Q/+iA4Kbds6Hwx3CGzdK7tLDujjtylaxednPCRijw6QPQ2g+RZ2rTzk5JnBkYR1kkbpAoa0gULFsi6des0ylACUkgZRx11lLZtxx57rHojv1lP0690ovV8w6KJsRkzQKRI2nJ0BbR3OB8dB4yKnuhLloFIbRJUHW4BRVKpRbAhmb6M9eK1edOnT1fyKJfzqWdC8jgAoWCMz3wcPSumbFinkj7wuBEjRmj71rdv3+jev8G1cAAzjo9kynQE1BDRelFHsgjtOLpCIL1KnFOn+Jzeffr00fEaxDErxMSCrwNURa4XuWY8nROhvLIiljaDvU3Io9mhjvCSNPKsUMYwr7zyiixcuFC7/tbuGcGAOwAHH3yweh/nWcfGUOjkWZrEUdGR9AhpljX4ncxy+OGHa4rk9tRebvxm5/s6lEd1JPIiy/DkcT/PyCPqffJo86y/wf6k5JEe6ITcfPPNeiEUwPOoKOtcwCrNOmKIRwiko0hQGY6Nd3xHwcgDFnmA/RBJZNldDiKNzGJ3QDjWnNL0siSZK/IseKwchRnRFwrmbq8jWdfZx8lEFkSyZJt1iOY42ot4QnuBMTjOF/bxW77E6kQdiTQzNs5LU3DJJZfIddddpx0w5iIhDsKwBaQjbQhiHVu5hUoa/6WDNpFnhBlgHXKmTp2q3WPSBBWlN4liVmGWRqx5oX8d0Ea5AgW6MtlAxwzdGUhfe+216vGsJ0LQbhbFmYCICht5ScnjACJqypQpOjRAAfL++eef3+YxNJ88/3xbLwbiMBK3qXjwCV0B3fK77rpLO2G+XkEE9S4Y8kgr06ZNU4Xo6Rx22GFy6623au43UljanYBijTwMTifFenmgqxto33nnnToPi8ESIV/kJS3FSFByXIVYciLr/gQp+5qam3TJ8dYe+FLoQCeEupoewNc9mdj5SEchaUkaTY4IA17wbwKkFDKSu0nhN1V7HAiYsOi4GN+DkdUIdZcK29SUyMsS/PavPeB8a6pSXatEXoGiFHlFCD/aSpG3B6NEXhy0t93qKCQnz6Vd6/kU48A7myhE3VNH3r+IIyOFyCuG6GtDHhXOdJoneG5QiglB4uIRGYxEXzoKxWXVDgSEmRQqkpLn/Ch2pwCPirV7rR3rYR0F0ykeYejuSyGgFHlR+M6Zd3hVwI0SxX6JPA+aVTzJB/QPM92SR+YRtnWfk2DnsUSewRkGwgopLaZCibwiRom8Aoff5gXbvxJ5eYa1aSZtwLa3z8gzApOS50Y5+p8h1oV2C39/CflByshz/S5tyI24WE+sxF3ekTzyyv5+FtNmG+zJqngD2RI6FknJU+ICsylGZgn5R/K06ThyVOkqk8ulaCssJI+8aHtXQmGiDXkQZTMMNs9n5P3bos50N8nVLa7YXxJFpQ1sf3STeR+EbfhI2eb9G1EsjprShSAQZfb0yHPxpdmmmPRMSZ5N0vopxPbtSTC9CkE3y3e6xJe81OkjdOQZ2A5iT4lMiAvq29Gwtq/Vlm6ftnNUCfEQijxroI04lvFILHYUm04pyUuFPSXqlDi4KyL+skJeCflBu8grEZdflMgrYmRMXom4/KPdbV4J+UOJvCJGibwiRom8IkaJvCIFkwol8ooYOSGv0OY+C60+2UJOycu22C0bX/hegUlsf0tEbF9zc7MuiwbOzxhF64O4LKMSnHfNCXnchWAQr8Z1Rmc9XfEfOUD4Dl1FeYW+7a6NsC8q+oVIFHRlljltOc/qUyzvTaP+1DpGHMuoBJET8gAE8IpHDMfLR3lfM98mCCu8+9KX37b+FpHfEgvn/fEH52/Vt9aiPm8nrKyIfOEY2ZOQ8n2bfFeAV/TytnO2eYv77bffru+g5JW+iQBpEManaXhDerJj2wPfI52/aP2bm5r1swD96+tk0KDB0n3v7jG9cKpEWP39av302cfzP9bjebMv79vkheC8NLYjUFtdI99+841+V4EPjlBfe9/mqbxvszKNl6VmSh4FvPrqq/L4448ricmMlg70Kh5hQdDOAVL2IX0OkRkzrtC6VtdU6xeRkyEf5AXTIW/X9cnjQ4mQN92RN9mRV+nI43tEfPw+Z2kTwngvNW9tdQ6SPdm2XRrcMp5s37ZN0yUv++ZLkWtWr5E1a1brC8D1G67FBqrsVTvo/jkjD6/lfdR81DCrnQVSo1vEE82bTljHg3v27KkfGOSrkXjwnoacpU3AN4b4uhff1MtW2lFv+7uKbUBq5o9j+OZ4rSOvX79++nLvns6JSOMtu5MPFwoubc6Lps1+kbSp75j20mZOybN2To0aFdvOFJzpn61/aO+BTdXB/Q9ZtHMYgH0tiViPotjIS5k222NocwSWiA6gnWgUZCh84T/efhN+10F6dIwJWig3ur4nIWdtnsFIY5YjG8IXj+Pt94WvQSI+gcUC6mtZyrl8dG98/IM8O9EiTi8SvWAmMONlcn7sHLuG/tsW/BIURbC8FMXHykpxXIfAr4O3HtMtijbkoYAvti+b3su1woiBWqiwLyr+cS62/inuBHvKmCuxdIq00S0ogM5OcF+uoXX0xenkSo/8ho4sdSuyVL10K0TajCnWTmWoCPCNk0xAhCA9Kz0x7QC7igqu8p4NkiEUeWb4TMAYD+HDUVWVVTrXmJbUxNmXQvj6I+XRO2aarr06dCSop/IW8MF4yGmHBQPyVSw+Vcp3VxF/PZS44zknLXFdbb67yiewm10HBoPQeQmDfJNM6W0EEqMSRJtxXhB4LbP1V155pRqS7bDjPIzF4JxBOue2a5Yl5NSWeqw7FAKqqqukT9++MmHiRB2sE30WhYmwevVque+++/QbsYCvcHb0xDTZIqOveAXBiZB3xRVXxAgw8viKYzLymE984okn5Mknn9QvgXF7KBOoqUOSF2neXXvh/mVcxxcnp112qX5Yn7sMqcDnwu+9996iIS902kw3nRB5dh8PIklfmUhTU2RsF0o41jkU5zFRvXnLZi0fhOkAGPKdOsMiKXm+wukqRHs3evRojVA+BIznZyJ8HH+fHj1Cyb777iv7OOEjjXzXdeyYsTJ48GDp3Lmzeis6+BKE6Zvo90JD0rTJHWga/ctnXK6f16YnFzZtYggigBQQ79PcYYE5XUsV2QgBIr6Ta9v2dsQf0reP9OrdWx2J8klBvkMG10mbzCnOmzdP28d83IxNJ20mJY92CvL4wDoEMGnKJ7XvuOMOna2nLYsHLm4FYDhaITUcD5akiUgLFh7cjMXQERKZYooQAxlEE/UyBMmjg8VnRiGP7UInL62hgp9KkqUVCiRKIR+Cecl4467G+DdXU8o22dGwPZQ0bNum5zRDnlPQSKSuZAGfuCCMSJ/QQkfa5OHBkY3IIh4wAIKxiDwjGlIR67KHlbAg0srL3bWZ5nJi0QaBJslgZaVbbr6Qk8jjt2S/dzSsLjHHSwBHWVGQZkiLPBDWKwuJPOqbyqFUJ/4PqV8hIG3ywiKYpnyDmIHCivsnI6HXadegLkZgPCJt218mk0JATsjDWNq7jBqNJSnLF2v/UkmZEyUhE4mWb3WIR4KJTavFtn0EfvvH73lCziLPCNq4caOsW7dO1q9frx+RT1cyPQ/hCWpzHOrCekJosHrRXsCw+iUfpLueInObjDFWrlyp2zzOd9ttt8mo40YJH7ZPBHqay5cvl5dfflmnxzKd22yPlzOzM2nSJKmvr1fyLHUaINXA72vXrtXx1dy5c/W42Nzm+BNkV1PbCQn/3Gwi2Thv8uTJygF6qDMmI48L4b0M0nlknbFbWPIg7OGHH5bHHntMiaMwg596MEIyb0+03863ayFcC0E5xnUMsi+77DI5//zzlQj2JwL1I0MYeRybC/Ioh3MZ/+Lg2AYdIYVt7my8++678sorr6gzcSzPvl566aVKHhMlQHXVtQQwA3FxWw8LjrdBMkueYLaBN080U3mm11gikG3rviTab+f6S461MnhymjLZR10gM10dsg2zCQKJEIZg3y+++EL+85//6NTjM888Iz///LMGC+dAMPO8EMax5tApbwnx4Cwhu2LFCmU9bORB2rJly+SFF17QNGCRR2V8iXUGEoz6tbI0SAEEp9piCrmleqUTJqfPOeccGTRoUGQ6ye1LBH7HYETenDlztP5du3bV6bJsTo/hRNQD0nBibrXRvDAlxzrRhp2pD8eyfvLJJ8uMGTOkT58+Mf2oX87IA5zPHW0qSWEGMzSAOH5TIhPAP97gk2VC2uFaZhwm0Xv06KHXtmP8evgw8iAL8jgnF/fzKIdrQ9T8+fO1LP6Sir4F5RFl2Jyoq6urkwkTJsi4ceNk4MCBei46oofqlEvyKARDmuHKOrmIKE+/rUhGbDxAkDkEwjrlg0TX8smjowDaQx5GBpSLI2FL0jjpEdL4IxyEvz2kbfZJGzJkiBI2cuRIzRrUw9I/9jQdctNlioJCUILwR3kmp2mLci0oShtImZQNedQjEXFBcFzYY+OBciGjtqY2RtrChQu18/bQQw/Jc889J4sXL9YyuEsDIJnoIj3ecMMNcvHFF8uYMWO0reMJ8HjOl5Q8TkAsevwoCrY5iWBRYAb0t8NIJueYpEsCehlieiaQZOB3nGbDxg3y2WefySOPPCIPPPCAPPXUU7Jo0SJ1MMiFWCLtiCOOkIsuukhuuukmmTlzpowaNUpJo7nBEclw6BMsN2XkuapG1zIDhJtQ2XSFdBZvfxixcsMYPC7g3cQDV7LrsbQyWOJsRNrSpUuVrFmzZsmzzz4rS5Ys0YikE8RxtbW1GmmQxh/yMKThoS6aJgjjOhyPxCMOJI88/oue5Bsh3oVSwaIgE/HLbY+kA/56hzNiwnZUAAbFwADbUE/aLPoG/DUw3X562rRxDGVwJo5hyaTBeeedJ1dffbVMmTJFI412D6K4JtcD5riJ6p468uKcmIkxigEYN7ZMpl6UQI4jSn799Vdt04g0Jiaef/55JQ0yIAICSINHHXWUknbNNdfItGnT9GkEIjFTpCTPlGhv5PnnpisdCQgxEmMsBWB7eToO0p5++mkljfRIG6ftlCOOuvMw1NChQ+XCCy+Uq666SqZOnao9SYs0IjhTpBV5ptjfynUMfCJzJYa/0yVjKdJj9NEJZ2T+PJpUttN1JD5bvESeiKbHF198USONts5SKW3XsGHD9JlXeo8XXHCBjBgxQp9ww36Qloq4ePX0JRR5QcLyQWBHwChU8qIbjE3ZgLitbiC9YMF8efDBB5S02a/N1sfrIY2hCeM5yKGLf+2118r1118vZ511lkYeDwCTPgG2MwJSwY6LJ0nJcxRFllkgKl7hYaWjoGpGHbO5OdpxcMXzAO/Spcvkvw//Vx+Hf+3V12TF8uWaNqkf3X6eLx0+fLhOaNAROffcc3UIQNrMFUJFnvV+9nw49hxZ6jBKYHNkwvjBB/Vxx//9b7as+HyFbHfjNH4j2iCOh4tvvPFGueWWW2KRRhRaPyFXWSrl9BiNL7eEmMohj/fv3197S0zbWH4Pg1wowDUxEAakbrRHtt9HsG3xO1+sI5y7ccMGufvOu+Ttd97R5z+r3XXpWPB+l6bGXZHr8oSaO7bajdOGHTNMJp18sk5nkS6ZxsJmwfI4Tx0iup4thCKPKRsGmXgTaYD7SyhrxkqFbFY4CIxCPZmpsDlEI8Z+95eAdSPN9vO3g41OV6atNm3aJOVuP6/B4rqgwh1LpHXp1lX69usnp06eLKNd28ZblnAcdDQ9U+mbLXuEJg+lGKtQMDdoWfJ7GGSrsvFgBATJsDKDSx8+obxVsNydr2+TcJGDIxDRjY6wCtdpIU1qpE06WYYNP0b6HXaYdHVEkn0sA4XVM1v2SEoexsDb6OoyE45CgMKJOpYdXWEfvvG5Pka0cvjNX08GPc79X+5SIqsQxTu+OjnScNAjXRt21hlnyMCBg6S3izT+WrfC2aLRpdLyivT/7jBbtujU0NCQ9Ep44UcffSSzZ8/Wv1tgqscmTCE2bEWyVeF44NrUM14Z8fYFybSo9a/RrUtXGVBfr6lxyODBcsTAgbo/hpAT8+kiHTslJc8uxDiG+050jfFu62khYZBOhdKFRVi8MhKVGySPbcTvaDCu69Wzlz78Q5ZB5xg4PXCNbCEdW6WMPCoNYTTKeCcw5dMpKJ1jw4J6WJ1ApmUYef756EzKZB9ZhnJMb+CvZxPp6JCSPJt/CxJnyAUpQSQqg7qYURMdE29/UAe2g/sA+/xU6jtKvOOzgXTsmTJt+qmkPciVstlEsjpiC//3/JMn8n+p/fLlTy83JAAAAABJRU5ErkJggg==;" vertex="1" parent="1">
          <mxGeometry x="400" y="220" width="58.42" height="70" as="geometry" />
        </mxCell>
        <mxCell id="ZVRVcHzqKUU942DQ3SIE-14" value="" style="shape=image;verticalLabelPosition=bottom;labelBackgroundColor=default;verticalAlign=top;aspect=fixed;imageAspect=0;image=data:image/png,iVBORw0KGgoAAAANSUhEUgAAAG8AAACFCAYAAABVGqaEAAAAAXNSR0IArs4c6QAAAARnQU1BAACxjwv8YQUAAAAJcEhZcwAAFiUAABYlAUlSJPAAAABhaVRYdFNuaXBNZXRhZGF0YQAAAAAAeyJjbGlwUG9pbnRzIjpbeyJ4IjowLCJ5IjowfSx7IngiOjExMSwieSI6MH0seyJ4IjoxMTEsInkiOjEzNH0seyJ4IjowLCJ5IjoxMzR9XX16O9bUAAAZ20lEQVR4Xu2dZ5AU1RbHD5uXIGIWEER2UZKKgJJEBVRMZallKAUUUbQsLbX8pH5RP5mLUl/5qkylllWG0jLwzAFQQQmCYAADqCBKEgMsLBt493dmzni3ndAzO7Mzg/PXQ4fp7nvP+Z9zbuje7k7bt2/fLSUUJcqiyxKKECXyihgl8ooYJfKKGCXy8oBOrouYSNJBibwiRom8IkaJvCJGwQ3SW1tbpaysTCorK6W8vFx2794t27Ztk59++kl+/PFH2bFjR/TI4kGmEdLJ2WGv7t1lwIABsv/+++s+7GEoyBkWKlhbWyuubkrYe++9J2+++aZs3LhRWlpalOBiQqbkQUx5RYWcdNJJMnPmTDnkkEMiP0RRkOTt2rVLI2zOnDny+uuvy5dffil//fVXLCo7deoUPbLwQU3T7UUaOK3V/VtXVydXX321kkhGsujLG3mxCjgiELYhh2j77rvv5KWXXpKPP/5YtmzZotFWU1OjxJFK7byigNML8tDPdGWfW9F96KbbHKr/RnRT+7hlc2uL9OrVS2bMmCGnnXaaVFdX6zl6rXyQR8Wampp0nfRY4VLD77//rimSaHvrrbdk06ZN0tjYqMfxe48ePeSggw6SvffeW72vmLC7pVUNjh5VTnY7J2102YVmYP369dLS3CytziaNOxulrKJcKpx+HK92ammWQw89VC6//HI5/bTTpbKqUm2SF/LM24gilGF77dq18sknnyhxy5Yt05RJhHFMVVWV5voxY8aoHHjggXpeMaG8UyTVkytane5bf9uqTcHcuXNk+fLl0uzIa3EE0zTUdK6VGufQELzNZSHSppF3xhlnqOPi1HmLPEgBRNdXX30lb7/9tpK3c+dOVYCKQRo9rGHDhsnEiRPl6KOPln322Sd2bjHB2rwtWzbLmu/XyKdOV/T94YcfZMfOHY7QVtez7CTVVdVSN6BeDu13qKxauUq+/e5b2eWINfLOPPNMddwOJ08Li8qOhh2yctVK+fDDD+Wjjz5SJRgOkEKJRJZDhw6V448/XkaPHi29e/fWNo+IxUs5plBgOlEn2myW5c7Bdre6OjpCysvK5a8//9QmYfHiRbJg/gJZtWqV/On20ciRYSCurn+dDBo8KNKu1dbIo48+qpmozP0OedOnT1fyOiTyVAlXMAZHIKRpV5OsXrPaKbFYiSPqUIKK0MOEoP79+8txxx0n48aNk4EDB+o+fi9kkA0iqa9FOxREGvt2uqjatGmzzJs3Tz52Trrqm1Uus2xT43NshWvfDtj/ABkydIhMmDBBjjzySOnZs5f8tG6t3H///UoeusdLm1w/Z+RRqHXtAR2SpUuXyjvvvKPLrVu3asPLMaQC2jJS5KRJk1SJzp07x3qWtixU4KiQh644KR2QzZu3yOJFi2T+/Pny6aefamahLeeYMmebbnvtJfX19TJ2LG35WOl58MGq824XhfS2Z82apb1t7NPh5BFJ3bp1kz/++EO++eYb1zjP1cqQIi3tUQmOoT3D80aNGqXt2l7d9pLtDa6xjhJrDlCoIIowKnWlzf586bJItDl9f/31V2loaJBK91uTI7WmploG1A+QMY60448fr5mmS5cu2kGpdO08vUs6cETeBx98kDDy2J8V8izfA6IEwcuo+CLnfW+88YZ8++23WijRhpeSDulF0qZRKdo1VcJdq8z1zlp3R9oP9TBX0UKD1QviWKez9f3336vB5zqBAJd/VNcm58jYh2muY445Rsa6JoFUue8++7prMCXoKEDXcuek7lo///yz3HPPPfLuu++qQwTJIzBA1iKPykEaSxShXWO8Rq+Kdo0C+Z3K7LfffjJy5Eg54YQTtGPC2C1RdKmHFRh5OJXpAsgmZBaI+/rrr6Wlqdk56k5n6Cq1R3eXIkc4fU868UQZPnx4RF9HVEVFpfs9Mp4zVFXXyI8//Sh33323Tgv65NGZoRdOAHBO1sjD+HghE8i0ay+88IK2cxBpPUUqAlmnn366jB8/Xg444ADdb1EbD4VIHvVBX5qEJUuWyOzZs7VdY+hD9mh0vend7j/Sf/+6OiXt7LPPlp69exFgrrfdoNFY5To35Y7EROS9//776iRG3qmnnqodIuyFpE0eJwWjhMI3b96sOd7mIkkXKGmdEqZ46PrT3aUXCTgGQrleIgILjTx0Jf2vXLlSnZToYAoPBwXOnlLmLNq/rr+MHDFSSTvC6UubhqM2O+Ea1kS0uDYuEXlc2ydv8uTJWg624lqhycOAFILBAUbnIjTQpAraNXpWRBv7OZ52jxQxduxYOeWUUzRVkjJtesfgV75Q4NcP56KtQVfaI9Ij7RHtOGRhYI5hiZOOOm6UTJo4waXIEWqnoPOZvmZTH1WuQ8OY0Mjjun7atCzGeWlHnqU/CKIQxmu0bWvWrFGyAATTi6QrDGl0/61dI2dTaT/SCo086oZQX0B7jVMydffyyy/L559/rqQZKRi0e/fuUl9XL+NPGC+TTzlVunXtqtNcZmgfyfQNkkcZQfKoW9rkETF414YNG3ROjntsK1as0A4JlURZhLbsRJfn6R0xDGDClfMadjQo8XhxIZMH0IN6oSvjLpvC++WXX3Q/+iA4Kbds6Hwx3CGzdK7tLDujjtylaxednPCRijw6QPQ2g+RZ2rTzk5JnBkYR1kkbpAoa0gULFsi6des0ylACUkgZRx11lLZtxx57rHojv1lP0690ovV8w6KJsRkzQKRI2nJ0BbR3OB8dB4yKnuhLloFIbRJUHW4BRVKpRbAhmb6M9eK1edOnT1fyKJfzqWdC8jgAoWCMz3wcPSumbFinkj7wuBEjRmj71rdv3+jev8G1cAAzjo9kynQE1BDRelFHsgjtOLpCIL1KnFOn+Jzeffr00fEaxDErxMSCrwNURa4XuWY8nROhvLIiljaDvU3Io9mhjvCSNPKsUMYwr7zyiixcuFC7/tbuGcGAOwAHH3yweh/nWcfGUOjkWZrEUdGR9AhpljX4ncxy+OGHa4rk9tRebvxm5/s6lEd1JPIiy/DkcT/PyCPqffJo86y/wf6k5JEe6ITcfPPNeiEUwPOoKOtcwCrNOmKIRwiko0hQGY6Nd3xHwcgDFnmA/RBJZNldDiKNzGJ3QDjWnNL0siSZK/IseKwchRnRFwrmbq8jWdfZx8lEFkSyZJt1iOY42ot4QnuBMTjOF/bxW77E6kQdiTQzNs5LU3DJJZfIddddpx0w5iIhDsKwBaQjbQhiHVu5hUoa/6WDNpFnhBlgHXKmTp2q3WPSBBWlN4liVmGWRqx5oX8d0Ea5AgW6MtlAxwzdGUhfe+216vGsJ0LQbhbFmYCICht5ScnjACJqypQpOjRAAfL++eef3+YxNJ88/3xbLwbiMBK3qXjwCV0B3fK77rpLO2G+XkEE9S4Y8kgr06ZNU4Xo6Rx22GFy6623au43UljanYBijTwMTifFenmgqxto33nnnToPi8ESIV/kJS3FSFByXIVYciLr/gQp+5qam3TJ8dYe+FLoQCeEupoewNc9mdj5SEchaUkaTY4IA17wbwKkFDKSu0nhN1V7HAiYsOi4GN+DkdUIdZcK29SUyMsS/PavPeB8a6pSXatEXoGiFHlFCD/aSpG3B6NEXhy0t93qKCQnz6Vd6/kU48A7myhE3VNH3r+IIyOFyCuG6GtDHhXOdJoneG5QiglB4uIRGYxEXzoKxWXVDgSEmRQqkpLn/Ch2pwCPirV7rR3rYR0F0ykeYejuSyGgFHlR+M6Zd3hVwI0SxX6JPA+aVTzJB/QPM92SR+YRtnWfk2DnsUSewRkGwgopLaZCibwiRom8Aoff5gXbvxJ5eYa1aSZtwLa3z8gzApOS50Y5+p8h1oV2C39/CflByshz/S5tyI24WE+sxF3ekTzyyv5+FtNmG+zJqngD2RI6FknJU+ICsylGZgn5R/K06ThyVOkqk8ulaCssJI+8aHtXQmGiDXkQZTMMNs9n5P3bos50N8nVLa7YXxJFpQ1sf3STeR+EbfhI2eb9G1EsjprShSAQZfb0yHPxpdmmmPRMSZ5N0vopxPbtSTC9CkE3y3e6xJe81OkjdOQZ2A5iT4lMiAvq29Gwtq/Vlm6ftnNUCfEQijxroI04lvFILHYUm04pyUuFPSXqlDi4KyL+skJeCflBu8grEZdflMgrYmRMXom4/KPdbV4J+UOJvCJGibwiRom8IkaJvCIFkwol8ooYOSGv0OY+C60+2UJOycu22C0bX/hegUlsf0tEbF9zc7MuiwbOzxhF64O4LKMSnHfNCXnchWAQr8Z1Rmc9XfEfOUD4Dl1FeYW+7a6NsC8q+oVIFHRlljltOc/qUyzvTaP+1DpGHMuoBJET8gAE8IpHDMfLR3lfM98mCCu8+9KX37b+FpHfEgvn/fEH52/Vt9aiPm8nrKyIfOEY2ZOQ8n2bfFeAV/TytnO2eYv77bffru+g5JW+iQBpEManaXhDerJj2wPfI52/aP2bm5r1swD96+tk0KDB0n3v7jG9cKpEWP39av302cfzP9bjebMv79vkheC8NLYjUFtdI99+841+V4EPjlBfe9/mqbxvszKNl6VmSh4FvPrqq/L4448ricmMlg70Kh5hQdDOAVL2IX0OkRkzrtC6VtdU6xeRkyEf5AXTIW/X9cnjQ4mQN92RN9mRV+nI43tEfPw+Z2kTwngvNW9tdQ6SPdm2XRrcMp5s37ZN0yUv++ZLkWtWr5E1a1brC8D1G67FBqrsVTvo/jkjD6/lfdR81DCrnQVSo1vEE82bTljHg3v27KkfGOSrkXjwnoacpU3AN4b4uhff1MtW2lFv+7uKbUBq5o9j+OZ4rSOvX79++nLvns6JSOMtu5MPFwoubc6Lps1+kbSp75j20mZOybN2To0aFdvOFJzpn61/aO+BTdXB/Q9ZtHMYgH0tiViPotjIS5k222NocwSWiA6gnWgUZCh84T/efhN+10F6dIwJWig3ur4nIWdtnsFIY5YjG8IXj+Pt94WvQSI+gcUC6mtZyrl8dG98/IM8O9EiTi8SvWAmMONlcn7sHLuG/tsW/BIURbC8FMXHykpxXIfAr4O3HtMtijbkoYAvti+b3su1woiBWqiwLyr+cS62/inuBHvKmCuxdIq00S0ogM5OcF+uoXX0xenkSo/8ho4sdSuyVL10K0TajCnWTmWoCPCNk0xAhCA9Kz0x7QC7igqu8p4NkiEUeWb4TMAYD+HDUVWVVTrXmJbUxNmXQvj6I+XRO2aarr06dCSop/IW8MF4yGmHBQPyVSw+Vcp3VxF/PZS44zknLXFdbb67yiewm10HBoPQeQmDfJNM6W0EEqMSRJtxXhB4LbP1V155pRqS7bDjPIzF4JxBOue2a5Yl5NSWeqw7FAKqqqukT9++MmHiRB2sE30WhYmwevVque+++/QbsYCvcHb0xDTZIqOveAXBiZB3xRVXxAgw8viKYzLymE984okn5Mknn9QvgXF7KBOoqUOSF2neXXvh/mVcxxcnp112qX5Yn7sMqcDnwu+9996iIS902kw3nRB5dh8PIklfmUhTU2RsF0o41jkU5zFRvXnLZi0fhOkAGPKdOsMiKXm+wukqRHs3evRojVA+BIznZyJ8HH+fHj1Cyb777iv7OOEjjXzXdeyYsTJ48GDp3Lmzeis6+BKE6Zvo90JD0rTJHWga/ctnXK6f16YnFzZtYggigBQQ79PcYYE5XUsV2QgBIr6Ta9v2dsQf0reP9OrdWx2J8klBvkMG10mbzCnOmzdP28d83IxNJ20mJY92CvL4wDoEMGnKJ7XvuOMOna2nLYsHLm4FYDhaITUcD5akiUgLFh7cjMXQERKZYooQAxlEE/UyBMmjg8VnRiGP7UInL62hgp9KkqUVCiRKIR+Cecl4467G+DdXU8o22dGwPZQ0bNum5zRDnlPQSKSuZAGfuCCMSJ/QQkfa5OHBkY3IIh4wAIKxiDwjGlIR67KHlbAg0srL3bWZ5nJi0QaBJslgZaVbbr6Qk8jjt2S/dzSsLjHHSwBHWVGQZkiLPBDWKwuJPOqbyqFUJ/4PqV8hIG3ywiKYpnyDmIHCivsnI6HXadegLkZgPCJt218mk0JATsjDWNq7jBqNJSnLF2v/UkmZEyUhE4mWb3WIR4KJTavFtn0EfvvH73lCziLPCNq4caOsW7dO1q9frx+RT1cyPQ/hCWpzHOrCekJosHrRXsCw+iUfpLueInObjDFWrlyp2zzOd9ttt8mo40YJH7ZPBHqay5cvl5dfflmnxzKd22yPlzOzM2nSJKmvr1fyLHUaINXA72vXrtXx1dy5c/W42Nzm+BNkV1PbCQn/3Gwi2Thv8uTJygF6qDMmI48L4b0M0nlknbFbWPIg7OGHH5bHHntMiaMwg596MEIyb0+03863ayFcC0E5xnUMsi+77DI5//zzlQj2JwL1I0MYeRybC/Ioh3MZ/+Lg2AYdIYVt7my8++678sorr6gzcSzPvl566aVKHhMlQHXVtQQwA3FxWw8LjrdBMkueYLaBN080U3mm11gikG3rviTab+f6S461MnhymjLZR10gM10dsg2zCQKJEIZg3y+++EL+85//6NTjM888Iz///LMGC+dAMPO8EMax5tApbwnx4Cwhu2LFCmU9bORB2rJly+SFF17QNGCRR2V8iXUGEoz6tbI0SAEEp9piCrmleqUTJqfPOeccGTRoUGQ6ye1LBH7HYETenDlztP5du3bV6bJsTo/hRNQD0nBibrXRvDAlxzrRhp2pD8eyfvLJJ8uMGTOkT58+Mf2oX87IA5zPHW0qSWEGMzSAOH5TIhPAP97gk2VC2uFaZhwm0Xv06KHXtmP8evgw8iAL8jgnF/fzKIdrQ9T8+fO1LP6Sir4F5RFl2Jyoq6urkwkTJsi4ceNk4MCBei46oofqlEvyKARDmuHKOrmIKE+/rUhGbDxAkDkEwjrlg0TX8smjowDaQx5GBpSLI2FL0jjpEdL4IxyEvz2kbfZJGzJkiBI2cuRIzRrUw9I/9jQdctNlioJCUILwR3kmp2mLci0oShtImZQNedQjEXFBcFzYY+OBciGjtqY2RtrChQu18/bQQw/Jc889J4sXL9YyuEsDIJnoIj3ecMMNcvHFF8uYMWO0reMJ8HjOl5Q8TkAsevwoCrY5iWBRYAb0t8NIJueYpEsCehlieiaQZOB3nGbDxg3y2WefySOPPCIPPPCAPPXUU7Jo0SJ1MMiFWCLtiCOOkIsuukhuuukmmTlzpowaNUpJo7nBEclw6BMsN2XkuapG1zIDhJtQ2XSFdBZvfxixcsMYPC7g3cQDV7LrsbQyWOJsRNrSpUuVrFmzZsmzzz4rS5Ys0YikE8RxtbW1GmmQxh/yMKThoS6aJgjjOhyPxCMOJI88/oue5Bsh3oVSwaIgE/HLbY+kA/56hzNiwnZUAAbFwADbUE/aLPoG/DUw3X562rRxDGVwJo5hyaTBeeedJ1dffbVMmTJFI412D6K4JtcD5riJ6p468uKcmIkxigEYN7ZMpl6UQI4jSn799Vdt04g0Jiaef/55JQ0yIAICSINHHXWUknbNNdfItGnT9GkEIjFTpCTPlGhv5PnnpisdCQgxEmMsBWB7eToO0p5++mkljfRIG6ftlCOOuvMw1NChQ+XCCy+Uq666SqZOnao9SYs0IjhTpBV5ptjfynUMfCJzJYa/0yVjKdJj9NEJZ2T+PJpUttN1JD5bvESeiKbHF198USONts5SKW3XsGHD9JlXeo8XXHCBjBgxQp9ww36Qloq4ePX0JRR5QcLyQWBHwChU8qIbjE3ZgLitbiC9YMF8efDBB5S02a/N1sfrIY2hCeM5yKGLf+2118r1118vZ511lkYeDwCTPgG2MwJSwY6LJ0nJcxRFllkgKl7hYaWjoGpGHbO5OdpxcMXzAO/Spcvkvw//Vx+Hf+3V12TF8uWaNqkf3X6eLx0+fLhOaNAROffcc3UIQNrMFUJFnvV+9nw49hxZ6jBKYHNkwvjBB/Vxx//9b7as+HyFbHfjNH4j2iCOh4tvvPFGueWWW2KRRhRaPyFXWSrl9BiNL7eEmMohj/fv3197S0zbWH4Pg1wowDUxEAakbrRHtt9HsG3xO1+sI5y7ccMGufvOu+Ttd97R5z+r3XXpWPB+l6bGXZHr8oSaO7bajdOGHTNMJp18sk5nkS6ZxsJmwfI4Tx0iup4thCKPKRsGmXgTaYD7SyhrxkqFbFY4CIxCPZmpsDlEI8Z+95eAdSPN9vO3g41OV6atNm3aJOVuP6/B4rqgwh1LpHXp1lX69usnp06eLKNd28ZblnAcdDQ9U+mbLXuEJg+lGKtQMDdoWfJ7GGSrsvFgBATJsDKDSx8+obxVsNydr2+TcJGDIxDRjY6wCtdpIU1qpE06WYYNP0b6HXaYdHVEkn0sA4XVM1v2SEoexsDb6OoyE45CgMKJOpYdXWEfvvG5Pka0cvjNX08GPc79X+5SIqsQxTu+OjnScNAjXRt21hlnyMCBg6S3izT+WrfC2aLRpdLyivT/7jBbtujU0NCQ9Ep44UcffSSzZ8/Wv1tgqscmTCE2bEWyVeF44NrUM14Z8fYFybSo9a/RrUtXGVBfr6lxyODBcsTAgbo/hpAT8+kiHTslJc8uxDiG+050jfFu62khYZBOhdKFRVi8MhKVGySPbcTvaDCu69Wzlz78Q5ZB5xg4PXCNbCEdW6WMPCoNYTTKeCcw5dMpKJ1jw4J6WJ1ApmUYef756EzKZB9ZhnJMb+CvZxPp6JCSPJt/CxJnyAUpQSQqg7qYURMdE29/UAe2g/sA+/xU6jtKvOOzgXTsmTJt+qmkPciVstlEsjpiC//3/JMn8n+p/fLlTy83JAAAAABJRU5ErkJggg==;" vertex="1" parent="1">
          <mxGeometry x="400" y="325" width="58.42" height="70" as="geometry" />
        </mxCell>
        <mxCell id="ZVRVcHzqKUU942DQ3SIE-15" value="" style="shape=image;verticalLabelPosition=bottom;labelBackgroundColor=default;verticalAlign=top;aspect=fixed;imageAspect=0;image=data:image/png,iVBORw0KGgoAAAANSUhEUgAAAD8AAABtCAYAAAAWGbkjAAAAAXNSR0IArs4c6QAAAARnQU1BAACxjwv8YQUAAAAJcEhZcwAAFiUAABYlAUlSJPAAAABfaVRYdFNuaXBNZXRhZGF0YQAAAAAAeyJjbGlwUG9pbnRzIjpbeyJ4IjowLCJ5IjowfSx7IngiOjYzLCJ5IjowfSx7IngiOjYzLCJ5IjoxMDl9LHsieCI6MCwieSI6MTA5fV19j1cb+AAAD9tJREFUeF7tnMuPVEUUxmt6ZoBhUHkIKCAIaESNgCILCCgmRkFjwoKwMyT8B241ilGXLgkrjYQQWIGJsPCxgIgRUDRCfPESFIaXMLxmYHjNtX6n+2vP1HQPPdDKDD0fOdS9dev1nXOqbt2q6qlrb2/PQo0iVxepI7WIXCGsSeSyus6A1CKi5fH5/u33dXV1XaRSxAHvQmReX7jtHbIsCzdu3AidnZ0hl8uZKN6jvr4+NDQ0dEkvkEfPFK90hJBJyyYdzxHKbmxstOc86w1ui7y03FOlNMpbI7UMRBAUAJHr168XSesZAlSPyiD0ceTvDW6JvCqnYjUMK1y7di10dHSEy5cvh/Pnz5ucOXMmXLx4Mfz888+htbU1nDhxIrS1tVkeQYSHDRsWRo4cGSZOnBhGjx4dxo8fH0aNGhXuueeecN9999kz0gwaNMjakHoDoeLUxp5QkrzXqIcIXrlyxUiePn3ayBw5ciScOnUqnD171sgSIpC8cOFCiHMJuya/iJaC6hXBoUOHhiFDhhhx4lACShk3bpwpZcSIEWHKlCnh/vvvD6NGjgoNjQ3WBfCiUuTTeusut7dZTFb3b5/xGdEoDceKED169Gj45ZdfwsGDB8O5c+eMLMR5jkJQjryBcrwiy5HuDQYPHhyam5uLMmHCBAtRyGOPPRYeeeSR8PDDD4fhw4dbPEpEGSiednlukXx7bFJsVCQPSIDrQAJChw8fDj/++GPYs2dP2Ldvn5E9duyYuTIFUaiHCveVVJM85SKU5cvDQ/CEMWPGmDdMnz7d5PHHHzfFoIRubb106VImwgC3xIK///572Lp1a/j222+NNNbFfX2FnqBQKq6a5EGq2LROiN577702djzzzDPhhRdeCHPmzLGuAk/lsbn9jUi+IY6UPMCy33zzTdiwYUPYvn17OH78uGksbbivsBRhj2qSV12Evjzu5daM+lwjjBXTpk0Lr732Wli8eHGYOnVqIUfEhUj+3MULGR7QdrEt27RpU/bSSy9lsb9QckUSK+yzEhWRxT6fxXEg+/DDD7PYZbP4Nspit83i9Da2vuAGbe1tYdu2bWHHjh3m+uoK/RlwgBtvpB9++ME8GxCnF6UF9HfexQxmuEw13PROA04IgBdGhRtdQzMCCwCEvVSCNE9fFBkTiyNc53KRH9SJuJsBWSDyeIP16rubdnfI0IU+b//XHPr/cH4bGCBfqxggX6uI5Pn2ZriX1A4i+dokDgb6fK1igHytItfZad908atHYe0MfGb5GuLbBTXp9vLubuT1sa9v3v4MOGgNzwPytpJTuC+iXIb+CM+BayMcubGkBXJEKhEh20HaMvaZ+yNkYQAXNjMg3o08idjbmjlzpm33SAGVQGX0NciACJucbFiwpSVu5vZq+JDBQ8L8+fPD66+/bts87HbwLO0G2gdXwYLu/0uhLZV0S6XHk9nMfOWVV8LChQttL4/8cLDtKtNCoVA2KE+ePBl27doVPv/887Bz507bmb106VLxORnZwrpZA6oNXx9tlmUF7gW2qh944IHw5JNPmkEXLFhg21ZNTU3/LmOzTVVIb9CDzhudtkO7e8/u8NNPP9m2NPfsfHD4QJpV/7nTkBLYjMS9H3300TBjxgwTSLPHj/GAlNSNPA+0MTmocVC4fuO6HTRgP37v3r2mBDzh1MlToeVYi+3wsHv7fylBDZfrQpbDCbg2oUgT4uK4PW0jvfcS0IW8Cpb1lYFruTt79pzIQCEHDhywa4QtbISDDGwLoZCrV692Ecpgs0D1qDG6B8QxKiM03IcIR1MefPBBCyEOQdybAwnEM25xQsP6dKHtSEocGHn/UMRT+DjSUjjgiArdAIE0pzUQxgj2xVAGzzjQgEdJAYSUSTkoWULZjMbsr0OOkLcQR1QIcV9GbO4RFJPjVElhMYb2ey8sRVqwAc8uYiKk1F488F6gNMqD6LkExKtQ35BXUmp5n04o5oshCmhsaAy5+nw/JZ9IKS9CWTzTcylRUJmlYOTJJAuocaXAc69V7klLnM9DhTwj9A1CaQhQHPANpBylETlB5elarg3kSdwrDvhroDQgfzIjVoamicRNKZRJAQWmxKoB6vGN8tcgrc8rvCd4YkDlaNCDGwrnnmc5/lOi9rZ2O5jAiA5xWSdtXF9FqXbCjXGJcejQoUN2NE7xRh6QseNKh53MWLdunR0aZMQGt6OAcg1Svf8laDeTHd5MX375pR2w4m1FvD3nPzUE12B2t3HjxrBy5crwxRdfhD///NNGbg1yCN1C114EXUNcAtI06lI+PoV/5stLxXspebA2XL777ruwdu3asGrVqvD999/bG8jyMBi/+eab75KYPs+Dr7/+2k5j4SK//fabkeccC/2FdLxrm4c2h7pcvpK0cgipjxKv0JMQ9NwjTaeyKFuDss+ne0Ly/v3339ZmSG/evNlOlTFN379/f3jooYfC888/H8aOHZtvO6eSsCqDABnffvvtsGbNmkLRwebCHPkkIyccn3jiCZtQcC5W72AGR5Qi0BgRtkritUZwwRNQ+p6g8hRiKIQ5BP25paXF2g9JhAnYX3/91eV8ER8377zzjh1OpD1lyUuTZFTjmFQw8eBoJ7MqFIBimFkxtWTygSJQiBTDyUg1HqFc3Qt6pvrUWN1rxkgIWQYtjsLi1ppZQlSHmknLgE2Z5AeUtWjRovLkmaZCfvXq1UXyiIfcDBckDwJBSDP7wlO4RxkogDjS6ECw3s0qB4i4RFZlrNEMkkGL7wjNGBWSDqJMopijeFCHyIMeyadunxLvCVIIISKihDRCZAmV3sPXxTVt0jwD+FmclNRbpORxpSz2GTuVGF0nW7ZsWfH0YkxfsURSdtqRUPm59mmIi8qwdD6tT5OKyqqGvPrqq9nOnTuNa/ScLG+G20Qs2Cyqn3sALIOVuE/jUsuRvxzStNVEVcjTONyI/pd+G0AWgSAiMhJBz1MR0ny3IimqQh6UKtwjbUilUm14hVaNfH8C3//WHQv3NYkB8rWKAfK1igHytQbNH4rkmYXVAni/d2b5GWe8zr/wpQ0+Sf0sKIWmnf1F+LLU1yXrEXx/gOIkh0SQZ0v6xRdftO1pDxVChv4GvjngxkILK1EsxHRxe1kercydOze88cYb4bnnnit6gTTHdX8DbWbNjjMHS5YsMSXAlQ+w4naVvrwgyZoYP8D77LPPbEGT9TH/xUY6aa8vAmNhSFaR8OL4HW8LGSy30W5byIgokgdSAJ5AAtbGfv31VzugwC+p2aJGMYBlJFZaKMwrQt6hUAOpuozS67nPK+gZIB/3pFNZaX0YjAVUQtYNJ0+ebMdrnn32WVu14QfFLKmpC6icLuTVKBVOYVQOYZaDWST8448/7ICCVkdZZ9NaG8pIl5tKwZMDpFNanmE5QBkIcbSD9iBYFYEw64X62Tg/FRdZ7unfpKFstcfX04W8B4nQFJVSQExqrwgWEekCLHYeazkWzrSesVVUCSurrLKyM4JCtLBIqIo9SsVRJwqQNVlfZDDWgigryKweQ5pr+jH9mj17QikXwnDwhpAi7Tq1PGJaiSLN0wAKUYi2rcDOzLa4ZH0tG+ua1VV5BYujKl+NQYAapEZjVV5LENbKMO48rHmYKaJpaJMpgufcK59AuRqfgH/Ote67u338Z4iBb6BHWhn3SpdWqHu8AeheCiAdxEUekWsrTs8BeZBUgeWg5yoHqO8bebuID31CwL3iegOfDxIq25fFteohlOie5xAEaT6gZ6WgcoDSEydlFt9akKcgHqAR+ip9jb7FAPZ/wpMXZOFKQD5PFuiekLKIx7PMmxQJOi532P787t27LQ4lkIjBxxdcCUhPXl/+zUDatA7KEZGeoDRqJ8Ja3eBB+V0lBmLOHbDpSrvsyIuvkFGcPeyPPvrIlMCghQIgLyVUCsqUpsl7q/CkvJSCeECWgdLeUrk6Owy1fv36sGnTJvNsEFnnp7fKRAQD01dffRU++OCD8PHHH9tMD63p3SqXudMopQyF9bl667JHjh4Jn376aXj//fdtf54JmwxCaPvzdhGtiuXZm+fPwzCBYTOf05dMcnhtyQN4DRGqsmojLVfGqQS4NRMw9uTZcMWL4QEHJj8cQ2V+wPhmG5WMfrgIE5gVK1aETz75pKgdwDMmEPzBHb6MZs+ebScc2aJmgoGLATU6bTwVUQfxeI6eQ4pr3ZNGhiil3Jgy73UxmnSUy+4tnsmePIZivMLCnBhlYuXx8ssvh/fee6/rLm058l7juDyuRH9CEbwNmE1xaGHSpEm2Ja0ZFpqlPATF+Hc2Aw3di8aLvBGKoB2AOJ7jiXrj0B2xHpblm4NJE9eQ5G/5ICiBSRXlpt5CmZy6pgs89dRTVv5NLU8IvJVUsPo/5MjPJ7Cmm8zAUBTCc2ZpWFTjBtcqz5OHLBZDmBkiEGfmKAUwaCkN3VFKk4GA2u2RkqfALLpOxvs+frBky5cvt+3c2CAYmnCvax8XCRSvy6WhHCQqJ4tekMUpaRYVkUXPyeKHh0lUlglxcRqbRYVlkUhRorJKbn8rXnH+mcTHx8/abNeuXVlUqG1TVzxsx8yFqzywvveMFIqXC2IRrIgFeYXiolgQwZqI3BaLYk0J9cjbKFdlK15xvk4flkOP5H2BdxKQqFQEf10OFVv+bkSP5MtpVejpefrsTsjNcFdb/mYKGHD7WsUA+VrFAPkUTGwqeVX0N2jSpldhN/JxPlx2VqfMkv4GPnzgB3GmzUZeRAh5aF88dyH4vhC3ouVFHuJs8bAZwENZWNIX0Zt28ZnN+gLc+KTu8scD2BVha3revHmWkETlgKL6CsopQPEQZcFl1qxZxS1q4urfeuutd5WQCBYjWJVhmYfPTD5BpQR1CaXtK91DfVltE7jGiJBeunSp/dVjVppkuC47NgLLR/yt6y1bttgSNlvTLBOxakIFpFdlfQEYAmAwrRGyF89vgdiq5m9dP/3002ZUETfOkLe7AqQIBgcWB1nzZlEQZfBbO9bPOKyAIlBSXwErylh1/LjxYeKkibZUxR8O4AdRkGY5DV4yHuhGHkgBhCRmdQVhX57fzrNSyo95WN5uPdMaTp7Kb02zUoPSNKpSBlbxZaUgXo3pCZSB1XBx1gsZlFkwxcKQxsospvKHA/jRE92XwQ0hr8rwdZUkXwrKyPsRkiw1sXpKd2g5mv9ZV+vZ1uKSFIuhUhoegnCNkkp5DEqClIixGIo1Cbmn77JiLIEcq8T6IyDEkR7YsnSBMArTdYqKyXsLURiNZWeEiq5eyx88QGR5yLNWx4orpLmPdVlXIt4rgPLoq1gJ9xw7ZmxoHpb/eRrkIcbqr15VKIj0EKNO2oBXydsQ9e2eUDF5Ck7JA1VKZTRISpD2iUNJ/A6ee0FlCek9+fEy5aEOvI0Q8k1DmuxPWuCFpKE7EKr+myOEfwAfLVEzW08KNwAAAABJRU5ErkJggg==;" vertex="1" parent="1">
          <mxGeometry x="612.66" y="188.5" width="34.68" height="60" as="geometry" />
        </mxCell>
        <mxCell id="ZVRVcHzqKUU942DQ3SIE-16" value="" style="shape=image;verticalLabelPosition=bottom;labelBackgroundColor=default;verticalAlign=top;aspect=fixed;imageAspect=0;image=data:image/png,iVBORw0KGgoAAAANSUhEUgAAAD8AAABtCAYAAAAWGbkjAAAAAXNSR0IArs4c6QAAAARnQU1BAACxjwv8YQUAAAAJcEhZcwAAFiUAABYlAUlSJPAAAABfaVRYdFNuaXBNZXRhZGF0YQAAAAAAeyJjbGlwUG9pbnRzIjpbeyJ4IjowLCJ5IjowfSx7IngiOjYzLCJ5IjowfSx7IngiOjYzLCJ5IjoxMDl9LHsieCI6MCwieSI6MTA5fV19j1cb+AAAD9tJREFUeF7tnMuPVEUUxmt6ZoBhUHkIKCAIaESNgCILCCgmRkFjwoKwMyT8B241ilGXLgkrjYQQWIGJsPCxgIgRUDRCfPESFIaXMLxmYHjNtX6n+2vP1HQPPdDKDD0fOdS9dev1nXOqbt2q6qlrb2/PQo0iVxepI7WIXCGsSeSyus6A1CKi5fH5/u33dXV1XaRSxAHvQmReX7jtHbIsCzdu3AidnZ0hl8uZKN6jvr4+NDQ0dEkvkEfPFK90hJBJyyYdzxHKbmxstOc86w1ui7y03FOlNMpbI7UMRBAUAJHr168XSesZAlSPyiD0ceTvDW6JvCqnYjUMK1y7di10dHSEy5cvh/Pnz5ucOXMmXLx4Mfz888+htbU1nDhxIrS1tVkeQYSHDRsWRo4cGSZOnBhGjx4dxo8fH0aNGhXuueeecN9999kz0gwaNMjakHoDoeLUxp5QkrzXqIcIXrlyxUiePn3ayBw5ciScOnUqnD171sgSIpC8cOFCiHMJuya/iJaC6hXBoUOHhiFDhhhx4lACShk3bpwpZcSIEWHKlCnh/vvvD6NGjgoNjQ3WBfCiUuTTeusut7dZTFb3b5/xGdEoDceKED169Gj45ZdfwsGDB8O5c+eMLMR5jkJQjryBcrwiy5HuDQYPHhyam5uLMmHCBAtRyGOPPRYeeeSR8PDDD4fhw4dbPEpEGSiednlukXx7bFJsVCQPSIDrQAJChw8fDj/++GPYs2dP2Ldvn5E9duyYuTIFUaiHCveVVJM85SKU5cvDQ/CEMWPGmDdMnz7d5PHHHzfFoIRubb106VImwgC3xIK///572Lp1a/j222+NNNbFfX2FnqBQKq6a5EGq2LROiN577702djzzzDPhhRdeCHPmzLGuAk/lsbn9jUi+IY6UPMCy33zzTdiwYUPYvn17OH78uGksbbivsBRhj2qSV12Evjzu5daM+lwjjBXTpk0Lr732Wli8eHGYOnVqIUfEhUj+3MULGR7QdrEt27RpU/bSSy9lsb9QckUSK+yzEhWRxT6fxXEg+/DDD7PYZbP4Nspit83i9Da2vuAGbe1tYdu2bWHHjh3m+uoK/RlwgBtvpB9++ME8GxCnF6UF9HfexQxmuEw13PROA04IgBdGhRtdQzMCCwCEvVSCNE9fFBkTiyNc53KRH9SJuJsBWSDyeIP16rubdnfI0IU+b//XHPr/cH4bGCBfqxggX6uI5Pn2ZriX1A4i+dokDgb6fK1igHytItfZad908atHYe0MfGb5GuLbBTXp9vLubuT1sa9v3v4MOGgNzwPytpJTuC+iXIb+CM+BayMcubGkBXJEKhEh20HaMvaZ+yNkYQAXNjMg3o08idjbmjlzpm33SAGVQGX0NciACJucbFiwpSVu5vZq+JDBQ8L8+fPD66+/bts87HbwLO0G2gdXwYLu/0uhLZV0S6XHk9nMfOWVV8LChQttL4/8cLDtKtNCoVA2KE+ePBl27doVPv/887Bz507bmb106VLxORnZwrpZA6oNXx9tlmUF7gW2qh944IHw5JNPmkEXLFhg21ZNTU3/LmOzTVVIb9CDzhudtkO7e8/u8NNPP9m2NPfsfHD4QJpV/7nTkBLYjMS9H3300TBjxgwTSLPHj/GAlNSNPA+0MTmocVC4fuO6HTRgP37v3r2mBDzh1MlToeVYi+3wsHv7fylBDZfrQpbDCbg2oUgT4uK4PW0jvfcS0IW8Cpb1lYFruTt79pzIQCEHDhywa4QtbISDDGwLoZCrV692Ecpgs0D1qDG6B8QxKiM03IcIR1MefPBBCyEOQdybAwnEM25xQsP6dKHtSEocGHn/UMRT+DjSUjjgiArdAIE0pzUQxgj2xVAGzzjQgEdJAYSUSTkoWULZjMbsr0OOkLcQR1QIcV9GbO4RFJPjVElhMYb2ey8sRVqwAc8uYiKk1F488F6gNMqD6LkExKtQ35BXUmp5n04o5oshCmhsaAy5+nw/JZ9IKS9CWTzTcylRUJmlYOTJJAuocaXAc69V7klLnM9DhTwj9A1CaQhQHPANpBylETlB5elarg3kSdwrDvhroDQgfzIjVoamicRNKZRJAQWmxKoB6vGN8tcgrc8rvCd4YkDlaNCDGwrnnmc5/lOi9rZ2O5jAiA5xWSdtXF9FqXbCjXGJcejQoUN2NE7xRh6QseNKh53MWLdunR0aZMQGt6OAcg1Svf8laDeTHd5MX375pR2w4m1FvD3nPzUE12B2t3HjxrBy5crwxRdfhD///NNGbg1yCN1C114EXUNcAtI06lI+PoV/5stLxXspebA2XL777ruwdu3asGrVqvD999/bG8jyMBi/+eab75KYPs+Dr7/+2k5j4SK//fabkeccC/2FdLxrm4c2h7pcvpK0cgipjxKv0JMQ9NwjTaeyKFuDss+ne0Ly/v3339ZmSG/evNlOlTFN379/f3jooYfC888/H8aOHZtvO6eSsCqDABnffvvtsGbNmkLRwebCHPkkIyccn3jiCZtQcC5W72AGR5Qi0BgRtkritUZwwRNQ+p6g8hRiKIQ5BP25paXF2g9JhAnYX3/91eV8ER8377zzjh1OpD1lyUuTZFTjmFQw8eBoJ7MqFIBimFkxtWTygSJQiBTDyUg1HqFc3Qt6pvrUWN1rxkgIWQYtjsLi1ppZQlSHmknLgE2Z5AeUtWjRovLkmaZCfvXq1UXyiIfcDBckDwJBSDP7wlO4RxkogDjS6ECw3s0qB4i4RFZlrNEMkkGL7wjNGBWSDqJMopijeFCHyIMeyadunxLvCVIIISKihDRCZAmV3sPXxTVt0jwD+FmclNRbpORxpSz2GTuVGF0nW7ZsWfH0YkxfsURSdtqRUPm59mmIi8qwdD6tT5OKyqqGvPrqq9nOnTuNa/ScLG+G20Qs2Cyqn3sALIOVuE/jUsuRvxzStNVEVcjTONyI/pd+G0AWgSAiMhJBz1MR0ny3IimqQh6UKtwjbUilUm14hVaNfH8C3//WHQv3NYkB8rWKAfK1igHytQbNH4rkmYXVAni/d2b5GWe8zr/wpQ0+Sf0sKIWmnf1F+LLU1yXrEXx/gOIkh0SQZ0v6xRdftO1pDxVChv4GvjngxkILK1EsxHRxe1kercydOze88cYb4bnnnit6gTTHdX8DbWbNjjMHS5YsMSXAlQ+w4naVvrwgyZoYP8D77LPPbEGT9TH/xUY6aa8vAmNhSFaR8OL4HW8LGSy30W5byIgokgdSAJ5AAtbGfv31VzugwC+p2aJGMYBlJFZaKMwrQt6hUAOpuozS67nPK+gZIB/3pFNZaX0YjAVUQtYNJ0+ebMdrnn32WVu14QfFLKmpC6icLuTVKBVOYVQOYZaDWST8448/7ICCVkdZZ9NaG8pIl5tKwZMDpFNanmE5QBkIcbSD9iBYFYEw64X62Tg/FRdZ7unfpKFstcfX04W8B4nQFJVSQExqrwgWEekCLHYeazkWzrSesVVUCSurrLKyM4JCtLBIqIo9SsVRJwqQNVlfZDDWgigryKweQ5pr+jH9mj17QikXwnDwhpAi7Tq1PGJaiSLN0wAKUYi2rcDOzLa4ZH0tG+ua1VV5BYujKl+NQYAapEZjVV5LENbKMO48rHmYKaJpaJMpgufcK59AuRqfgH/Ote67u338Z4iBb6BHWhn3SpdWqHu8AeheCiAdxEUekWsrTs8BeZBUgeWg5yoHqO8bebuID31CwL3iegOfDxIq25fFteohlOie5xAEaT6gZ6WgcoDSEydlFt9akKcgHqAR+ip9jb7FAPZ/wpMXZOFKQD5PFuiekLKIx7PMmxQJOi532P787t27LQ4lkIjBxxdcCUhPXl/+zUDatA7KEZGeoDRqJ8Ja3eBB+V0lBmLOHbDpSrvsyIuvkFGcPeyPPvrIlMCghQIgLyVUCsqUpsl7q/CkvJSCeECWgdLeUrk6Owy1fv36sGnTJvNsEFnnp7fKRAQD01dffRU++OCD8PHHH9tMD63p3SqXudMopQyF9bl667JHjh4Jn376aXj//fdtf54JmwxCaPvzdhGtiuXZm+fPwzCBYTOf05dMcnhtyQN4DRGqsmojLVfGqQS4NRMw9uTZcMWL4QEHJj8cQ2V+wPhmG5WMfrgIE5gVK1aETz75pKgdwDMmEPzBHb6MZs+ebScc2aJmgoGLATU6bTwVUQfxeI6eQ4pr3ZNGhiil3Jgy73UxmnSUy+4tnsmePIZivMLCnBhlYuXx8ssvh/fee6/rLm058l7juDyuRH9CEbwNmE1xaGHSpEm2Ja0ZFpqlPATF+Hc2Aw3di8aLvBGKoB2AOJ7jiXrj0B2xHpblm4NJE9eQ5G/5ICiBSRXlpt5CmZy6pgs89dRTVv5NLU8IvJVUsPo/5MjPJ7Cmm8zAUBTCc2ZpWFTjBtcqz5OHLBZDmBkiEGfmKAUwaCkN3VFKk4GA2u2RkqfALLpOxvs+frBky5cvt+3c2CAYmnCvax8XCRSvy6WhHCQqJ4tekMUpaRYVkUXPyeKHh0lUlglxcRqbRYVlkUhRorJKbn8rXnH+mcTHx8/abNeuXVlUqG1TVzxsx8yFqzywvveMFIqXC2IRrIgFeYXiolgQwZqI3BaLYk0J9cjbKFdlK15xvk4flkOP5H2BdxKQqFQEf10OFVv+bkSP5MtpVejpefrsTsjNcFdb/mYKGHD7WsUA+VrFAPkUTGwqeVX0N2jSpldhN/JxPlx2VqfMkv4GPnzgB3GmzUZeRAh5aF88dyH4vhC3ouVFHuJs8bAZwENZWNIX0Zt28ZnN+gLc+KTu8scD2BVha3revHmWkETlgKL6CsopQPEQZcFl1qxZxS1q4urfeuutd5WQCBYjWJVhmYfPTD5BpQR1CaXtK91DfVltE7jGiJBeunSp/dVjVppkuC47NgLLR/yt6y1bttgSNlvTLBOxakIFpFdlfQEYAmAwrRGyF89vgdiq5m9dP/3002ZUETfOkLe7AqQIBgcWB1nzZlEQZfBbO9bPOKyAIlBSXwErylh1/LjxYeKkibZUxR8O4AdRkGY5DV4yHuhGHkgBhCRmdQVhX57fzrNSyo95WN5uPdMaTp7Kb02zUoPSNKpSBlbxZaUgXo3pCZSB1XBx1gsZlFkwxcKQxsospvKHA/jRE92XwQ0hr8rwdZUkXwrKyPsRkiw1sXpKd2g5mv9ZV+vZ1uKSFIuhUhoegnCNkkp5DEqClIixGIo1Cbmn77JiLIEcq8T6IyDEkR7YsnSBMArTdYqKyXsLURiNZWeEiq5eyx88QGR5yLNWx4orpLmPdVlXIt4rgPLoq1gJ9xw7ZmxoHpb/eRrkIcbqr15VKIj0EKNO2oBXydsQ9e2eUDF5Ck7JA1VKZTRISpD2iUNJ/A6ee0FlCek9+fEy5aEOvI0Q8k1DmuxPWuCFpKE7EKr+myOEfwAfLVEzW08KNwAAAABJRU5ErkJggg==;" vertex="1" parent="1">
          <mxGeometry x="672.66" y="188.5" width="34.68" height="60" as="geometry" />
        </mxCell>
        <mxCell id="ZVRVcHzqKUU942DQ3SIE-17" value="DB Key1" style="text;html=1;align=center;verticalAlign=middle;whiteSpace=wrap;rounded=0;" vertex="1" parent="1">
          <mxGeometry x="600" y="158.5" width="60" height="30" as="geometry" />
        </mxCell>
        <mxCell id="ZVRVcHzqKUU942DQ3SIE-18" value="DB Key2" style="text;html=1;align=center;verticalAlign=middle;whiteSpace=wrap;rounded=0;" vertex="1" parent="1">
          <mxGeometry x="660" y="158.5" width="60" height="30" as="geometry" />
        </mxCell>
        <mxCell id="ZVRVcHzqKUU942DQ3SIE-19" value="" style="shape=image;verticalLabelPosition=bottom;labelBackgroundColor=default;verticalAlign=top;aspect=fixed;imageAspect=0;image=data:image/png,iVBORw0KGgoAAAANSUhEUgAAAOIAAADVCAYAAABKbyzCAAAAAXNSR0IArs4c6QAAAARnQU1BAACxjwv8YQUAAAAJcEhZcwAAFiUAABYlAUlSJPAAAABhaVRYdFNuaXBNZXRhZGF0YQAAAAAAeyJjbGlwUG9pbnRzIjpbeyJ4IjowLCJ5IjowfSx7IngiOjIyNiwieSI6MH0seyJ4IjoyMjYsInkiOjIxM30seyJ4IjowLCJ5IjoyMTN9XX2rqQMkAABD10lEQVR4Xu3dB/A1V1kG8P2CCnbFrtgrSpAWYigBEgQCISQRQhECIVEUHHEcRYIZZUYcmKEpkYxKEQMRSAhgCAaEEJoBlKKi2EWjWMDeCxrzO/mez8Oy9/7v3rp7v31mdu7ee3fPnvI+7/ue95Q9dP0NaBaAy/73f//3yJHfJmwe//mf/9l86EMfat7xjnc0V199dfO6172u+fu///vD/96Iz/3cz23OOOOM5m53u1tz29vetvmSL/mS5qY3venhfydsEocOHSqfxxxzzJEjvy2KA4n4P//zP+UI+SZsB+r7P/7jPwoBf/d3f7f5tV/7teb3fu/3mg9+8IPNH/3RHzX/9m//dvjKG/Gpn/qpzdd//dc3X/VVX9V83dd9XXOHO9yh+YZv+IbmFre4RfMJn/AJvQVjwmpAxpvc5CblWAQziYh8H/3oRyert0Woa/X+7//+780///M/FxK+973vbd7+9rc3b3zjG5t/+Id/KNfNIpX7P/ETP7FYx5NOOqm5y13u0tzudrdrvuALvqAQ9WY3u1kRjImU24O6pggPImQnEf/7v/+7CMSE7YLiQ7bf+Z3fad75znc2v/RLv1TIiJT/8i//Uv6HEClNV39Pw3/6p396OVjE008/vVjIr/mar2k+67M+q/w/YbtAREpyFj6GiE6RcHJDtwd17viLv/iL5g/+4A+a3/qt32p++7d/u/nABz5Qjn/91389fOWNaJMQ8hvUv8OnfdqnNbe+9a2Lm3rLW96yuc1tbtN89Vd/dbGS7qvvnbBZcFeRsavOjxDRx3/91399XENOWD/UMWUnCINoH/nIR5rf/M3fLMGYX/mVX2n+/M//vPnHf/zHw1ffiHbjpZ1mEandjp/5mZ/ZfNmXfVlzj3vco7njHe9YSPl5n/d5xWUV1FkmwDChP9TxJ33SJ31cXR8hIhJOlnA74PZzNQVeBGFe8YpXNNddd135DTG1hWs0VptwbYK10b4uaXCNCAB3Ffm+9Eu/tHngAx/YHHfccc1XfuVXFsu5aGBhwmqg9LRFjULEqU+4PXz4wx9u/uRP/qS4nVzQ97///SUgox9YYxbx4t6IkDpANNXR1a2YlQ5CCuQce+yxzTd90zc13/iN39h8xVd8RfP5n//5h6+YsEm0+4yHPvrRjxYiTtgMEIOFEwk19od87373u0sw5vd///ebv/qrvzp85Y0IcQIEigb95E/+5OYzPuMzSlT0W7/1W8uYIbzlLW9pfvmXf7m4uAht2CMeTld6Nb7wC7+wDHd8y7d8S7GOSPnZn/3ZJcLqmZ49YTNAxHghh25otBvaZr67M2E5hIR/9md/1vz6r/96c9lll5UxwL/7u78rLijCUIJxH6HLgiEFa/XN3/zNhSzHH39888Vf/MXFqgHy6Vca5njPe95TrC2rK/2gnW6eSRikz11lDVnZBzzgASXAw32dyLg5aINMujh0g6aeWLgBIBty/OEf/mFxP3/jN36jWEJWMcMQ0EW8GiKcCOgQYPnar/3aQkrkqcHietYf//EfFzfV8xyI34Wu5xKKz/mczymRVUR0sJZm6Rj2mLB+xCpORFwTCDSCsUIinsjACr7rXe8qEdE//dM/PXzljQgRAvf7LRaKG8ricT/vfe97FyJyST/lUz7l8B3dMOPmb/7mbwoJX//61xe3lcX0u7zJY55Vo60IvvzLv7wQ8c53vnMhJgXALUbWaabO+pBux0TENYAQC3b97d/+ben3XXHFFc373ve+EhWNC2qogvBG4CPINQE0iPE97iHhv/vd716sHwIiJgIc5CZyh5GNhURILuqb3/zmIy4rS13HBNr5SB4RjkIQTUXC29/+9s0pp5xSJgWwmkWLT2RcC9T1RMQVwdoQeC6gwXhWkAU0QF+PBXYRr4YxPoESUUxEJPzcwlWGFTJMQjmYrZNIrbmr3OY2amLV+eSW6i/KH8t8q1vdqhCSgpC/CauBFzQRcQmwOCwcIedyEvBf/dVfLW6o8xptq0HA/cay0YRcTS6fqKX5oYIxAjHrFnBKAfnkkbtq/PKf/umfisuqLLMURPt3wxyCRfKrz8qFlVdlWVZhHO2Y+ohLwnxQQZE3velNZTYMS8gFJdRcQkSLAHdZQhXP1WRVEM9QhHNuKWLWYe11gXUUwZXHv/zLvyx9WEMeXFbWPMMdQTvfKZN8yyPysd76kBQIQpq9M6E/1O1ExAWBYAhoBoz+n0F4Lp4+mPG7IAIMbWsCX/RFX1QiodxP1iWD6YRYH3Eb0GcVvY2r6uC+6tP+9V//9eGr/h+zykRxmJVjHqs1kNxWLjZXFmEnLIaJiAeAFRHYYO2sgjApmwXh2iFijVpYaxBcQQ9WRBRUEMbyJK4dIRb42CX0bw17XHvttcW6699yWSmeBJi60FYyZumI8Arq6N9a9bEp676PmIg4B/qACEhIRR6NAyJlhgMIaQQyAut7fQ5xQblwrB8hzWTrXS9JypCLcrH2xjzf8IY3FKufIZd5ZUsdRNEolz7kySefvLH+7j5iImILhBLR9KNYPRZQf5DrVkcaI5AQoazB0hkI54aygg4unN8J6xBB8ZgLy2VFSIdyU0ZZlFxjVh1wT5WVAlJuLivlg5Dbcr/HhomIN6Aee0NAfSVCaECcNexCLYRAEAmZvhGBI4jcNMEM/UCkHBOQTxCKJ8A6cl8RVR0J7HSVv0YGqmMd9SEzqZyrvsiY6NGEiYg3gJuZ2Shve9vbSojfZGyD34Qv7he0zyHfaX1jbPpKrABrKAiDnGOzBMiGdCyhqKq+o74xcsYzaJe/XTcO1t8kckEqSskkhXgG3NkJN+KoJaJATEL5ooZIKKTPFdNX8l979UKErIZ+ES1vTC0D8gSN4IkeRiDHCOV1IKN6EiXmKWQXAdFifcs22nXG8iFdIqwixupJnfEUWMij3ToeVUQkFAgoGphJ2QhI04sYtqd/QZtE0sh8UNpef4hQ3fOe9yxzM30vA7QjJd8spO4oKbOHbOmIjOqQ0so81q76qsEzMOzBZb3rXe9aoq3ImHms+1h3i+CoIiKSCcTo79gf9Jprril9IQSk2QlaBrUJQ4QogpHv9Ro+/UBa3rYTtD5B21dBUn4uq7piDRHRDB1rK7mvGU9t11ddlyyf/qG64p6yktxVh3MeBkV3tOGoICLh0efjeooIxsVKAAIBa/JEaGrQ1vo6hh9YQAcy6heac3k0rUhQP6yfCCsLyZ1Xn7wLc1qNQ3ZNLK8hDXWGeMYd9a25qlnqRdmNrV+9CvaSiBrZEQuof0NQLJzlgrYXzUJbWNzPTSIMXFCCIRx/r3vdq2xNSFj8l76N61nTeppYFzzHPbP6REnD4Vrp+uwiuv8QIteAdOsB9PY19bPbHkD+c+765MM55P/cD/6n6BBQhNn+q4Z7rEThsvovz6iRNAMBLZsj8zLudKc7FUWnnx0LKU8p4z5iL4mo4W8oV7GCBMMANesnMsqtqoUjQpdzyHcRTxZPtO+EE04ofUAuaCY5RyBdT6il7bnzoG/pqEkcRKiTDkJJ23XcuLbLRtEQePclLXmrB9BzjU/pEWzPV1ZBmNSF/7iLlI5z5KWsHO6VD2V2jaOG+zP+yj01/mo3OhMguP5ZhdKu37ru5V/6nq+slJ45uPrelCCitutrn7BXRCQ8hMtUtLigwu60dVbGRxhqRBgCwsAF5S6JhDpoaxq6yzIRVM819MHizgM31ngazS/aWs/JZEG4zyYRyHue456zzjqrBDVqd8280Isvvri4iIGtElkUCgOheAO/8Au/UK6lWARI9GkJ9Ute8pIje+Ygrzw5nLNq6k6ElPt+85vfvDn11FNL3pG5C+pRHQvgaANl0A45KJgas9pCHesGcFOz7EqetcG+bpA8eiKm8QkLbczycUGRAgEXaXy/aVykIGSs4H3ve98jg/EEk1DPAmugr3TRRRc1L3jBC470OaWZ+/yGsCKGBrfPOeecEuhB7uSJxX7lK19ZDpHcgHV41rOeVaaM1VtWEO5HPOIR5TO4//3vX3478cQTS3m45Oedd14hBSI/7nGPK+41IsqDgItzZHfdox71qKKIeBIvf/nLj+TDDJknP/nJhRS1xZ2FKEVtkF3L7d2jnSgc9dFWgND+TXsgo7agJNSFvMpjl1IcK25ywQUXPPnw+SihwbleIqA0POHR8Bbmcu/SsHWD5Tz/cYk0roZmeQiohjcUocEJ6rwGJ1QEjFATeO4eErAi5loiD7dSfgihT/+zWsghbQci2mCKJSLEAVdQYIgFlc+A4nnVq15VPpM/ikdeDA8YEmAt7RggbRZRuUw0kB99Or/Lv7QRneXhTr72ta9tXvOa15S0RDTPPvvsMtQgzUVcRPlJvRo3VLeUTupKHWm7XAtdbeV6UW0BIcEgCg+4r1zseQpyTBglETUgV5P1Q7orr7yyDEfomwjE6JOkXwN1w9Yg4FxQrpz+iEnZXDuBGORJP3DW/QFh0T9ifbiWhMP6PBaPZUUKVpa7JqII0kcIh2fIL5eOIuEWKiM31LN9WiEvTZ9BFxEJuHJnVo90f/EXf/EIEfV1uXisCeVFYbmGUhAg8cl6vfWtby0k1i++3/3uV6apIdWiQwvyo1zp91FKDmRUF+nzqjfPr+HelEdZ0m+mnJRDnk1ITzt7hvIsoiCGitEQUYMICmg4/RruGBf0qquuKsLIGmkopIA0Zho00FgISBAIKzeNoN3nPvcpLhDXkYC075uHEFEejKcReGmzMKeddlpx6wgjwafdaXKWktvL0iGu+2n9yy+/vJSD+6eflPRr4qZcNRGVSzqudcTiKmssYnYCQETXcj+Rn6CrDx6AdC+55JKiULiFZ555ZiGh/tqy1kea6pTV5Voqs3qWR9ZRu2pf+faZuk85Ha6RT/WXd4SoJwpL2XPEXU0aY8FoiKghNBoLSFgdtDbh9XvdgODcb20QTEJFwM4999zidhEO5Fm2zxEiIqGgCIH2HNraJ2HnbgrkuA4h9OEMgwh+ECATzW23IdqIFNxA+SJ8LJN8udZvsdQ1EZFEGfyuz8paSMfzKQAeRAIybSKaaURRqGPfzZxxP+LoM+oXSmcdkD8EZBm1A6+BklEviFVbx7RF3Y75DQHVNa9IP5Ry1n6UD9J7zpgwaCIScH2qCCnNbijCbA5aMWNVbS3aBgtEiFko4XDbE4oecku5WwSDYHbduwhCREqBIOv3+S7fyJkNpfRvkIFgs5SeTwiBNWXhfSIbonJFkYywIYsy6G8hMqGriShdQSBlST8RudSN53OJfe8iojok2Mgnyio9hPAcCgFpks9VoY49W5uwuNxVbaDOuKy8ANckTzXqNqY01IlyspJIqX51TRIboLA8awykHCQRVbKGQDT9JZZEv+VlL3tZESqCohFcp1HSQDX8piE0LAEWpOCC2sVan1BfizCso5FCRIEagsASySP3jsJASAJOQGhslkB/lODJI4EzZGHJkcgioiIiIUVkfU9WzvVIyq1zX01ERNHPJdyEU93Jl3Nkc/8sIrrG/ywSoQ4B9E2RJP26WXW9LNR93HR1Qskos2fIj3wog3aG+tnJi2vICiKyjFxWsoGI6Tc6+nY3to3BEVGlc8dUqInFl156aREYETMCE/IFzmvXJSCohMfYFxdUX5CAE6wEQdaFEJE103f1nXAQBP0h2p7FIugsk2vlD2G5f0gjgulwzhI6WChpIjMgW8bXkKomot8R0eA3kmUvHQogU85m9RHltQtRUupR33STLp/8KJO6Ur70nfVtKTB12kZbDkA5lUmdUWJccm61enbNOtt9nRgEEZFLZfPzaf9Xv/rVZVEuS0iwCVObhF0VimC0t+CIAAMXVB9QEIaAIsMmNGOIyFqzbISHZRJxRA4usX6jvh5yIYZDnlhr2lzfEBHVg3IiEYvK3SVMeQ7htOcN4tVE1D/0u4gvq2JNpXywDu6jrFwzj4jyoq6QwfXyyjJRGOrVM9XxJqBNKC4WUj49k+WXJxYTSZVDftRPjVomIkvkRfnJDo/EwXrGOir/uuVgFeyUiBpbxWrwvKiFcLzwhS8sQZm4TSpQpc2rOI3HiujTsH5cUGTkymlEjbypig8RkRABND7h4QJ7MSgNL3+sGzJy/1wjb/qJhAQJlZ+AKLP6cKgb+VZXnuFThJdlZz1rIhomQX7P1o9GYEQMZhGR4CKYoQ1p+5+iYFHkxX8UC5Kry00KsLS1FestH8qjXT0XydQ1eajLVefHuYNXpQzKp39OwceaS1/5fR8KIXdGRAKlUjW2WTDGugwiswwEqLZ+4Nw9+c154Dd9Li6omSWikYSRdt1GJYeIiMSFJtgEx/PlUz838y9ZP0IiX8YsERGBbUeBnKwZ60kIWSFulbpInxiZ3IeIgjI1EZGMC8kNQxyusPoNZhGRO8f6UFwhIuWQneqUjdVEVPlz77bgWVxyS6SQkvKiHOpyQS0XdZvnXJ1rB0fGTgW2pO2a+p5dYKtEVEm0GU3O5TIGaJNbwxC0lkFa1qImYVcFcS24LoRY9JPweC8DASXEBE4fbFuVW1tEhGLlNbTfWDX9XYd+G/IQAO4ztxnZvDHY//KrPJQKSyoKSqHQ4IRHuu7lriEOjd4mIhKFiCwCCxyvor7Gs9S//PkPwbjQrGqCTRRDSAju4546tgX51N4UkvxTQMrHSgq4aefUN7mpkfb3qY2UQ3m4rGYPibJSjOTSMyjOXL9tbI2INBIh1A8kdCKEJiObyyjaiIBxN+ZVBAEjnAbDCSwX9Nu+7duKtqTduFGbCijMgkZWNu6PPq3nEwpupQZ3aHzQT0UklpviUNaXvvSlRSCUS1koFvveKCPBIyjqiLCxtEhDENUFMhEu1yERy0FQuXauJ3zSlh8EyzXymAkGiC5NxDe7hsBrL5YdGZWPkHoexZGB/21CfrUtJSC6yuvRl/VbSEihyHdQ5zHnZIwhMCTEGFCO6jfpu875Nq0+bI2ICMhaGAsUjGEJNXLt64OKqN0L5zW4Rw972MMKAQ1J0NK0pcrbFeRROVgfwktAaOv6QBxuFYtnGMV4JvJww3kCBIyFF2BC1Gjn9G3VlWukg2jIhDCIr/y+C7R4FlK5x73+YzFcK/qZa1hW1tD/yCXduH71s90rn4nGujdEThvtAkgjX1xx9SZ/8UBq1HJU59c5Aqt/dcjVpbCUi7KjyLaJjay+UGiHPgoBEv0TqDDOo8D6JTQx1JXTJp2GJzA0sAonBIIxNDfhUWEaZNdgMRBQ/wOpaOd2WaJlWSVCw7V0nXrglhN4jY8osexAwxMWbq9n+F25EQe5BLW4nn5TR6yq+4GVpv1ZU0Lq3lyDZJ6broD/pOlARPdyTw0DeK52Ugb3C9pEQewa6kf5yVT66MhIzrie8q59anTJHOWVYRqeiEM5KdXU5yaxdiJyDwgVEjL/rKCXtdA6+jk12g1ZCy9NzQIQGv0aloSQ0oL+mzChDW64LgAyijtkFQ5ZTD8X5skdIKQx57xCgCusS6E/uimXde1EpIFpI31A44D6TbRxOtQptMpwnkppVwbLJ2CBhNwlFpB1pIl36YZOGC7ST2QF9cv1AUWqReWRs0Ytd5FFcC5wQ9aQT1DN+Kx4RLyQTWAtROQacGMUnOXjhqYj7HdIwdtQAYjFNeJ6cg24ojSSPov+CJct/ZYJExYBMnLpyWCCaFxVRoLryqVF3HlyCboQZNA6TX1Rn1xWnhmirgtLE1EhFIa1U0CRUBFQ+5RkSlYwq7CQfqAABOvHHaj7gBMmrAr9XbEK3aTsYZvAGjmehbaXxkU1xKObpA/JQooks6CremlLE5HPzf+2GoL5p3W4pQotglibeuchY/tcP1Dk0yRnBHSOmJvyxSccnagDaiYqiFtkcfEs2YzsgnN9RFZQYKd2WRmNVeMWvYmoMAnCiOQx+WZh0DD8875QAJFE5j7jX6AC5mmrCRMWBWsVgpnkYJhCJF/EWOyiL8QpRL4ZDa4qKymoUw879UUvItIqxgNtbmQs0PzIGilsH0TjTJiwC6xDZnWnTMQwScMyt2W8uV6Obeb4IaIxqBq1GYc+53VlbOIcVrl/yOfBKmmM5RxWub/rfBmZrdMBrq69hniGPMZl0IuIAjP6hawiUgbJ2EGFhvZ5vm/qPKgrE+bdM4bzLsy6diznNdrXtD/XfQ59zuvfwguH82XQi4iCMAhY993qDA0R8jf0PE44GENswzpPOIEb7Smbi6IXEQVSjKsI1wbzTPiQjhpd/4/taKPrmrEdQdd/uz6CWec4gRvLzlHtRUShW4PuBjY9NOjKnIwNYQhChMtsCOM+7UnNYwQtrG6FzJXHUbfFWKFNjNMpj8+htRG5nkVCbWECiumYyw5j9B6+EPq176VVFFajQ0x0MoeABjoNyBsTrDO9bWRvGA3s3GwLneu6jzsmqOtM3nb4LhTvGDMoeUubyI22scPAENpIn8/B5UyXTJ3XMm0nhjPOOKPsEm8Ibhn0JqLKMYvmec97XllPGBIGMoh8LI8tKwx6GvbYFRmNIbGKmQEhL8i4zJjnEKC+HTSvg9LTJssGCYYCbcSto2QIvDYyN3nXMHncpBVT5Yw5Rt5reX74wx/ePOYxjzmyqdcy6E1ElWMgVLjWuyYMZ9QhWxlkeZhp4yq2nI+bsQsyqjjC6jPTkLKQdMxQJocyUSpjVSyB9qkn9O+yjeSFrJJr23h6B4gpcqZ01kSMwUHEhz70oWW5VB0/6YPeRJQBVsWcPeOJ9poxtS2ZBwIikxbusoj6aCp4FxXrufITyOPYhRbqcmmPsSsWQMTI0S7bKLJq+ptNn03hREr1DMmjid8WqHNLDeprjxC1L3oTEWTCIl+bDz3nOc8pS06gzoTC8PuZahUMIeo2MatidpGXdaJdrn0rD+yqTMkLZWDuNNe/VnTJl3WL3/d931c23RJgmiVri2ApIgL31HzTpzzlKWXZU/ooyczYBWPChBptueblWah+/vnnlwngq67i7zV8UcMMdBO1DQuYX9cFmU8BdnUezPp/7Ocw6799Og9m/b/p8zYyfKSPuI6tNJYmIohEZndpqDM9lPMcwb6dL3NPMKbzHMGuz8m8dYk4sA6sRETRUFpB2NayEH1BpjvHELDPLvKQ6nnT2GU5U88OUVF9QzLvMEKwDqxERJmwJouPzF+2yLcO36byUoicB+3f13UetH9rX5dzOOiavufQdV5fs+p5MOv/Vc6D9nl9zSrnwbxr6vP257rPYdY1gTHO7P+abSn9tg6stK8pMy06aiBWP1EAx8LLWYPLrp9l8teBdvoHYVN5SVrt9OtGHTI2VS8gvT7p5/r2fetCneZB6esXWgBszNAnUpL/dWDpqGkNYyw2iRJFtTGP8ZdA+NcqfsMd9raBusAKY2WzXa9FojLUsQgQPy9wqbc8CAh+xjKN8QhHG/P00lN5oTSCkMTrwLjb9iMxFtoHZhzZWzMbJ9f5MQtGiNuKbmlrwIMafltQduF520hoq65JGrohLEC6In1gWxVpqh+fUJddu9swzEp30xHJgFks2tWWiEHukR/36KOpS57YojAoTwZMoSMDtaxGBkwdNHfUZz13VFBGPllDhqevfMzDWog4Dwjq3Q4G/w2OQl2hBN+2id/93d9ddsvqY+o1qr1HnvGMZ5RKla406/Sf8IQnNE984hOLG00gbGx14YUXlka2Z0l9LXifopkS3kuhsfvg0ksvLW+yMpe1Hs6RtsFfA7+nn3562Z9nlcHfdUP+KClTubSV91KaYpa8g7owp/Lss88uZegDaUnTi2bt8A51vWt3yvKxj33skUn56u/pT3968+xnP7tcFyRPCPikJz2p1CVFvigYBlu9XHTRRWWbRYq8zguYmvmQhzykvPqgD8lXwXrsag+sU/ik1bag7fRZnkWEfp35CrrSXDQ/Q8G26qWGOhJrSNu6PkfgGhapbx9NmtLuysNB+doktk7EaJ2AS5QFx3Zkpj0XPbgVNNxB07sWqeDkK1u4S7tPflzPnWNZ2mWs0RaosUCZzP/kVShrVx10HerQ9e7LJO559RMgWuD69j2mm+la6J50PXfWIT/uk5/2NLpF8rUpbPwlNAo8r4/IBxfs4X+rINsN5A1KBx1cDMt/7J+TPo3KrNPn8uhLaNhMWNdHTF+2TQp9VnnxO7faOxW6nl0f2T5E/1BZ9UEidElfOfWtrOXs40ptC3UfUb1mpUGEkyUxZqZ+WPRF6sWhXtS1/qG20n+Gut65f+kjSp/FQhJdma4Nyhy6GoIn8o1cXc/uOvJeDPvvygv5rPMC6SNyk9fZD5yHrfcR24VW6QpL+DV2+/95iIbWEG3tBoRI/1BfQtqs56w+YmBurDmyiFNr5YMgHf0ayqReuwbykT6i3b5MEB4S5G9WHzFQF/puyOgIQReBusicTe1VQzrtPqK6pwie9rSnlX5il0xoTwQmO/WQ2UHwPF4PmfGMLqu4iz7iToI1m0BXY6nUvkTsI2Cz0JXm2IkIm6qbg4gY1PeuIy/QlebeB2uiVWkxrkUqoa6MPuc+699h2QbKfV1pL3peQ3rrEpZdoqscs8q/yDl0pbeI99F1XzttqH8jZ4jt4FIHuSZpttPeNrZKRBEu/SNazzShRLzqSljkHLoqHurzPlgkvUXOYdeNugksU/+LnAOCzIpkgt9zBLPOIXklX+TMEBmZQ8pgnmztAhsnYsjn0Lk2J9XqfZ1zg9sqyLnPBDN0ln1XgQ7T6FzjvvRP5lWe/2hYfT3WN5pQY9OM3MRsaXBQWougTsNzNThXGPK7PMgPj2CIkD9BswyoQ/Ku3pQpVqsu77Ko09AmgjTqh7wglmem3Q56Xv2/fJI1ckOOyBu5i4w5uMLGIclVZKx9vc88fxvYeNRUpapcgQyddY2t4hEKIQwUO5DM21lVgP/MXLA7mU//uwepMtSRtEEj1OcESRoq2sC8uYH+J0jC3vqtImainQIJacR2evXvB51DiJ6oayKnfqOZ9Q0pn1nLxnYFeXXoQwtieKWeOlY3BFubOZSnri+YVR9d5z4hv2sPikmE0pvAzFjRbq5Dgrxl2jNz1GnkvAYFawYTWaJUyEzyrx385kB88kXeyKFNn7SLtjPL6/jjjy/9wyilTWPjRFShKkeFI6SX1ahEFQT+UykawOE6//tdpfgUSMgYnagkIakbod0gKtpULLNAzAbxPVCx0pUOMlIQiZwlna4GXgQaM9ackEkb8Vl6AYBTTjmlaOLaRRoS1L02ENnMOCoFYsmPfAugiDg6+kB9dtWp51GWgiLqBiFqwWchWSdvAVaXGVKBOr36nDKMx4N40ot1JVfK53/y59wzomyQ0k5ylIIyxzpvAxuPmgbG74w9eZ+78STnhFUlKTBkTxAWkADQWH6jqTUEATBF6uqrry7X1ZWUSj722GPL24ZNynVoSJUdSA+pjWuZb+hNst5qJV9taCyNxqIiWZSE5yKvrSXzUlbwLIKFjKyt/y2clg8NzBrK4zZdnj5QN+pZmUzTUzemgCk762DsrZ6fqTysWQiUukEYZZcGEvFi2lAvLE/9qX7j/oK8UJbGfR3aieyQhzZBPF+7n3DCCaUd1LP0WFEKJV4QWUNSshQLLy3KU3lYUt5Zrby3ga0REdLQr3/968scUSR0RAvSxBpChToItMrSwA7Cb+7hT/7kT5brQSX6D2i0Rz7ykWXnOPcT+HaDBWkge7NefPHF5e1WbRA+gnbeeecVQWG5lUEe5RWZbSlply+gOOTZtQRQ3s8999xC5LFtAoxIJvGbO0ugkc0LPm0rqN7AcMy3f/u3F4sfoVfnlK73Zf70T/90UXAhbg17gD760Y8u7ihrVBOwhrZV5zZwslGZ4RWkgrS9e1k185Ud8kCmovAMWZlsQcG4h6UkSwhNSfhuvrMDgSOP28RWo6YqjJUh4IRagf3mM+cqjwWLa6FiNBQr6R6/tRGyud99hGIeCcF/nqkB2xWf+6QhLc/VfyCMrINPGlPeYs3BtX4jHNG0cX3GBgpSW6mbeBHKVEN5ufnqoq4b9aXNateu3Rap+0XayTXqldw4z+9tqOvkwbXyENlxpDw1pKMc8qLMZGgX2OpTY7loIhaD5qTdTIPSd6SFY0mgJqlDRaUhuqBS3eOzq6Fq5JpcXyP5zP+x3A7C5ZAfeakbTt+Vy22amOlUytGV/hgQS8Tyc0eVSVu13UzlUw+pl9ST+qnrJnVaY1b9t7Fo/SUfeX4OkG+TFCJnyhIZdPi/zu+2sfUna1wF1/cw74+rY26j+X9muuhbEegEUBZBVyPvAgJAysVlRUiN27YiY4E6pUh0JbSL6GXeOx8om/bcBjwn3RTo0+b6g9qGctQ+5tSSO/LnN33HROJ3hZ2oAI1LUDVuJoQTXr68SlFpfSJz67Y4y6ZHeQhUsPh9I4tDhrKwjKsolV22EQKzhgioz6qvmCAbJcNCHpVEpN0IrMYltDloW1aEQO/Syi37bPfFSozVEnZBuZRplTbZZXtqCzJFvsgZ0jnIX4Zkdt1eu3OKK6yqLXfZyBN2g1XbfN0WelUMgoiwSsXs0u1pY2gNvE5MbbQ5DIaIQ8JYXbBNY6qXzWEwRJwaeUIf7Ju8TK5pB/bN7VkXpjbaHCbXtAND1rbSF+EzHua1eJdddlmZZufFsV6qaSho1aGGWdg3KzQkTK7pCGEowQQIc3Zf9KIXNT/7sz/b/NzP/Vzzqle9qoyPCcnv0/BJF/ZNXibXtANjcHuMt5qiZTUC8pkYYaaIyRCbwtRGm8PkmnZg6NrWnErPMWMkA9QGq1lCv/t/E8I29HoZMybXdEQwO4Ql1Ac0G6Q99zL/Z5qdz13PUtoU9k1eJte0A0N1e1g+cyMt2DUv1+T59AURznfzJy2itR4wawf1KdeBqY02h8k17cCQtC0iiYTaa9RLbkRIBWjsQYpoLCCEiBbvvuQlL2me//znlwCOF7+4VxqIvAop980KDQmTazpAKA+3E7EQ6M1vfnNz5ZVXNldccUXZDcAwhW0orKmz9s6CWItb3cNSIqlrL7/88jK84dP2IqykAA+XdezYN3mZXNMO7DovrBvCZHiCFfQ+DWSzAt2+PDY3sreKfVZszeGwJaC9V+yb49PWISygvV5sW/EjP/IjzVVXXVWiq8tgaqPNYXJNO7BrbWutpo2aDNqzctkiguWzMZI9Ou3diXB2V7NPDmLarzO/++4cGRHYejwv62EhEdy6vL6Wcd+s0JAwuaYDAutl0bRF0m95y1uK62n/FZsu22/FNhD2YEFM1tAbfO2l46j350TW7EaWvWHt9WOM0aZd3Ny3vvWtxcqyvmPEvsnL5Jp2YFd5MSxhtzHBFf1A24YQGiS0n4rd0PzGkvluwyPBGmOIGUfMcAVSzxI4/cuXvvSlpc+YHdkWwdRGm8PkmnZgV9qWxeI2soiIFgJmvNB3FtG5cUQkrAmXMUTXzxM2VpfbyyoK7hgCWSTfq5RtlXuPBkyu6UDAknEVuaT6iLb/0ydEqJBLX49bipyipbYY5HpyQbmj3FJbGdpSMtC3bMPOZshnWpwd2pB6bHW4b/IyuaYd2EVeuIjZRZvF8pl9fHz6ni0AEUmU1LsWbWD8qEc9qnn4wx/ePO5xjyufXjNA2JCN+4q4NZA5L2JBbs9bZJL40d5Gm8TkmnZgF9oWEdP/Qz6E04fzWgB9OpO787oCpEQmL1vxagKBGpYxbzwS3HHY/Fe/0zaILKUX8iDqOeecU3botiO64Q8u7yLCuW9WaEiYXNOBgFVCGC6qA9msqrDtvWEHWwE6LH/iurKS3E6WzIFILJ8+JEJ614bhCyRDSFvbs6Df+Z3fWazogx/84Oae97xnITMXuMuFHTL2TV4m17QDu8gLS4iMmYI2Kx0WjoX0LggD9cjr3hrcUST0VqMHPehBzbOe9azmh3/4h5vTTz+9WEoWFPnaLutBONrbaJOYXNMO7ELb6vchUIRkVjqIKrrq5TkvfvGLy/xTL2fxlizzTLmupsZJSwCHxXPoDxpnFMgxHrnMUql9s0JDwuSaDgQG3PX78q4GqInSJo3+ohX5pr9dcsklZXI3Qto+A0nNUc37Hx1c2QyD7AP2TV4mizgQCKbo27FWByGkNG6o3yigYxKAQfqf+ImfaJ74xCeWgMzjH//44paylog75pk0+46pjzgQCLIYDzQ22LaKKV/7XJBGhJWrmjcdCeQI6CCevqRVFwj6ghe8oEwg9z1zWMdsHVMPy2CVezeFySJ2YBeNrO9mCEKQhXVcBJ416wCRVzNnzNbhwlqfaEmUQI+1jH13e0u6y2CVe48GTH3EDuwqL174aZzv+OOPL9+llSNon8/6LwgBWEDvoTSH9bnPfW5z4YUXFre2HXGdh670F8Uq93ZhSHlZBybXdEAw5ueV48b37na3uxU3NSA8jnllrf9znu8+WT5T2URUWUkBnbe97W1l640xYl49HIRV7t0UJte0A7tqZIEay5dOPPHE5swzzyzT2Iz5IWTXgLtnLfq8+loRVATUXzRpYFEXdZWyrXLv0YDJNe3ArvOin3i/+92v+aEf+qEyj/T2t799Gd4A6bePYJHzwP41+orXXntteWPzIi5qVzqLYpV7uzCkvKwDk2s6QJiILXBjmhpCmhdqOOKBD3xgmdBdu6xAsCJc9XlQ10/OTQwQzBFlZR31IceEfZOXyTXtwBAa2RCGmTD6jGeccUaZI/roRz+6nN/2trctk7VN8Db2yH0V6DEEYkYNzMuH//K/sUVENCZ5kKUYQr3sKybXtANDygsBFsSxyoKLetZZZ5WIp3HBZz/72cV9ZS1ZTtFWpIQ6H7POwfvjs9XiQXlfpWyr3NuFIeVlHRgEEVetmH3TtvpropvG+qzWt2GwCKfd1/QVbRZ1q1vdqjnuuOPK0qZTTz21EPTss88uVlOgx4oL9dqu23ZdCdRYgpUtNsaCVdt8aGXdGRFVpCghbe9YZhLyprBsPriT+nfIsshUNdBXMxfUGF9mxFiHiHxW65ueZg6pyd2+mxVjGEL6VvHbsY37etJJJ5XVFY985CPLWKTfE+CZVx7Pn0VC91mhwd2V1iptNJS2VR51pzzK1XcFyqaws1zY6kFAgnbX12lP7eqDdWu3ZdNTBn02+4vaOW0RsEg2jLr44oub888/v1g0/cEf/MEfbJ761Kc2F110UZkV89rXvrZ55StfWTYO7trwiaAjilk5+o/GIm2pCHV52mXTDpRHl0BK03+m3klrH9oIAcmdOrI6BSmHoCR2RkRCk306heutPFjUirQxFG0bK6U89o9ZROMav2MRDbK/853vLK4oq2hIQRDFqn1zSLPrtw2fbInouriUgXogoCKg0uwakmjXlQAPwZTX9n++K1MUJpIv20brxrJtTu4oFFuFUDCmFg7BKu4kB9FmtK2+DOuhcmjnIWCVRo7GVa5FtC0hcA9CHvRuCmT0AhpWkctq1YX1h1xaB/IiqxX9iIrAMC8PyGWtou5BWyDdp0zKQmEi7bJttGydrhvKQ+4SaVb3Ry0RaXFHKkHofBUMxe1BPAKNVIvMVAGWiGtuFo1+ne9BLbw5R1Z9RS6riOkP/MAPNE94whPK0ifn3//939/8+I//eCEsqwh1eZznAASzar9+buCZXNF1COqydToLy6anjcjdUBRDsBMialgVYaqV5TvGspzPswbzMJRKpVC4i4YELE1CxoMEhqCnX2d8EJFrKFvK5zMD8R/60IfKK9jsaWPeKLdWgAcBWUckrN3WIGmxbOn7cTtZiTbkPxFci4xXaaN1Y9k257ZTZtqI7CnfupXEMtgJEbkHgID6QA7CJRo4BCzbyAIvop/6dsq2yJo/SomGRgjjgMjRJmONOm8hpWfZ9Y1gtVfiu76rPJ5pQynDIJ7Z5XIiovSQ0EoNSmbZNlq2TtcNylJ9UVbKZT3not7LJrEz55iw0EoqRKBCI/ttGaxboy2bHk2rcZVH2RYhYuA9Fne9611LtJOrCu7NETjvEur6t/b/7ftBcMyubiYJUIxdaboW2ZWJ9UX0sbcRZaltBMRM7zvqiagiaVcV4eBGLVshQ9G2hJbG1diLTBmrkWGC+9znPoWMrBWrFUjLkbJ2Ec9n+//kIfd6zh3veMfmoQ99aCGh6G6u7YL7tJMyrdJG68a8PM+D/Kc82mgorvbOiFhDpS5bsZvAKnlZ5V6hdO6pjX/vda97HRky6IpowiL15n8BigxT3PKWt2zuf//7l0F/Ifx5bnAbu6qXdWORets2BkFEiOZeBqvc24Vd5QXZkIY1RBQD+0hZR1Ol3z6Crt/1/RCQ9bOp8NOe9rTmYQ97WFn36Fl9UD+rL1a5twtDyss6MBgi7ou2XRXImBk6VunbIPicc84p5DnttNPKVLbb3OY2xY1FTtfXpDMmayjkLne5S5kIjnzmoLr/AQ94QLnXGJp7x1xv+yYvgyHikDCERtaXE0nVX3zEIx5Rpr4hlDWJ+pFe381tTQQaIbm2NhO+xz3uUeadZh2j+3238zcXtcvNXQT7JvxDwuSadmBIeSHAIRgrZ6UFQnJZ9ffSx2PhzJBhMbm1VmAgJMIatO/TF5yFqY02h8k1HTiUjdVDRvNYTcvilop2cmFj3Xyyoqyk/7mopqaZz6svGMu5L9g3eZlc0w4MuZGlj3SIVZMrWt7/myLdkOtl7Jhc0w6Mwe0xHtaeMGBMbJPjfFMbbQ6TazpCsHiGH+585zuXqKqIqE+r9Q11cEWXDciMBfsmL5Nr2oEhN7L0kcyax5NPPrmsyDfeaNtFgRyTx/UVN5GPIdfL2DG5ph0Yg9sjEGPmjcipids5jBGymJsQ/KmNNofJNR0pLJ8yJCGaWh/c0qOhPvZNXibXtAOTUujGKmXjTifaKx2fy67230dMrmkH9s3tWReWLRsCstRWk2QCO+vdfkNyH+xbG02u6YSNw6wf/dlb3/rWZUK7tZem2iHhom3HeprQUO+Qtyyhhigvk2vagUkpdGPZsrGGyJfAkoivYFMfcGUR0VQ/q0n2DZNr2oF9c3vWhWXLZkGxrTzs4yMNU/OyrKsvEJJruwqG2EaTazph40CekG9ZErhvXavphygvg3NNVVKOXWGVZw+xkZdBVxssWzYWzGR1ZJQGUi1DyK48BfP+m4dl71s3BumaJsS9KJbVsrOwSnrrzsuuoP7b7bBs2aQhMMMiipoKvEi7D8wWEuDpWkmS9Bd1Wety5N6++Vk3bnLBBRc8+fD5RmFbvo985CPNBz7wgbJBrv03beKjUlRGGlwj6cj7T7/Cjmj1Yct5r5sO2vcKidO8lv9o+FmktqWenbHf8573NO9973ub66677vA//w/pSUN69va0TaI8ZFdt+VCOrns90/1ZDU+QxjAHVH9OWe0g/u53v7t5xzveUeqqyy30/kbEcr2X46SN7JCmndWre6WpnbPnq7daqR8E8Lt6qjfKCjzTJk/2cJW+XdfsJOd+21YGaV/RVGkmHzm0kZ3P82bktjzIg3stIZMXafjcJjZORIVUoV4xZot4rxezES6h9h/UFeM3u7rZwk/FeTNSfWhghA7alWpnrjR8+iWOQF4oBQ2D1DbmtVWg/UGDpOnTCgdBBuTzbHlAQIft7QlI173yQJlklYTf836PoZJRnpEFgbzW24GQyADtugbXE3b1kTZSt+6zF6p7lR+BkMcetj5tPaletQUllTHFum78T07Ii/TIhN98InQQGZN/aScfdX60E8Xumroc2oe8ScN/QLmI0Lquq8ybwKEbMrFRXyqN+8IXvrB50YteVBrGLtRpXFDYkFJDENZZAotoKi5o34t0tKtwue0h7IZmB+3As7196bLLLitvWCIItKR067TSCCwqQZG27/kPNL77uu517l6WWaOajP093/M9JS8syRBBUJHwmc98ZiGXunEoZ1f5ouTa7eS/CLh7IXXm03/uI/AOe+tYPWI/HcozoCS1kfd8kAf1RpZ4IAjdhrRqpRt4HqUYxQh1ecAEA64vy2hrEYe225bLunGLiHBcFZXJGmrYepPauoFyHgFHkPYRrQVd9/o/ZNdoto8wkAwagjXlGssLC+c5ETSo0wL/ua8rP/Pu9anRXUP7y5fxM2NgGZAeGlgwrqi2IujyTlhnlU+ZZtVLhD7Xg7Qi/O51rXZCAsGcvNMxxL766qubl7/85cUz4nW4lrLwWctQkDTbR9oJ2mUIpEduWG47HMiLLtK2XNSN+0gahFsXdzIVUVdIF9rXdR3zgPBcYS5JGl9ekJOb087PLNTPm3XMQv4nBPLDPdefGiLUkTpBRoILi5Zv3lFj1v/qRN1wO5EJkJjl079DEO3GTeWSqsuutOYds1D/H8XJvZUf8rItbJyICqfi0rghBWzyvK5cRMjvvtOSbY3aJ23oe57nbrNxF4V8qiNtJI/yGvQtZ99ziGV1OPd89RQrViPtusozZ50HqYuu/zaFjRNRYRSsbtxApfo/BV7lPKg1HHRdIy9d90F+r+/rex7U+YB23oYEeVcv7bpp57cu5zLn0JVmnptrkpcauS+f9fXLnrfThK5nbxobJ2Ib7UbQH+CH6yfoqPc5dKYTSFkXRO6kKe2uZ8473Derc6/c/ltnXrcJ+Vc3AiJdZZ93pJ3cvww8u0tulm0nskbm2m3RfsY2sfGoqX7HK17xivL+97e//e3ltxSYRlKZolXew+C8D7hROvH8+dr1rdP3As8nPelJRQi4yKKBF154YXPttdeWPkd9LQijC6hkTKkP9C2MebWjhdIW8TvjjDPKG5js4D0kyB+X8A1veENpq9e97nUlaJG8g/oT/bVHqsBKH+gG6Afq30kX6nq3okKdnHvuuWWVhoCNtvV6gKc//enluiD3iY4KfsnTMnIjdqBP6rwtAyLtD3nIQ8pGzuRhG9g5EUWozMhXeMKa/xaBRjUGaCjCc9r3Sr8vEYXQbeTrLbo0Zx8Y7xKRFZxCxjrtsRIx/yOHIRh14z0afSBqbDxPnXutONRpL0rE+h6RZ0Me7u1DFveSlde85jVlHLiWG//B3hLx8ssvL0Q0ZJBCg4J7T4Nt5b/ru76rjP31GbcRYjfo/KM/+qNFw9Vpg/TPP//8QkTpir6FiO6riQiutwGTnbLtiEbb9sGrX/3q5uKLLy4Cx1LXDTx0IrLgb3zjG4tSQ0QWrM6/uvD+RruMe5tUHyC1NF/2speVoZF2nYeI5513XiEi97cmYle78qCe8pSnNCeccEKx0ouCwuFBGSulNNtyI+1dEHHjHRaFZI1CMAWtoWJEyNq/LwL3sTx1x7qdjn6AZycfBoZ9tvsHyzz/IGwizU1A3aijup2CugzrCmJ01Ys8pG3acH2OVSH/lE5XWutIf1lsxCIiF3cksyBoQYOzZrRANJCCs4JcHS9Xodn69Mv0x8wEYYX0P5JuIP1zzjmnHIC45isaJJYXU6XqvAANSyMed9xxpe/aB9dcc02ZCWK6V8a6QNosCq3vfRR9XbttgWutnbosuqCI92h450Zfiy4tEwVYXM+Atgzc7na3K96CrgoysogvfvGLm0suuaRcB/U9ZMU2kvLk9QOLYhEZ8CJXMqCc8pZXF7SV1DqxdiIioZkPZq0w+2ZFIAt/XAWk0KDgTL9XkOmbOe9DRC4P9/Jd73pX6XjXaYP073SnO5WNeCFBA5OZkbgWNnC9AIC+kNdnc5H6wAwijUspaPC6gfV7pClts32GCO2lnQzqt/u4giO3uMUtSn+eK9kH0iIH6odbeJAMEHjBN+1qUkZXu1Js2hVR+ijMRWVAlwnJlVW7+dwkGddORFaQRXj+859fPvUR9c1oOJWgoHUDx10k9ArZrvR54GIQeNbHuXvb6au8BF18d538uC/35D/n8iIK57PvUIMyEjrKKC5c8pRwO4GW9hChTpQBCeQ/eQf5pyRnzeecB2klbZ+pa3DeJQN+107aNnmA/Oc6bStPfcjh3kVlQH6snqEgvBYPGfvGDRbF2olopjv35ud//ueL9iOYQSqxfb4uLJP+NvM0Nmy6PhZJv33NtvNEiQsg2UldAM++O5vAWoM1CsDnRkbuGRIqGOSzDb/Xlqe+vu95UJ8H7WtnXd91zaLnszDr+nWcw6z/Vjmfh4PunXcetM/ra+rzLsy6dpHzRVBfzyKLzvPujBOvWwkEayOiDDLzzH17nl5dATnP/3FLusgIq57nCDZ1flADLZNmMO98mXuCg85nlcnvy6YJy5znCJY5nyWT+X3WvVzruOxk/KC2XgZrt4hQF2IWkE/n38C5ZUrG2fQ9pDHGA/QfuDF3uMMdymu3fadguq4f+gGUpIFzgQtlEp1M/7DrnqEfwNUkd6LitmbURgf1Md2LjI6ks26slYiAhO2C1RWRT0T0ajFE1NCmTfUNAgwNGtU6No0s0rbpkPemIRBCQeoXKVNNxLFCAMYQifIIvph7mjaqZTTn28LaidiFWMiuwomk6ksy/aKNY0YmJ0RzbsqN2RbkXZm0USLeY0e6T8qjndpIGRfx6taJtUVNFcBh8P7SSy/tnK8oJMwtsO06d5SGNQbEfTPGqGM8ZjKygCaLc+cM4whYCZN3NfgYwFJoH+1kHNSmTcaIM8F+jCCDPBdWUVk+/OEPl8kn5sC+733vKwEZ5avlVpuecsopzVlnnVWmY/pv3URdmIiEiTY5iCiGLsxXNIE4RIyWUQHHH398mct52mmnHSHvhAm7Qkhlsrs9lewIgKD5ryaimT+GMOZBv5oCq4OPi2AhIiIhc45YNP08mB7FGprg3TVNiiVUoHvf+9574+5MGC/Ip76wqYmmvZn9w4up5dYUN9PdTAJnSObBtWYHtUcCDsKBRLQvpSlPiGWMUH9uHriYlgH51O+rCyRz3BzTvEQXx96HmjB+kE8WzKoc0zLJOwNRyy131rREgTgu7TwkGHTiiSeWFSKs6SKYSUQZQBRzJ6+66qqyHSL/uQ/qwkyYMDYsK7+I+B3f8R3FgpqvyjImrVmYaTuRkBtq1vwVV1xR3Mw+qB/sPMeECUNGl6z2lVtcYbxMWBcIWiRYN5eIophmqNdbUSyKyQpO2Bf0lWVc4epmJGAlInq4BHVcw+paU8zTGjlPAXy2C3PQvbCuc1jl/iGfB6ukMZZzWOX+Rc6hltd8zrs333NuZEFgk2UUJ1mJiBKsw7B5GNTnQU20oZ3DKvcP+TxYJY2xnMMq92/iPDiIHwdhZrCGNeSWPuc5z2l+5md+pvxWP0BmkFQkdJkHT5gwduBAZlK1uQGPecxjmu/93u8tUzkPmhq4FBHzIGFdK6t9xnLmP9fmfMKEMaPL0CCfbpvZRomftPlhQzREFEVdGxHbmfEwD7BviPEVZMzvDsTM+YQJYwW57yKi2TcCMmbjGNbr4sdjH/vY5vGPf3xZ5c9znIdDN7D6ep3LNmEQ0YLI5z73uc3znve88lv9MNcbsPyxH/uxsnqi3o4CXOu8ne6ECWNCFxEZGUN7psOR/659eIBr6lV8XUR0velwue/Qddddd73oTuaQ5g++rwmxdtIy9QfyXx5ktsEFF1xQljKZFDxhwr4DBwQxbVZmovhTn/rUI2+MbvPjwQ9+cHnPotlkIaL/XIeEpsPhDW/y0E/91E9db2qP8Q4XmHeH8YiJoLYIsLNXHhJI0Mx8c++sWTvI9E6YsC/ABR6jdzXO20HQOk7eosUOiKdfafpcVrXYEc/GVBaRH7r73e9+fb30w0U+3cQqIqMD6od5ENJmQW+CNRMmHA3AD5xpz02FWEQEdDBSiZmYKOPcnFR7s1rNYS9ddx/YifMQieRh7fMJE45WzOJEOHMQvMbAUYiYBKDr5vr/sWHfyhO0y7VvZToa2sj/3jzm8M/HSSpXk9tpyRNTGoyxchSWK6BTzIXgTgRjLQ9oIy6P7oP+fNppzG2kPM65fQkeBn4fS9nSRjikbwjKU5cp15DLsrHyDYV7cvnlBiiom0VzHARXpTgC1ySRsZwrk+0rfKY8y6Y1hHPQ2c/29MqjrYJV0t7VuXLoTxFKpIzs1ddA33R3dQ6G9JQJ2ZQlcZj6GvC9ENGfQFAtZDRbxjsF/E7jmrg6ZmhcC5ETWDIY29a4Y4OQuDZCRkIrcjdmCOEbl+amEVwBwlq5jBHKokzaCo/q3S3COQrocID0UKEnVjKjNK038wi7IqB3V0ggmrd2VccCDWv2j/IZpjEtaezKxSCxA0S9+y7aHhoyXdJ2KgholwdTyMYMRERC3PIWrLwJqwbjxyUvRIyp5BKwGF5JZbMc1lE/kfD6nRUZo5ZS2LhxFIklKmPXtvbjJLRgmVo2PBorKEllojTJYd6oNWYoC94wZFdeeWVZLNzGxxDRD8gYItrcyU5rdkL2Pb56rhsj0mmGsbuloK0coH0cY8dhF60c2misshZoH1bdu2C8w9NbswNlVL5OIvqTwJ555pnl7TdeqElLTZgwYTno69puxtvRvNq9jRCxqNRoHp9cNtGdRVcWT5gwYT642PXwkqONQsT8mQtYRS5p1w0TJkzoh7jcNTq+3+iaBqyi112ffPLJS72+esKECf8PfUSbFl9zzTVlgngIGC/046Km9QUW/AolizTWQY4JEyb0g6CTKL2lUtb3ziVi+aVC/mRSJ0yYsBr0D/UT20NmyDiXiGHrhAkT1odYQ2hbxI+JmoJzN+SmsZ8Hs/4f+znM+m+fzoNZ/4/hvMvA8Tp1/1z5McugJkyYsB0gpknhYjEfZxH3Dftetn0uX419K2fKY1L4fe973+YYjGQe80dd4H05X/Y+GPJ5G6ukNYbzZe+DIZ375I5aauh9oaeeempzjBcwZvKwC2o3dR/OcwT7dr7MPcGYznMEYz0PGXHOa8Btvma8/pg+S01qdk+YMGF54JKVTXZQtBvcMR/84Ac/ZvuIWQgJJzJOmLA6jCtac2nGjTWLh25605teb6CxXuoUrJN07bQnTBgaNmlkavn3HEukjB/aSvFNb3pTcwxr2F5l4cI6U1btn3TSSWXbN/5s3nPRB0mzTncb2Pbztold1OeusKlypg4dyGKAfdaMMr/7P9fk+hz5bsEEomXxhPN2/nHOCifrfuHQsccee/373//+I4zNDRKwFYOE7fXyoAc9qJhTE1i9V98eKRLzfxt+t6o/C1ezCWtQP2vT58EqaQz5HFa5fyznwSppzDoHxCLzNnwiv/XicdeYpkbWM/VT/w4frMJHONeQcf+7TuzF7zhgrqlrpVs/1/v1bdvfNE3zf/AUybovzZeIAAAAAElFTkSuQmCC;" vertex="1" parent="1">
          <mxGeometry x="610.66" y="278.5" width="98.68" height="93" as="geometry" />
        </mxCell>
        <mxCell id="ZVRVcHzqKUU942DQ3SIE-20" value="" style="shape=flexArrow;endArrow=classic;startArrow=classic;html=1;rounded=0;fillColor=#ffe6cc;strokeColor=#d79b00;" edge="1" parent="1">
          <mxGeometry width="100" height="100" relative="1" as="geometry">
            <mxPoint x="250" y="315" as="sourcePoint" />
            <mxPoint x="170" y="365" as="targetPoint" />
          </mxGeometry>
        </mxCell>
        <mxCell id="ZVRVcHzqKUU942DQ3SIE-21" value="" style="shape=flexArrow;endArrow=classic;startArrow=classic;html=1;rounded=0;fillColor=#ffe6cc;strokeColor=#d79b00;" edge="1" parent="1">
          <mxGeometry width="100" height="100" relative="1" as="geometry">
            <mxPoint x="230" y="275" as="sourcePoint" />
            <mxPoint x="159.34" y="290" as="targetPoint" />
          </mxGeometry>
        </mxCell>
        <mxCell id="ZVRVcHzqKUU942DQ3SIE-22" value="" style="shape=flexArrow;endArrow=classic;startArrow=classic;html=1;rounded=0;fillColor=#ffe6cc;strokeColor=#d79b00;" edge="1" parent="1">
          <mxGeometry width="100" height="100" relative="1" as="geometry">
            <mxPoint x="230" y="235" as="sourcePoint" />
            <mxPoint x="160" y="215" as="targetPoint" />
          </mxGeometry>
        </mxCell>
        <mxCell id="ZVRVcHzqKUU942DQ3SIE-23" value="" style="shape=flexArrow;endArrow=classic;startArrow=classic;html=1;rounded=0;fillColor=#ffe6cc;strokeColor=#d79b00;" edge="1" parent="1">
          <mxGeometry width="100" height="100" relative="1" as="geometry">
            <mxPoint x="260" y="215" as="sourcePoint" />
            <mxPoint x="160" y="135" as="targetPoint" />
          </mxGeometry>
        </mxCell>
        <mxCell id="ZVRVcHzqKUU942DQ3SIE-26" value="servers" style="text;html=1;align=center;verticalAlign=middle;whiteSpace=wrap;rounded=0;" vertex="1" parent="1">
          <mxGeometry x="398.42" y="405" width="60" height="30" as="geometry" />
        </mxCell>
        <mxCell id="ZVRVcHzqKUU942DQ3SIE-27" value="" style="shape=flexArrow;endArrow=classic;startArrow=classic;html=1;rounded=0;fillColor=#ffe6cc;strokeColor=#d79b00;entryX=0.417;entryY=0.915;entryDx=0;entryDy=0;entryPerimeter=0;exitX=0.222;exitY=0.766;exitDx=0;exitDy=0;exitPerimeter=0;" edge="1" parent="1" source="ZVRVcHzqKUU942DQ3SIE-24" target="ZVRVcHzqKUU942DQ3SIE-24">
          <mxGeometry width="100" height="100" relative="1" as="geometry">
            <mxPoint x="380" y="215" as="sourcePoint" />
            <mxPoint x="330" y="135" as="targetPoint" />
          </mxGeometry>
        </mxCell>
        <mxCell id="ZVRVcHzqKUU942DQ3SIE-30" value="" style="shape=flexArrow;endArrow=classic;startArrow=classic;html=1;rounded=0;fillColor=#ffe6cc;strokeColor=#d79b00;" edge="1" parent="1">
          <mxGeometry width="100" height="100" relative="1" as="geometry">
            <mxPoint x="550" y="359" as="sourcePoint" />
            <mxPoint x="480" y="361" as="targetPoint" />
          </mxGeometry>
        </mxCell>
        <mxCell id="ZVRVcHzqKUU942DQ3SIE-32" value="" style="shape=flexArrow;endArrow=classic;startArrow=classic;html=1;rounded=0;fillColor=#ffe6cc;strokeColor=#d79b00;exitX=0;exitY=0.5;exitDx=0;exitDy=0;" edge="1" parent="1" source="ZVRVcHzqKUU942DQ3SIE-14">
          <mxGeometry width="100" height="100" relative="1" as="geometry">
            <mxPoint x="398.42" y="245" as="sourcePoint" />
            <mxPoint x="302" y="302" as="targetPoint" />
          </mxGeometry>
        </mxCell>
        <mxCell id="ZVRVcHzqKUU942DQ3SIE-33" value="" style="shape=flexArrow;endArrow=classic;startArrow=classic;html=1;rounded=0;fillColor=#ffe6cc;strokeColor=#d79b00;" edge="1" parent="1">
          <mxGeometry width="100" height="100" relative="1" as="geometry">
            <mxPoint x="398.42" y="264" as="sourcePoint" />
            <mxPoint x="328.42" y="266" as="targetPoint" />
          </mxGeometry>
        </mxCell>
        <mxCell id="ZVRVcHzqKUU942DQ3SIE-34" value="" style="shape=flexArrow;endArrow=classic;startArrow=classic;html=1;rounded=0;fillColor=#ffe6cc;strokeColor=#d79b00;" edge="1" parent="1">
          <mxGeometry width="100" height="100" relative="1" as="geometry">
            <mxPoint x="550" y="254" as="sourcePoint" />
            <mxPoint x="480" y="256" as="targetPoint" />
          </mxGeometry>
        </mxCell>
        <mxCell id="ZVRVcHzqKUU942DQ3SIE-35" value="" style="shape=flexArrow;endArrow=classic;startArrow=classic;html=1;rounded=0;fillColor=#ffe6cc;strokeColor=#d79b00;" edge="1" parent="1">
          <mxGeometry width="100" height="100" relative="1" as="geometry">
            <mxPoint x="550" y="149" as="sourcePoint" />
            <mxPoint x="480" y="151" as="targetPoint" />
          </mxGeometry>
        </mxCell>
      </root>
    </mxGraphModel>
  </diagram>
</mxfile>
